SplineFontDB: 3.0
FontName: SWIFTDAY3Italic
FullName: SWIFTDAY3Italic
FamilyName: SWIFTDAY3
Weight: Regular
Copyright: Copyright (c) 2015, kelvin,,,
UComments: "2015-2-16: Created with FontForge (http://fontforge.org)"
Version: 001.000
ItalicAngle: -10
UnderlinePosition: -100
UnderlineWidth: 50
Ascent: 770
Descent: 230
InvalidEm: 0
LayerCount: 2
Layer: 0 0 "Back" 1
Layer: 1 0 "Fore" 0
XUID: [1021 664 -1180520147 15462304]
FSType: 0
OS2Version: 0
OS2_WeightWidthSlopeOnly: 0
OS2_UseTypoMetrics: 1
CreationTime: 1424125131
ModificationTime: 1428160825
PfmFamily: 17
TTFWeight: 400
TTFWidth: 5
LineGap: 0
VLineGap: 0
OS2TypoAscent: 820
OS2TypoAOffset: 0
OS2TypoDescent: -430
OS2TypoDOffset: 0
OS2TypoLinegap: 0
OS2WinAscent: 820
OS2WinAOffset: 0
OS2WinDescent: 430
OS2WinDOffset: 0
HheadAscent: 820
HheadAOffset: 0
HheadDescent: -430
HheadDOffset: 0
OS2CapHeight: 638
OS2XHeight: 425
OS2Vendor: 'PfEd'
Lookup: 4 0 1 "Opentypeshortcuts" { "Opentypeshortcuts subtable"  } ['liga' ('latn' <'dflt' > 'grek' <'dflt' > 'DFLT' <'dflt' > ) ]
Lookup: 4 0 1 "Oldstyleinitialize" { "Oldstyleinitialize subtable"  } ['liga' ('math' <'dflt' > 'latn' <'dflt' > 'grek' <'dflt' > 'DFLT' <'dflt' > ) ]
Lookup: 6 0 0 "Oldstylechaining" { "Oldstylechaining subtable"  } ['calt' ('math' <'dflt' > 'latn' <'dflt' > 'grek' <'dflt' > 'DFLT' <'dflt' > ) ]
Lookup: 1 0 0 "Single Substitution lookup 3" { "Single Substitution lookup 3 subtable"  } []
Lookup: 6 0 0 "Oldstylerendering" { "Oldstylerendering subtable"  } ['calt' ('math' <'dflt' > 'latn' <'dflt' > 'grek' <'dflt' > 'DFLT' <'dflt' > ) ]
Lookup: 1 0 0 "Single Substitution lookup 5" { "Single Substitution lookup 5 subtable"  } []
Lookup: 4 0 1 "Oldstyleclosingtag" { "Oldstyleclosingtag subtable"  } ['liga' ('math' <'dflt' > 'latn' <'dflt' > 'grek' <'dflt' > 'DFLT' <'dflt' > ) ]
Lookup: 6 0 0 "Tagwarning" { "Tagwarning subtable"  } ['calt' ('math' <'dflt' > 'latn' <'dflt' > 'grek' <'dflt' > 'DFLT' <'dflt' > ) ]

StartChar: exclam
Encoding: 33 33 1
Width: 266
GlyphClass: 3
Flags: HMW
LayerCount: 2
Back
Fore
SplineSet
198 640 m 1
 283 650 l 1
 296 641 l 1
 184 214 l 1
 143 214 l 1
 198 640 l 1
EndSplineSet
Refer: 14 46 N 1 0 0 1 5 0 2
Validated: 1
Ligature2: "SmallCapsClose subtable" exclam.smcpflag less slash s c greater
Substitution2: "Single Substitution lookup 14 subtable" exclam.smcpflag
EndChar

StartChar: quotedbl
Encoding: 34 34 2
Width: 350
GlyphClass: 3
Flags: HMW
LayerCount: 2
Back
Fore
SplineSet
343 637 m 1
 402 647 l 1
 416 641 l 1
 368 458 l 1
 328 458 l 1
 343 637 l 1
160 637 m 1
 219 647 l 1
 233 641 l 1
 185 455 l 1
 145 455 l 1
 160 637 l 1
EndSplineSet
Validated: 1
Ligature2: "SmallCapsClose subtable" quotedbl.smcpflag less slash s c greater
Substitution2: "Single Substitution lookup 14 subtable" quotedbl.smcpflag
EndChar

StartChar: numbersign
Encoding: 35 35 3
Width: 453
GlyphClass: 2
Flags: HMW
LayerCount: 2
Back
SplineSet
418 592 m 5
 453 581 l 5
 284 32 l 5
 249 43 l 5
 418 592 l 5
70 196 m 5
 70 237 l 5
 439 237 l 5
 439 196 l 5
 70 196 l 5
126 396 m 5
 126 437 l 5
 495 437 l 5
 495 396 l 5
 126 396 l 5
278 592 m 5
 313 581 l 5
 144 32 l 5
 109 43 l 5
 278 592 l 5
EndSplineSet
Fore
SplineSet
278 592 m 1
 313 581 l 1
 269 437 l 1
 370 437 l 1
 418 592 l 1
 453 581 l 1
 409 437 l 1
 495 437 l 1
 495 396 l 1
 396 396 l 1
 347 237 l 1
 439 237 l 1
 439 196 l 1
 334 196 l 1
 284 32 l 1
 249 43 l 1
 296 196 l 1
 194 196 l 1
 144 32 l 1
 109 43 l 1
 156 196 l 1
 70 196 l 1
 70 237 l 1
 169 237 l 1
 218 396 l 1
 126 396 l 1
 126 437 l 1
 230 437 l 1
 278 592 l 1
256 396 m 1
 207 237 l 1
 309 237 l 1
 358 396 l 1
 256 396 l 1
EndSplineSet
Validated: 1
EndChar

StartChar: dollar
Encoding: 36 36 4
Width: 477
GlyphClass: 2
Flags: HMW
LayerCount: 2
Back
SplineSet
122 74 m 5
 149 60 192 48 232 48 c 7
 302 48 360 72 360 142 c 7
 360 204 327 231 258 277 c 4
 172 334 140 381 140 441 c 7
 140 519 212 607 334 607 c 7
 400 607 439 594 459 585 c 5
 442 475 l 5
 404 477 l 5
 411 554 l 5
 394 564 350 571 319 571 c 7
 255 571 205 537 205 468 c 7
 205 412 239.545273527 388.672835884 298 352 c 4
 396.787306213 290.023648613 432 251 432 184 c 7
 432 92 358 11 216 11 c 7
 146 11 112 23 74 40 c 5
 86 160 l 5
 124 163 l 5
 122 74 l 5
322 689 m 5
 352 685 l 5
 231 -86 l 5
 201 -82 l 5
 322 689 l 5
EndSplineSet
Fore
SplineSet
322 689 m 1
 352 685 l 1
 340 607 l 1
 403 606 440 594 459 585 c 1
 442 475 l 1
 404 477 l 1
 411 554 l 1
 397 562 363 569 334 571 c 1
 300 351 l 1
 398 290 432 251 432 184 c 3
 432 99 368 23 246 12 c 1
 231 -86 l 1
 201 -82 l 1
 216 11 l 1
 146 11 112 23 74 40 c 1
 86 160 l 1
 124 163 l 1
 122 74 l 1
 147 61 184 50 221 48 c 1
 257 277 l 1
 171 334 140 381 140 441 c 3
 140 513 202 595 309 606 c 1
 322 689 l 1
272 369 m 1
 303 570 l 1
 247 565 205 531 205 468 c 3
 205 421 230 397 272 369 c 1
285 259 m 1
 252 49 l 1
 313 53 360 79 360 142 c 3
 360 195 336 223 285 259 c 1
EndSplineSet
Validated: 1
Substitution2: "Single Substitution lookup 14 subtable" dollar.smcpflag
Substitution2: "'smcp' Lowercase to Small Capitals lookup 10-1" dollar.smcp
Substitution2: "onumOldstyleFigureslookup0 subtable" dollar.oldstyleproportional
Substitution2: "Single Substitution lookup 3 subtable" dollar.onumflag
EndChar

StartChar: percent
Encoding: 37 37 5
Width: 855
GlyphClass: 2
Flags: HMW
LayerCount: 2
Back
Fore
SplineSet
348 637 m 3
 401 637 458 611 458 521 c 3
 458 351 315 278 255 278 c 3
 201 278 144 304 144 394 c 3
 144 564 287 637 348 637 c 3
290 320 m 3
 350 320 391 398 391 496 c 3
 391 565 354 596 313 596 c 3
 252 596 212 518 212 420 c 3
 212 351 248 320 290 320 c 3
711 347 m 3
 764 347 821 321 821 231 c 3
 821 61 678 -12 618 -12 c 3
 564 -12 507 14 507 104 c 3
 507 274 650 347 711 347 c 3
653 30 m 3
 713 30 754 108 754 206 c 3
 754 275 717 306 676 306 c 3
 615 306 575 228 575 130 c 3
 575 61 611 30 653 30 c 3
683 638 m 5
 715 615 l 5
 287 -11 l 5
 255 12 l 5
 683 638 l 5
EndSplineSet
Validated: 1
Substitution2: "Single Substitution lookup 14 subtable" percent.smcpflag
Substitution2: "'smcp' Lowercase to Small Capitals lookup 10-1" percent.smcp
Substitution2: "onumOldstyleFigureslookup0 subtable" percent.oldstyleproportional
Substitution2: "Single Substitution lookup 3 subtable" percent.onumflag
EndChar

StartChar: ampersand
Encoding: 38 38 6
Width: 696
GlyphClass: 3
Flags: HMW
LayerCount: 2
Back
SplineSet
126 213 m 1
 306 331 481 446 481 568 c 3
 481 596 475 626 461 645 c 1
 468 661 l 1
 546 690 l 1
 555 681 562 662 562 634 c 3
 562 455 316 307 142 182 c 1
 126 213 l 1
288 387 m 3
 196 387 148 330 148 222 c 3
 148 122 222 48 333 48 c 3
 455 48 544 147 544 241 c 3
 544 306 523 316 478 322 c 1
 486 367 l 1
 604 367 661 382 715 425 c 1
 730 412 l 1
 725 383 696 330 678 323 c 0
 659 315 624 311 579 308 c 1
 582 252 l 1
 582 143 467 -11 295 -12 c 3
 170 -12 78 74 78 183 c 3
 78 334 229 437 338 437 c 3
 372 437 391 429 408 418 c 1
 408 399 380 371 367 365 c 1
 351 377 320 387 288 387 c 3
EndSplineSet
Fore
SplineSet
546 690 m 1
 555 681 562 662 562 634 c 3
 562 458 324 312 151 188 c 1
 166 105 235 48 333 48 c 3
 455 48 544 147 544 241 c 3
 544 306 523 316 478 322 c 1
 486 367 l 1
 604 367 661 382 715 425 c 1
 730 412 l 1
 725 383 696 330 678 323 c 0
 659 315 624 311 579 308 c 1
 582 252 l 1
 582 143 467 -11 295 -12 c 3
 170 -12 78 74 78 183 c 3
 78 334 229 437 338 437 c 3
 369 437 388 430 404 420 c 1
 451 468 481 518 481 568 c 3
 481 596 475 626 461 645 c 1
 468 661 l 1
 546 690 l 1
288 387 m 3
 198 387 150 331 148 227 c 1
 222 276 295 324 353 373 c 1
 336 381 312 387 288 387 c 3
EndSplineSet
Validated: 1
LCarets2: 5 0 0 0 0 0
Ligature2: "SmallCapsClose subtable" ampersand.smcpflag less slash s c greater
Substitution2: "Single Substitution lookup 14 subtable" ampersand.smcpflag
EndChar

StartChar: quotesingle
Encoding: 39 39 7
Width: 168
GlyphClass: 3
Flags: HMW
LayerCount: 2
Back
Fore
SplineSet
160 637 m 1
 220 647 l 1
 234 641 l 1
 186 458 l 1
 145 458 l 1
 160 637 l 1
EndSplineSet
Validated: 1
Ligature2: "SmallCapsClose subtable" quotesingle.smcpflag less slash s c greater
Substitution2: "Single Substitution lookup 14 subtable" quotesingle.smcpflag
EndChar

StartChar: parenleft
Encoding: 40 40 8
Width: 326
GlyphClass: 3
Flags: HMW
LayerCount: 2
Back
Fore
SplineSet
147 211 m 3
 147 35 198 -66 256 -138 c 1
 238 -159 l 1
 157 -89 88 19 88 201 c 7
 88 435 237 608 372 689 c 1
 384 668 l 1
 267 582 147 415 147 211 c 3
EndSplineSet
Validated: 1
Ligature2: "SmallCapsClose subtable" parenleft.smcpflag less slash s c greater
Substitution2: "Single Substitution lookup 14 subtable" parenleft.smcpflag
EndChar

StartChar: asterisk
Encoding: 42 42 10
Width: 459
GlyphClass: 2
Flags: HMW
LayerCount: 2
Back
Fore
SplineSet
335 650 m 1
 349 660 l 1
 399 641 l 1
 403 625 l 1
 332 512 l 1
 314 519 l 1
 335 650 l 1
177 562 m 1
 171 578 l 1
 205 620 l 1
 221 618 l 1
 307 517 l 1
 295 502 l 1
 177 562 l 1
211 384 m 1
 194 384 l 1
 165 428 l 1
 171 444 l 1
 295 494 l 1
 305 478 l 1
 211 384 l 1
391 362 m 1
 385 346 l 1
 335 331 l 1
 322 343 l 1
 313 475 l 1
 332 480 l 1
 391 362 l 1
468 526 m 1
 481 516 l 1
 479 463 l 1
 464 455 l 1
 336 486 l 1
 337 505 l 1
 468 526 l 1
EndSplineSet
Validated: 1
EndChar

StartChar: plus
Encoding: 43 43 11
Width: 476
GlyphClass: 2
Flags: HMW
LayerCount: 2
Back
Fore
SplineSet
295 425 m 1
 331 425 l 1
 301 254 l 1
 470 254 l 1
 465 220 l 1
 295 220 l 1
 265 49 l 1
 229 49 l 1
 259 220 l 1
 89 220 l 1
 94 254 l 1
 265 254 l 1
 295 425 l 1
EndSplineSet
Validated: 1
EndChar

StartChar: comma
Encoding: 44 44 12
Width: 258
GlyphClass: 3
Flags: HMW
LayerCount: 2
Back
Fore
SplineSet
123 -10 m 1
 106 2 83 21 83 48 c 3
 83 78 103 104 141 104 c 7
 174 104 191 76 191 45 c 3
 191 -33 126 -105 51 -142 c 1
 39 -120 l 1
 82 -92 121 -58 123 -10 c 1
EndSplineSet
Validated: 1
Ligature2: "SmallCapsClose subtable" comma.smcpflag less slash s c greater
Substitution2: "Single Substitution lookup 14 subtable" comma.smcpflag
Ligature2: "Oldstyleclosingtag subtable" comma.onumflag less slash o n u m greater
Substitution2: "Single Substitution lookup 3 subtable" comma.onumflag
EndChar

StartChar: hyphen
Encoding: 45 45 13
Width: 316
GlyphClass: 3
Flags: HMW
LayerCount: 2
Back
Fore
SplineSet
91 210 m 1
 97 254 l 1
 307 254 l 1
 301 210 l 1
 91 210 l 1
EndSplineSet
Validated: 1
Ligature2: "SmallCapsClose subtable" hyphen.smcpflag less slash s c greater
Substitution2: "Single Substitution lookup 14 subtable" hyphen.smcpflag
Ligature2: "Oldstyleclosingtag subtable" hyphen.onumflag less slash o n u m greater
Substitution2: "Single Substitution lookup 3 subtable" hyphen.onumflag
EndChar

StartChar: period
Encoding: 46 46 14
Width: 246
GlyphClass: 3
Flags: HMW
LayerCount: 2
Back
Fore
SplineSet
131 104 m 7
 161 104 186 79 186 49 c 3
 186 19 161 -6 131 -6 c 3
 101 -6 76 19 76 49 c 3
 76 79 101 104 131 104 c 7
EndSplineSet
Validated: 1
Ligature2: "SmallCapsClose subtable" period.smcpflag less slash s c greater
Substitution2: "Single Substitution lookup 14 subtable" period.smcpflag
Ligature2: "Oldstyleclosingtag subtable" period.onumflag less slash o n u m greater
Substitution2: "Single Substitution lookup 3 subtable" period.onumflag
EndChar

StartChar: slash
Encoding: 47 47 15
Width: 296
GlyphClass: 2
Flags: HMW
LayerCount: 2
Back
Fore
SplineSet
395 687 m 1
 428 669 l 5
 62 -48 l 5
 29 -30 l 1
 395 687 l 1
EndSplineSet
Validated: 1
EndChar

StartChar: zero
Encoding: 48 48 16
Width: 496
GlyphClass: 2
Flags: HMW
LayerCount: 2
Back
Fore
SplineSet
267 33 m 3
 372 33 428 199 428 399 c 3
 428 525 414 593 341 593 c 3
 236 593 180 427 180 227 c 3
 180 101 194 33 267 33 c 3
244 -12 m 3
 125 -12 95 66 95 211 c 3
 95 437 215 638 364 638 c 3
 483 638 513 560 513 415 c 3
 513 189 393 -12 244 -12 c 3
EndSplineSet
Validated: 1
Substitution2: "Single Substitution lookup 14 subtable" zero.smcpflag
Substitution2: "'smcp' Lowercase to Small Capitals lookup 10-1" zero.smcp
Substitution2: "onumOldstyleFigureslookup0 subtable" zero.oldstyleproportional
Substitution2: "Single Substitution lookup 3 subtable" zero.onumflag
EndChar

StartChar: one
Encoding: 49 49 17
Width: 370
VWidth: -3
GlyphClass: 2
Flags: HMW
LayerCount: 2
Back
Fore
SplineSet
344 639 m 1
 238 38 l 1
 323 18 l 1
 323 0 l 1
 63 0 l 1
 63 18 l 1
 163 43 l 1
 260 595 l 1
 178 607 l 1
 179 625 l 1
 344 639 l 1
EndSplineSet
Validated: 1
Substitution2: "Single Substitution lookup 14 subtable" one.smcpflag
Substitution2: "'smcp' Lowercase to Small Capitals lookup 10-1" one.smcp
Substitution2: "onumOldstyleFigureslookup0 subtable" one.oldstyleproportional
Substitution2: "Single Substitution lookup 3 subtable" one.onumflag
EndChar

StartChar: two
Encoding: 50 50 18
Width: 500
VWidth: 0
GlyphClass: 2
Flags: HMW
LayerCount: 2
Back
Fore
SplineSet
331 586 m 3
 284 586 243 581 199 556 c 1
 185 581 l 1
 248 618 308 638 372 638 c 3
 468 638 501 579 501 509 c 3
 501 338 262 126 160 64 c 1
 418 64 l 9
 440 103 l 1
 462 98 l 1
 438 0 l 1
 56 0 l 1
 56 32 l 1
 230 139 417 312 417 490 c 3
 417 538 395 586 331 586 c 3
EndSplineSet
Validated: 1
Substitution2: "Single Substitution lookup 14 subtable" two.smcpflag
Substitution2: "'smcp' Lowercase to Small Capitals lookup 10-1" two.smcp
Substitution2: "onumOldstyleFigureslookup0 subtable" two.oldstyleproportional
Substitution2: "Single Substitution lookup 3 subtable" two.onumflag
EndChar

StartChar: three
Encoding: 51 51 19
Width: 440
VWidth: 0
GlyphClass: 2
Flags: HMW
LayerCount: 2
Back
Fore
SplineSet
427 215 m 3
 427 95 314 -12 55 -12 c 1
 55 23 l 1
 235 23 346 81 346 199 c 3
 346 244 334 257 302 276 c 4
 272 294 241 294 196 295 c 1
 197 327 l 1
 301 369 350 435 350 512 c 3
 350 558 324 588 278 588 c 3
 236 588 206 580 163 556 c 1
 149 581 l 1
 209 618 263 638 325 638 c 3
 403 638 434 593 434 530 c 3
 434 437 335 362 287 339 c 1
 316 338 333 335 354 327 c 0
 410 305 427 272 427 215 c 3
EndSplineSet
Validated: 1
Substitution2: "Single Substitution lookup 14 subtable" three.smcpflag
Substitution2: "'smcp' Lowercase to Small Capitals lookup 10-1" three.smcp
Substitution2: "onumOldstyleFigureslookup0 subtable" three.oldstyleproportional
Substitution2: "Single Substitution lookup 3 subtable" three.onumflag
EndChar

StartChar: four
Encoding: 52 52 20
Width: 549
VWidth: -3
GlyphClass: 2
Flags: HMW
LayerCount: 2
Back
SplineSet
436 629 m 1
 501 623 l 1
 397 34 l 1
 453 18 l 1
 453 0 l 1
 253 0 l 1
 253 18 l 1
 323 43 l 1
 411 547 l 1
 142 205 l 1
 545 205 l 25
 536 154 l 25
 76 154 l 25
 71 175 l 1
 436 629 l 1
EndSplineSet
Fore
SplineSet
436 629 m 1
 501 623 l 1
 427 205 l 1
 545 205 l 1
 536 154 l 1
 418 154 l 1
 397 34 l 1
 453 18 l 1
 453 0 l 1
 253 0 l 1
 253 18 l 1
 323 43 l 1
 342 154 l 1
 76 154 l 1
 71 175 l 1
 436 629 l 1
411 547 m 1
 142 205 l 1
 351 205 l 1
 411 547 l 1
EndSplineSet
Validated: 1
Substitution2: "Single Substitution lookup 14 subtable" four.smcpflag
Substitution2: "'smcp' Lowercase to Small Capitals lookup 10-1" four.smcp
Substitution2: "onumOldstyleFigureslookup0 subtable" four.oldstyleproportional
Substitution2: "Single Substitution lookup 3 subtable" four.onumflag
EndChar

StartChar: five
Encoding: 53 53 21
Width: 433
VWidth: 0
GlyphClass: 2
Flags: HMW
LayerCount: 2
Back
Fore
SplineSet
48 -12 m 1
 54 23 l 1
 225 23 330 88 330 212 c 3
 330 232 326 263 287 284 c 0
 254 302 199 307 121 307 c 1
 113 316 l 1
 212 626 l 1
 438 626 l 1
 443 613 l 1
 424 562 l 1
 231 562 l 1
 171 366 l 1
 250 366 298 363 339 345 c 4
 395 319 413 283 413 239 c 3
 413 78 255 -12 48 -12 c 1
EndSplineSet
Validated: 1
Substitution2: "Single Substitution lookup 14 subtable" five.smcpflag
Substitution2: "'smcp' Lowercase to Small Capitals lookup 10-1" five.smcp
Substitution2: "onumOldstyleFigureslookup0 subtable" five.oldstyleproportional
Substitution2: "Single Substitution lookup 3 subtable" five.onumflag
EndChar

StartChar: six
Encoding: 54 54 22
Width: 475
VWidth: 0
GlyphClass: 2
Flags: HMW
LayerCount: 2
Back
SplineSet
176 265 m 1
 176 304 l 1
 218 338 264 362 328 362 c 3
 419 362 461 289 461 223 c 3
 461 80 334 -12 231 -12 c 3
 141 -12 91 52 91 150 c 3
 91 412 295 566 471 638 c 1
 482 610 l 1
 336 539 169 425 169 158 c 3
 169 85 202 34 260 34 c 3
 324 34 391 73 391 199 c 3
 391 265 347 310 291 310 c 3
 245 310 220 297 176 265 c 1
EndSplineSet
Fore
SplineSet
291 310 m 3
 246 310 222 298 180 268 c 1
 173 235 169 198 169 158 c 3
 169 85 202 34 260 34 c 3
 324 34 391 73 391 199 c 3
 391 265 347 310 291 310 c 3
471 638 m 1
 482 610 l 1
 369 555 243 474 192 316 c 1
 230 343 272 362 328 362 c 3
 419 362 461 289 461 223 c 3
 461 80 334 -12 231 -12 c 3
 141 -12 91 52 91 150 c 3
 91 412 295 566 471 638 c 1
EndSplineSet
Validated: 1
Substitution2: "Single Substitution lookup 14 subtable" six.smcpflag
Substitution2: "'smcp' Lowercase to Small Capitals lookup 10-1" six.smcp
Substitution2: "onumOldstyleFigureslookup0 subtable" six.oldstyleproportional
Substitution2: "Single Substitution lookup 3 subtable" six.onumflag
EndChar

StartChar: seven
Encoding: 55 55 23
Width: 400
VWidth: 0
GlyphClass: 2
Flags: HMW
LayerCount: 2
Back
Fore
SplineSet
122 579 m 1
 140 626 l 1
 474 626 l 1
 487 607 l 1
 140 -15 l 9
 87 12 l 17
 206 192 319 380 422 562 c 1
 129 562 l 1
 122 579 l 1
EndSplineSet
Validated: 1
Substitution2: "Single Substitution lookup 14 subtable" seven.smcpflag
Substitution2: "'smcp' Lowercase to Small Capitals lookup 10-1" seven.smcp
Substitution2: "onumOldstyleFigureslookup0 subtable" seven.oldstyleproportional
Substitution2: "Single Substitution lookup 3 subtable" seven.onumflag
EndChar

StartChar: eight
Encoding: 56 56 24
Width: 489
VWidth: 0
GlyphClass: 2
Flags: HMW
LayerCount: 2
Back
SplineSet
281 306 m 17
 205 265 148 219 148 122 c 3
 148 61 187 27 249 27 c 3
 315 27 381 73 381 155 c 3
 381 274 166 312 166 454 c 3
 166 551 250 638 357 638 c 3
 445 638 485 592 485 530 c 3
 485 430 388 359 338 334 c 9
 316 351 l 1
 380 386 423 450 423 524 c 3
 423 577 395 603 344 603 c 3
 291 603 236 552 236 482 c 3
 236 347 460 325 460 187 c 3
 460 73 355 -12 237 -12 c 3
 145 -12 82 28 82 109 c 3
 82 216 188 290 264 325 c 9
 281 306 l 17
EndSplineSet
Fore
SplineSet
322 354 m 1
 383 390 423 452 423 524 c 3
 423 577 395 603 344 603 c 3
 291 603 236 552 236 482 c 3
 236 425 276 388 322 354 c 1
357 638 m 3
 445 638 485 592 485 530 c 3
 485 435 397 366 345 338 c 1
 402 298 460 257 460 187 c 3
 460 73 355 -12 237 -12 c 3
 145 -12 82 28 82 109 c 3
 82 208 173 279 247 317 c 1
 203 354 166 395 166 454 c 3
 166 551 250 638 357 638 c 3
269 299 m 1
 199 260 148 214 148 122 c 3
 148 61 187 27 249 27 c 3
 315 27 381 73 381 155 c 3
 381 216 324 256 269 299 c 1
EndSplineSet
Validated: 1
Substitution2: "Single Substitution lookup 14 subtable" eight.smcpflag
Substitution2: "'smcp' Lowercase to Small Capitals lookup 10-1" eight.smcp
Substitution2: "onumOldstyleFigureslookup0 subtable" eight.oldstyleproportional
Substitution2: "Single Substitution lookup 3 subtable" eight.onumflag
EndChar

StartChar: nine
Encoding: 57 57 25
Width: 479
VWidth: 0
GlyphClass: 2
Flags: HMW
LayerCount: 2
Back
SplineSet
407 366 m 1
 407 327 l 1
 365 293 322 274 258 274 c 3
 167 274 127 337 127 403 c 3
 127 546 249 638 352 638 c 3
 442 638 492 574 492 476 c 3
 492 214 288 60 112 -12 c 1
 101 16 l 1
 247 87 414 201 414 468 c 3
 414 541 381 592 323 592 c 3
 259 592 197 553 197 427 c 3
 197 361 239 326 295 326 c 3
 341 326 363 334 407 366 c 1
EndSplineSet
Fore
SplineSet
323 592 m 3
 259 592 197 553 197 427 c 3
 197 361 239 326 295 326 c 3
 340 326 363 333 405 364 c 1
 411 396 414 431 414 468 c 3
 414 541 381 592 323 592 c 3
352 638 m 3
 442 638 492 574 492 476 c 3
 492 214 288 60 112 -12 c 1
 101 16 l 1
 216 72 343 154 393 316 c 1
 355 289 315 274 258 274 c 3
 167 274 127 337 127 403 c 3
 127 546 249 638 352 638 c 3
EndSplineSet
Validated: 1
Substitution2: "Single Substitution lookup 14 subtable" nine.smcpflag
Substitution2: "'smcp' Lowercase to Small Capitals lookup 10-1" nine.smcp
Substitution2: "onumOldstyleFigureslookup0 subtable" nine.oldstyleproportional
Substitution2: "Single Substitution lookup 3 subtable" nine.onumflag
EndChar

StartChar: less
Encoding: 60 60 28
Width: 336
GlyphClass: 2
Flags: HMW
LayerCount: 2
Back
Fore
SplineSet
314 430 m 1
 336 405 l 1
 133 231 l 1
 273 60 l 1
 244 34 l 1
 81 232 l 1
 314 430 l 1
EndSplineSet
Validated: 1
EndChar

StartChar: equal
Encoding: 61 61 29
Width: 476
GlyphClass: 2
Flags: HMW
LayerCount: 2
Back
Fore
SplineSet
76 147 m 1
 81 181 l 1
 457 181 l 1
 452 147 l 1
 76 147 l 1
104 305 m 1
 109 339 l 1
 485 339 l 1
 480 305 l 1
 104 305 l 1
EndSplineSet
Validated: 1
EndChar

StartChar: greater
Encoding: 62 62 30
Width: 336
GlyphClass: 2
Flags: HMW
LayerCount: 2
Back
Fore
SplineSet
174 430 m 1
 337 232 l 1
 104 34 l 1
 82 59 l 1
 285 233 l 1
 145 404 l 1
 174 430 l 1
EndSplineSet
Validated: 1
EndChar

StartChar: question
Encoding: 63 63 31
Width: 387
VWidth: 0
GlyphClass: 3
Flags: HMW
LayerCount: 2
Back
Fore
SplineSet
311 650 m 3
 398 650 437 607 437 535 c 3
 437 476 384 413 339 368 c 2
 234 263 l 9
 234 214 l 1
 215 203 l 1
 170 272 l 1
 173 291 l 1
 306 424 l 2
 340 458 359 494 359 535 c 3
 359 582 317 601 277 601 c 3
 218 601 181 574 140 542 c 1
 123 567 l 1
 156 596 226 650 311 650 c 3
EndSplineSet
Refer: 14 46 S 1 0 0 1 56 0 2
Validated: 1
Ligature2: "SmallCapsClose subtable" question.smcpflag less slash s c greater
Substitution2: "Single Substitution lookup 14 subtable" question.smcpflag
EndChar

StartChar: at
Encoding: 64 64 32
Width: 726
GlyphClass: 2
Flags: HMW
LayerCount: 2
Back
Fore
SplineSet
460 535 m 3
 639 535 718 435 718 303 c 3
 718 137 597 41 492 41 c 3
 461 41 433 55 441 102 c 2
 453 171 l 1
 412 83 364 39 319 39 c 3
 290 39 248 55 248 131 c 3
 248 245 331 385 486 385 c 3
 514 385 546 379 562 374 c 1
 530 234 l 1
 515 138 l 2
 509 102 521 91 540 91 c 3
 596 91 671 161 671 284 c 3
 671 426 586 502 438 502 c 3
 274 502 145 352 145 165 c 3
 145 -21 252 -91 384 -91 c 3
 459 -91 535 -71 595 -26 c 1
 611 -49 l 1
 542 -101 461 -130 373 -130 c 3
 223 -130 89 -53 89 154 c 3
 89 357 257 535 460 535 c 3
430 340 m 3
 344 340 319 241 319 147 c 3
 319 114 328 96 351 96 c 3
 382 96 443 188 476 295 c 1
 482 331 l 1
 471 335 449 340 430 340 c 3
EndSplineSet
Validated: 1
EndChar

StartChar: A
Encoding: 65 65 33
Width: 610
GlyphClass: 3
Flags: HMW
AnchorPoint: "bottom" 529 0 basechar 0
AnchorPoint: "top" 394 638 basechar 0
LayerCount: 2
Back
SplineSet
201 216 m 1
 207 253 l 1
 503 253 l 1
 497 216 l 1
 201 216 l 1
393 650 m 1
 425 650 l 1
 553 36 l 1
 609 20 l 1
 609 0 l 1
 404 0 l 1
 404 20 l 1
 469 39 l 1
 376 528 l 1
 134 38 l 1
 204 20 l 1
 204 0 l 1
 14 0 l 1
 14 20 l 1
 79 37 l 1
 393 650 l 1
EndSplineSet
Fore
SplineSet
393 650 m 1
 425 650 l 1
 553 36 l 1
 609 20 l 1
 609 0 l 1
 404 0 l 1
 404 20 l 1
 469 39 l 1
 435 216 l 1
 222 216 l 1
 134 38 l 1
 204 20 l 1
 204 0 l 1
 14 0 l 1
 14 20 l 1
 79 37 l 1
 393 650 l 1
428 253 m 1
 376 528 l 1
 240 253 l 1
 428 253 l 1
EndSplineSet
Validated: 1
Ligature2: "SmallCapsClose subtable" A.smcpflag less slash s c greater
Substitution2: "Single Substitution lookup 14 subtable" A.smcpflag
EndChar

StartChar: B
Encoding: 66 66 34
Width: 584
GlyphClass: 3
Flags: HMW
LayerCount: 2
Back
Fore
SplineSet
327 39 m 2
 440 39 481 92 481 190 c 3
 481 289 446 315 346 315 c 2
 248 315 l 1
 205 39 l 1
 327 39 l 2
146 638 m 1
 389 638 l 2
 520 638 570 609 570 510 c 3
 570 422 493 358 435 341 c 1
 503 331 565 294 565 200 c 3
 565 81 482 0 323 0 c 2
 49 0 l 1
 49 20 l 1
 127 45 l 1
 215 599 l 1
 146 618 l 1
 146 638 l 1
253 350 m 1
 338 350 l 2
 429 350 486 401 486 499 c 3
 486 589 441 600 360 600 c 2
 292 600 l 1
 253 350 l 1
EndSplineSet
Validated: 1
Ligature2: "SmallCapsClose subtable" B.smcpflag less slash s c greater
Substitution2: "Single Substitution lookup 14 subtable" B.smcpflag
EndChar

StartChar: C
Encoding: 67 67 35
Width: 565
GlyphClass: 3
Flags: HMW
AnchorPoint: "top" 430 638 basechar 0
AnchorPoint: "bottom" 333 0 basechar 0
LayerCount: 2
Back
Fore
SplineSet
442 607 m 3
 253 607 175 426 175 244 c 3
 175 144 235 36 364 36 c 3
 410 36 456 42 483 53 c 1
 511 153 l 1
 555 150 l 1
 527 30 l 1
 493 15 418 -12 329 -12 c 3
 153 -12 93 115 93 241 c 3
 93 462 233 650 461 650 c 3
 543 650 592 632 621 617 c 1
 593 486 l 1
 556 491 l 1
 562 580 l 1
 540 595 488 607 442 607 c 3
EndSplineSet
Validated: 1
Ligature2: "SmallCapsClose subtable" C.smcpflag less slash s c greater
Substitution2: "Single Substitution lookup 14 subtable" C.smcpflag
EndChar

StartChar: D
Encoding: 68 68 36
Width: 646
GlyphClass: 3
Flags: HMW
AnchorPoint: "bottom" 280 0 basechar 0
AnchorPoint: "top" 380 638 basechar 0
LayerCount: 2
Back
Fore
SplineSet
205 39 m 1
 304 39 l 2
 445 39 561 142 561 391 c 3
 561 566 494 600 352 600 c 2
 292 600 l 1
 205 39 l 1
298 0 m 2
 49 0 l 1
 49 20 l 1
 127 45 l 1
 215 599 l 1
 146 618 l 1
 146 638 l 1
 371 638 l 2
 563 638 646 583 646 392 c 3
 646 137 481 0 298 0 c 2
EndSplineSet
Validated: 1
LCarets2: 5 0 0 0 0 0
Ligature2: "SmallCapsClose subtable" D.smcpflag less slash s c greater
Substitution2: "Single Substitution lookup 14 subtable" D.smcpflag
EndChar

StartChar: E
Encoding: 69 69 37
Width: 563
GlyphClass: 3
Flags: HMW
AnchorPoint: "bottom" 306 0 basechar 0
AnchorPoint: "top" 374 638 basechar 0
LayerCount: 2
Back
SplineSet
247 312 m 5
 253 353 l 5
 429 353 l 5
 447 409 l 5
 482 409 l 5
 458 256 l 5
 423 256 l 5
 422 312 l 5
 247 312 l 5
205 44 m 5
 461 44 l 5
 501 139 l 5
 537 134 l 5
 501 0 l 5
 49 0 l 5
 49 20 l 5
 127 45 l 5
 215 599 l 5
 146 618 l 5
 146 638 l 5
 569 638 l 5
 552 513 l 5
 517 510 l 5
 517 596 l 5
 293 596 l 5
 205 44 l 5
EndSplineSet
Fore
SplineSet
146 638 m 1
 569 638 l 1
 552 513 l 1
 517 510 l 1
 517 596 l 1
 293 596 l 1
 254 353 l 1
 429 353 l 1
 447 409 l 1
 482 409 l 1
 458 256 l 1
 423 256 l 1
 422 312 l 1
 248 312 l 1
 205 44 l 1
 461 44 l 1
 501 139 l 1
 537 134 l 1
 501 0 l 1
 49 0 l 1
 49 20 l 1
 127 45 l 1
 215 599 l 1
 146 618 l 1
 146 638 l 1
EndSplineSet
Validated: 1
LCarets2: 5 0 0 0 0 0
Ligature2: "SmallCapsClose subtable" E.smcpflag less slash s c greater
Substitution2: "Single Substitution lookup 14 subtable" E.smcpflag
EndChar

StartChar: F
Encoding: 70 70 38
Width: 489
GlyphClass: 3
Flags: HMW
LayerCount: 2
Back
SplineSet
245 302 m 1
 251 343 l 1
 422 343 l 1
 440 399 l 1
 475 399 l 1
 451 246 l 1
 416 246 l 1
 415 302 l 1
 245 302 l 1
563 638 m 1
 546 513 l 1
 511 510 l 1
 511 596 l 1
 292 596 l 1
 203 39 l 1
 282 20 l 1
 282 0 l 1
 49 0 l 1
 49 20 l 1
 127 45 l 1
 214 599 l 1
 145 618 l 1
 145 638 l 1
 563 638 l 1
EndSplineSet
Fore
SplineSet
145 638 m 1
 563 638 l 1
 546 513 l 1
 511 510 l 1
 511 596 l 1
 292 596 l 1
 252 343 l 1
 422 343 l 1
 440 399 l 1
 475 399 l 1
 451 246 l 1
 416 246 l 1
 415 302 l 1
 245 302 l 1
 203 39 l 1
 282 20 l 1
 282 0 l 1
 49 0 l 1
 49 20 l 1
 127 45 l 1
 214 599 l 1
 145 618 l 1
 145 638 l 1
EndSplineSet
Validated: 1
Ligature2: "SmallCapsClose subtable" F.smcpflag less slash s c greater
Substitution2: "Single Substitution lookup 14 subtable" F.smcpflag
EndChar

StartChar: G
Encoding: 71 71 39
Width: 630
GlyphClass: 3
Flags: HMW
AnchorPoint: "bottom" 334 0 basechar 0
AnchorPoint: "top" 420 638 basechar 0
LayerCount: 2
Back
Fore
SplineSet
546 37 m 1
 512 17 415 -12 326 -12 c 3
 150 -12 90 115 90 241 c 3
 90 462 230 650 458 650 c 3
 540 650 589 632 618 617 c 1
 590 489 l 1
 553 489 l 1
 559 581 l 1
 537 596 485 607 439 607 c 3
 250 607 172 426 172 244 c 3
 172 144 232 31 361 31 c 3
 407 31 445 36 472 46 c 1
 504 250 l 1
 423 266 l 1
 423 286 l 1
 629 286 l 1
 629 266 l 1
 582 250 l 1
 546 37 l 1
EndSplineSet
Validated: 1
Ligature2: "SmallCapsClose subtable" G.smcpflag less slash s c greater
Substitution2: "Single Substitution lookup 14 subtable" G.smcpflag
EndChar

StartChar: H
Encoding: 72 72 40
Width: 680
GlyphClass: 3
Flags: HMW
AnchorPoint: "bottom" 342 0 basechar 0
AnchorPoint: "top" 430 638 basechar 0
LayerCount: 2
Back
SplineSet
659 593 m 1
 571 39 l 1
 640 20 l 1
 640 0 l 1
 422 0 l 1
 422 20 l 1
 495 45 l 1
 583 599 l 1
 519 618 l 1
 519 638 l 1
 737 638 l 1
 737 618 l 1
 659 593 l 1
292 593 m 1
 204 39 l 1
 268 20 l 1
 268 0 l 1
 50 0 l 1
 50 20 l 1
 128 45 l 1
 216 599 l 1
 147 618 l 1
 147 638 l 1
 365 638 l 1
 365 618 l 1
 292 593 l 1
235 309 m 1
 241 352 l 1
 559 352 l 1
 553 309 l 1
 235 309 l 1
EndSplineSet
Fore
SplineSet
147 638 m 1
 365 638 l 1
 365 618 l 1
 292 593 l 1
 254 352 l 1
 544 352 l 1
 583 599 l 1
 519 618 l 1
 519 638 l 1
 737 638 l 1
 737 618 l 1
 659 593 l 1
 571 39 l 1
 640 20 l 1
 640 0 l 1
 422 0 l 1
 422 20 l 1
 495 45 l 1
 537 309 l 1
 247 309 l 1
 204 39 l 1
 268 20 l 1
 268 0 l 1
 50 0 l 1
 50 20 l 1
 128 45 l 1
 216 599 l 1
 147 618 l 1
 147 638 l 1
EndSplineSet
Validated: 1
LCarets2: 5 0 0 0 0 0
Ligature2: "SmallCapsClose subtable" H.smcpflag less slash s c greater
Substitution2: "Single Substitution lookup 14 subtable" H.smcpflag
EndChar

StartChar: I
Encoding: 73 73 41
Width: 335
GlyphClass: 3
Flags: HMW
AnchorPoint: "bottom" 179 0 basechar 0
AnchorPoint: "top" 265 638 basechar 0
LayerCount: 2
Back
Fore
SplineSet
155 638 m 1
 378 638 l 1
 378 618 l 1
 300 593 l 1
 212 39 l 1
 281 20 l 1
 281 0 l 1
 58 0 l 1
 58 20 l 1
 136 45 l 1
 224 599 l 1
 155 618 l 1
 155 638 l 1
EndSplineSet
Validated: 1
LCarets2: 5 0 0 0 0 0
Ligature2: "SmallCapsClose subtable" I.smcpflag less slash s c greater
Substitution2: "Single Substitution lookup 14 subtable" I.smcpflag
EndChar

StartChar: J
Encoding: 74 74 42
Width: 335
GlyphClass: 3
Flags: HMW
AnchorPoint: "bottom" 96 -230 basechar 0
AnchorPoint: "top" 258 638 basechar 0
LayerCount: 2
Back
Fore
SplineSet
214 599 m 1
 145 618 l 1
 145 638 l 1
 368 638 l 1
 368 618 l 1
 290 593 l 1
 205 61 l 2
 191 -26 125 -164 9 -230 c 1
 0 -213 l 1
 81 -149 112 -41 122 22 c 2
 214 599 l 1
EndSplineSet
Validated: 1
LCarets2: 5 0 0 0 0 0
Ligature2: "SmallCapsClose subtable" J.smcpflag less slash s c greater
Substitution2: "Single Substitution lookup 14 subtable" J.smcpflag
EndChar

StartChar: K
Encoding: 75 75 43
Width: 615
GlyphClass: 3
Flags: HMW
AnchorPoint: "bottom" 334 0 basechar 0
AnchorPoint: "top" 400 638 basechar 0
LayerCount: 2
Back
Fore
SplineSet
292 593 m 1
 204 39 l 1
 263 20 l 1
 263 0 l 1
 50 0 l 1
 50 20 l 1
 128 45 l 1
 216 599 l 1
 147 618 l 1
 147 638 l 1
 360 638 l 1
 360 618 l 1
 292 593 l 1
560 599 m 1
 342 341 l 1
 533 63 l 1
 567 21 l 1
 564 0 l 1
 474 0 l 1
 269 327 l 1
 309 365 l 1
 504 598 l 1
 456 617 l 1
 456 638 l 1
 629 638 l 1
 629 617 l 1
 560 599 l 1
EndSplineSet
Validated: 1
Ligature2: "SmallCapsClose subtable" K.smcpflag less slash s c greater
Substitution2: "Single Substitution lookup 14 subtable" K.smcpflag
EndChar

StartChar: L
Encoding: 76 76 44
Width: 545
GlyphClass: 3
Flags: HMW
AnchorPoint: "bottom" 310 0 basechar 0
AnchorPoint: "top" 263 638 basechar 0
LayerCount: 2
Back
Fore
SplineSet
204 44 m 1
 451 44 l 1
 492 139 l 1
 528 134 l 1
 492 0 l 1
 49 0 l 1
 49 20 l 1
 127 45 l 1
 216 599 l 1
 147 618 l 1
 147 638 l 1
 370 638 l 1
 370 618 l 1
 292 593 l 1
 204 44 l 1
EndSplineSet
Validated: 1
Ligature2: "SmallCapsClose subtable" L.smcpflag less slash s c greater
Substitution2: "Single Substitution lookup 14 subtable" L.smcpflag
EndChar

StartChar: M
Encoding: 77 77 45
Width: 834
GlyphClass: 3
Flags: HMW
LayerCount: 2
Back
Fore
SplineSet
145 638 m 1
 330 638 l 1
 440 130 l 1
 701 638 l 1
 879 638 l 1
 879 617 l 1
 803 598 l 1
 715 39 l 1
 788 21 l 1
 788 0 l 1
 567 0 l 1
 567 21 l 1
 638 39 l 1
 724 584 l 1
 721 584 l 1
 421 8 l 1
 388 8 l 1
 262 581 l 1
 257 581 l 1
 170 39 l 1
 234 21 l 1
 234 0 l 1
 41 0 l 1
 41 21 l 1
 121 39 l 1
 210 598 l 1
 145 617 l 1
 145 638 l 1
EndSplineSet
Validated: 1
Ligature2: "SmallCapsClose subtable" M.smcpflag less slash s c greater
Substitution2: "Single Substitution lookup 14 subtable" M.smcpflag
EndChar

StartChar: N
Encoding: 78 78 46
Width: 656
GlyphClass: 3
Flags: HMW
AnchorPoint: "bottom" 340 0 basechar 0
AnchorPoint: "top" 410 638 basechar 0
LayerCount: 2
Back
Fore
SplineSet
140 638 m 1
 290 638 l 1
 527 128 l 1
 601 600 l 1
 525 617 l 1
 525 638 l 1
 715 638 l 1
 715 617 l 1
 650 600 l 1
 554 -8 l 1
 505 -8 l 1
 247 548 l 1
 165 39 l 1
 241 21 l 1
 241 0 l 1
 36 0 l 1
 36 21 l 1
 116 39 l 1
 205 598 l 1
 140 617 l 1
 140 638 l 1
EndSplineSet
Validated: 1
Ligature2: "SmallCapsClose subtable" N.smcpflag less slash s c greater
Substitution2: "Single Substitution lookup 14 subtable" N.smcpflag
EndChar

StartChar: O
Encoding: 79 79 47
Width: 660
GlyphClass: 3
Flags: HMW
AnchorPoint: "bottom" 342 0 basechar 0
AnchorPoint: "top" 430 638 basechar 0
LayerCount: 2
Back
Fore
SplineSet
418 609 m 3
 263 609 175 473 175 273 c 3
 175 147 231 30 353 30 c 3
 509 30 597 165 597 365 c 3
 597 491 541 609 418 609 c 3
331 -12 m 3
 162 -12 91 112 91 257 c 3
 91 483 252 650 441 650 c 3
 610 650 681 526 681 381 c 3
 681 155 520 -12 331 -12 c 3
EndSplineSet
Validated: 1
LCarets2: 5 0 0 0 0 0
Ligature2: "SmallCapsClose subtable" O.smcpflag less slash s c greater
Substitution2: "Single Substitution lookup 14 subtable" O.smcpflag
EndChar

StartChar: P
Encoding: 80 80 48
Width: 536
GlyphClass: 3
Flags: HMW
LayerCount: 2
Back
Fore
SplineSet
146 638 m 1
 381 638 l 2
 515 638 580 611 580 492 c 3
 580 354 451 256 287 256 c 2
 271 256 l 1
 276 289 l 1
 291 289 l 2
 412 289 493 358 493 487 c 3
 493 590 435 600 352 600 c 2
 293 600 l 1
 203 39 l 1
 282 20 l 1
 282 0 l 1
 49 0 l 1
 49 20 l 1
 127 45 l 1
 215 599 l 1
 146 618 l 1
 146 638 l 1
EndSplineSet
Validated: 1
LCarets2: 5 0 0 0 0 0
Ligature2: "SmallCapsClose subtable" P.smcpflag less slash s c greater
Substitution2: "Single Substitution lookup 14 subtable" P.smcpflag
EndChar

StartChar: Q
Encoding: 81 81 49
Width: 660
GlyphClass: 3
Flags: HMW
LayerCount: 2
Back
Fore
SplineSet
546 -71 m 1
 546 -86 l 1
 510 -138 l 1
 494 -138 l 1
 291 -44 l 1
 302 -16 l 1
 546 -71 l 1
EndSplineSet
Refer: 47 79 N 1 0 0 1 0 0 2
Validated: 1
Ligature2: "SmallCapsClose subtable" Q.smcpflag less slash s c greater
Substitution2: "Single Substitution lookup 14 subtable" Q.smcpflag
EndChar

StartChar: R
Encoding: 82 82 50
Width: 576
GlyphClass: 3
Flags: HMW
AnchorPoint: "bottom" 320 0 basechar 0
AnchorPoint: "top" 360 638 basechar 0
LayerCount: 2
Back
Fore
SplineSet
292 600 m 1
 202 39 l 1
 271 20 l 1
 271 0 l 1
 48 0 l 1
 48 20 l 1
 126 45 l 1
 214 599 l 1
 145 618 l 1
 145 638 l 1
 370 638 l 2
 511 638 557 601 557 505 c 0
 557 376 437 326 357 310 c 1
 521 63 l 1
 558 21 l 1
 555 0 l 1
 466 0 l 1
 273 316 l 1
 275 327 l 1
 374 327 469 366 469 500 c 0
 469 575 439 600 345 600 c 2
 292 600 l 1
EndSplineSet
Validated: 1
Ligature2: "SmallCapsClose subtable" R.smcpflag less slash s c greater
Substitution2: "Single Substitution lookup 14 subtable" R.smcpflag
EndChar

StartChar: S
Encoding: 83 83 51
Width: 477
GlyphClass: 3
Flags: HMW
AnchorPoint: "bottom" 240 0 basechar 0
AnchorPoint: "top" 340 638 basechar 0
LayerCount: 2
Back
Fore
SplineSet
114 58 m 1
 144 42 190 26 235 26 c 3
 316 26 377 53 377 134 c 3
 377 203 341 236 264 287 c 0
 169 350 133 399 133 466 c 3
 133 553 213 650 348 650 c 3
 421 650 465 636 487 626 c 1
 469 503 l 1
 433 505 l 1
 433 591 l 1
 414 602 366 614 332 614 c 3
 258 614 205 576 205 496 c 3
 205 434 251 402 321 356 c 0
 416 293 457 250 457 180 c 3
 457 78 375 -12 216 -12 c 3
 139 -12 102 1 60 20 c 1
 68 155 l 1
 108 156 l 1
 114 58 l 1
EndSplineSet
Validated: 1
Ligature2: "SmallCapsClose subtable" S.smcpflag less slash s c greater
Substitution2: "Single Substitution lookup 14 subtable" S.smcpflag
EndChar

StartChar: T
Encoding: 84 84 52
Width: 557
GlyphClass: 3
Flags: HMW
AnchorPoint: "bottom" 293 0 basechar 0
AnchorPoint: "top" 380 638 basechar 0
LayerCount: 2
Back
Fore
SplineSet
140 643 m 1
 160 643 l 1
 209 638 l 1
 568 638 l 1
 618 643 l 1
 637 643 l 1
 623 502 l 1
 588 500 l 1
 581 602 l 1
 421 602 l 1
 332 39 l 1
 401 20 l 1
 401 0 l 1
 178 0 l 1
 178 20 l 1
 256 45 l 1
 344 602 l 1
 182 602 l 1
 143 500 l 1
 109 502 l 1
 140 643 l 1
EndSplineSet
Validated: 1
LCarets2: 5 0 0 0 0 0
Ligature2: "SmallCapsClose subtable" T.smcpflag less slash s c greater
Substitution2: "Single Substitution lookup 14 subtable" T.smcpflag
EndChar

StartChar: U
Encoding: 85 85 53
Width: 637
GlyphClass: 3
Flags: HMW
AnchorPoint: "bottom" 324 0 basechar 0
AnchorPoint: "top" 425 638 basechar 0
LayerCount: 2
Back
Fore
SplineSet
146 638 m 1
 344 638 l 1
 344 618 l 1
 283 596 l 1
 228 242 l 2
 206 99 244 39 342 39 c 3
 434 39 496 81 522 245 c 2
 577 596 l 1
 515 618 l 1
 515 638 l 1
 693 638 l 1
 693 618 l 1
 629 596 l 1
 574 246 l 2
 549 89 471 -12 318 -12 c 3
 172 -12 125 67 153 243 c 2
 209 596 l 1
 146 618 l 1
 146 638 l 1
EndSplineSet
Validated: 1
LCarets2: 5 0 0 0 0 0
Ligature2: "SmallCapsClose subtable" U.smcpflag less slash s c greater
Substitution2: "Single Substitution lookup 14 subtable" U.smcpflag
EndChar

StartChar: V
Encoding: 86 86 54
Width: 554
GlyphClass: 3
Flags: HMW
LayerCount: 2
Back
Fore
SplineSet
591 599 m 5
 296 -12 l 5
 264 -12 l 5
 156 601 l 5
 98 617 l 5
 98 638 l 5
 292 638 l 5
 292 617 l 5
 237 598 l 5
 316 116 l 1
 536 598 l 5
 474 617 l 5
 474 638 l 5
 662 638 l 5
 662 617 l 5
 591 599 l 5
EndSplineSet
Validated: 1
Ligature2: "SmallCapsClose subtable" V.smcpflag less slash s c greater
Substitution2: "Single Substitution lookup 14 subtable" V.smcpflag
EndChar

StartChar: W
Encoding: 87 87 55
Width: 863
GlyphClass: 3
Flags: HMW
AnchorPoint: "bottom" 437 0 basechar 0
AnchorPoint: "top" 543 638 basechar 0
LayerCount: 2
Back
Fore
SplineSet
120 638 m 1
 315 638 l 1
 315 617 l 1
 259 598 l 1
 323 130 l 1
 522 598 l 1
 564 598 l 1
 624 129 l 1
 823 598 l 1
 762 617 l 1
 762 638 l 1
 950 638 l 1
 950 617 l 1
 879 599 l 1
 603 -12 l 1
 571 -12 l 1
 504 454 l 17
 299 -12 l 1
 268 -12 l 1
 178 601 l 1
 120 617 l 1
 120 638 l 1
EndSplineSet
Validated: 1
LCarets2: 5 0 0 0 0 0
Ligature2: "SmallCapsClose subtable" W.smcpflag less slash s c greater
Substitution2: "Single Substitution lookup 14 subtable" W.smcpflag
EndChar

StartChar: X
Encoding: 88 88 56
Width: 592
GlyphClass: 3
Flags: HMW
LayerCount: 2
Back
SplineSet
338 356 m 1
 363 332 l 1
 166 42 l 1
 211 21 l 1
 211 0 l 1
 44 0 l 1
 44 21 l 1
 112 41 l 1
 338 356 l 1
387 340 m 1
 362 364 l 1
 511 597 l 1
 481 617 l 1
 481 638 l 1
 631 638 l 1
 631 617 l 1
 564 598 l 1
 387 340 l 1
295 601 m 1
 376 369 l 1
 512 34 l 1
 556 21 l 1
 556 0 l 1
 402 0 l 1
 402 21 l 1
 425 32 l 1
 323 314 l 1
 206 603 l 1
 161 617 l 1
 161 638 l 1
 333 638 l 1
 333 617 l 1
 295 601 l 1
EndSplineSet
Fore
SplineSet
161 638 m 1
 333 638 l 1
 333 617 l 1
 295 601 l 1
 372 380 l 1
 511 597 l 1
 481 617 l 1
 481 638 l 1
 631 638 l 1
 631 617 l 1
 564 598 l 1
 387 341 l 1
 512 34 l 1
 556 21 l 1
 556 0 l 1
 402 0 l 1
 402 21 l 1
 425 32 l 1
 333 287 l 1
 166 42 l 1
 211 21 l 1
 211 0 l 1
 44 0 l 1
 44 21 l 1
 112 41 l 1
 318 327 l 1
 206 603 l 1
 161 617 l 1
 161 638 l 1
EndSplineSet
Validated: 1
Ligature2: "SmallCapsClose subtable" X.smcpflag less slash s c greater
Substitution2: "Single Substitution lookup 14 subtable" X.smcpflag
EndChar

StartChar: Y
Encoding: 89 89 57
Width: 528
GlyphClass: 3
Flags: HMW
AnchorPoint: "bottom" 277 0 basechar 0
AnchorPoint: "top" 373 638 basechar 0
LayerCount: 2
Back
SplineSet
547 598 m 1
 316 237 l 1
 296 237 l 1
 174 601 l 1
 120 617 l 1
 120 638 l 1
 301 638 l 1
 301 617 l 1
 260 598 l 1
 343 339 l 1
 496 597 l 1
 449 617 l 1
 449 638 l 1
 611 638 l 1
 611 617 l 1
 547 598 l 1
311 39 m 1
 377 20 l 1
 377 0 l 1
 166 0 l 1
 166 20 l 1
 238 45 l 1
 278 294 l 1
 352 294 l 1
 311 39 l 1
EndSplineSet
Fore
SplineSet
120 638 m 1
 301 638 l 1
 301 617 l 1
 260 598 l 1
 343 339 l 1
 496 597 l 1
 449 617 l 1
 449 638 l 1
 611 638 l 1
 611 617 l 1
 547 598 l 1
 352 293 l 1
 311 39 l 1
 377 20 l 1
 377 0 l 1
 166 0 l 1
 166 20 l 1
 238 45 l 1
 278 292 l 1
 174 601 l 1
 120 617 l 1
 120 638 l 1
EndSplineSet
Validated: 1
LCarets2: 5 0 0 0 0 0
Ligature2: "SmallCapsClose subtable" Y.smcpflag less slash s c greater
Substitution2: "Single Substitution lookup 14 subtable" Y.smcpflag
EndChar

StartChar: Z
Encoding: 90 90 58
Width: 531
GlyphClass: 3
Flags: HMW
AnchorPoint: "bottom" 280 0 basechar 0
AnchorPoint: "top" 336 638 basechar 0
LayerCount: 2
Back
Fore
SplineSet
167 643 m 5
 185 643 l 1
 233 638 l 1
 535 638 l 1
 541 621 l 1
 158 44 l 1
 428 44 l 1
 467 143 l 1
 504 138 l 1
 464 0 l 1
 55 0 l 1
 52 18 l 1
 432 594 l 1
 206 594 l 1
 169 500 l 1
 133 502 l 1
 167 643 l 5
EndSplineSet
Validated: 1
LCarets2: 5 0 0 0 0 0
Ligature2: "SmallCapsClose subtable" Z.smcpflag less slash s c greater
Substitution2: "Single Substitution lookup 14 subtable" Z.smcpflag
EndChar

StartChar: bracketleft
Encoding: 91 91 59
Width: 326
GlyphClass: 2
Flags: HMW
LayerCount: 2
Back
Fore
SplineSet
358 685 m 1
 358 664 l 1
 276 647 l 1
 156 -109 l 5
 233 -126 l 5
 233 -147 l 5
 95 -147 l 5
 226 685 l 1
 358 685 l 1
EndSplineSet
Validated: 1
EndChar

StartChar: backslash
Encoding: 92 92 60
Width: 296
GlyphClass: 2
Flags: HMW
LayerCount: 2
Back
Fore
SplineSet
140 687 m 1
 258 -45 l 1
 219 -51 l 5
 101 681 l 5
 140 687 l 1
EndSplineSet
Validated: 1
EndChar

StartChar: bracketright
Encoding: 93 93 61
Width: 326
GlyphClass: 2
Flags: HMW
LayerCount: 2
Back
Fore
SplineSet
59 -147 m 1
 59 -126 l 1
 143 -109 l 1
 263 647 l 1
 188 664 l 1
 188 685 l 1
 324 685 l 1
 193 -147 l 1
 59 -147 l 1
EndSplineSet
Validated: 1
EndChar

StartChar: asciicircum
Encoding: 94 94 62
Width: 496
GlyphClass: 2
Flags: HMW
LayerCount: 2
Back
Fore
SplineSet
351 572 m 1
 165 434 l 1
 142 464 l 1
 363 650 l 1
 518 466 l 1
 487 436 l 1
 351 572 l 1
EndSplineSet
Validated: 1
EndChar

StartChar: underscore
Encoding: 95 95 63
Width: 516
GlyphClass: 2
Flags: HMW
LayerCount: 2
Back
Fore
SplineSet
-41 -230 m 1
 -35 -196 l 1
 482 -196 l 1
 476 -230 l 1
 -41 -230 l 1
EndSplineSet
Validated: 1
EndChar

StartChar: a
Encoding: 97 97 65
Width: 486
GlyphClass: 2
Flags: HMW
AnchorPoint: "bottom" 270 0 basechar 0
AnchorPoint: "top" 322 425 basechar 0
LayerCount: 2
Back
Fore
SplineSet
387 437 m 3
 416 437 449 430 470 422 c 1
 428 248 l 1
 403 101 l 9
 403 44 l 1
 461 39 l 1
 463 15 l 1
 317 -8 l 1
 315 5 l 1
 346 174 l 1
 291 56 225 -12 165 -12 c 3
 126 -12 78 9 78 111 c 3
 78 263 180 437 387 437 c 3
314 389 m 3
 193 389 153 262 153 136 c 3
 153 64 176 45 204 45 c 3
 246 45 322 156 374 329 c 1
 384 377 l 1
 369 383 339 389 314 389 c 3
EndSplineSet
Validated: 1
Substitution2: "Single Substitution lookup 14 subtable" a.smcpflag
Substitution2: "'smcp' Lowercase to Small Capitals lookup 10-1" a.smcp
EndChar

StartChar: b
Encoding: 98 98 66
Width: 487
GlyphClass: 2
Flags: HMW
LayerCount: 2
Back
Fore
SplineSet
274 690 m 5
 198 248 l 1
 253 366 327 437 387 437 c 3
 426 437 479 416 479 314 c 3
 479 162 377 -12 175 -12 c 3
 146 -12 110 -3 87 5 c 1
 184 579 l 5
 184 638 l 5
 126 643 l 5
 124 667 l 5
 274 690 l 5
348 381 m 3
 306 381 225 268 173 94 c 1
 165 49 l 1
 180 43 216 36 248 36 c 3
 369 36 404 163 404 289 c 3
 404 361 376 381 348 381 c 3
EndSplineSet
Validated: 1
Substitution2: "Single Substitution lookup 14 subtable" b.smcpflag
Substitution2: "'smcp' Lowercase to Small Capitals lookup 10-1" b.smcp
EndChar

StartChar: c
Encoding: 99 99 67
Width: 391
GlyphClass: 2
Flags: HMW
AnchorPoint: "bottom" 201 0 basechar 0
AnchorPoint: "top" 295 425 basechar 0
LayerCount: 2
Back
Fore
SplineSet
345 437 m 3
 374 437 395 427 412 411 c 1
 387 353 l 1
 374 348 l 1
 352 362 325 377 291 377 c 3
 185 377 148 273 148 165 c 3
 148 79 189 45 235 45 c 3
 277 45 333 84 369 123 c 1
 390 101 l 1
 333 41 263 -12 196 -12 c 3
 137 -12 78 20 78 133 c 3
 78 285 219 437 345 437 c 3
EndSplineSet
Validated: 1
Substitution2: "Single Substitution lookup 14 subtable" c.smcpflag
Substitution2: "'smcp' Lowercase to Small Capitals lookup 10-1" c.smcp
EndChar

StartChar: d
Encoding: 100 100 68
Width: 495
GlyphClass: 2
Flags: HMW
AnchorPoint: "bottom" 270 0 basechar 0
AnchorPoint: "top" 470 685 basechar 0
LayerCount: 2
Back
Fore
SplineSet
517 690 m 1
 417 92 l 1
 417 43 l 1
 475 38 l 1
 477 14 l 1
 329 -9 l 1
 327 4 l 1
 358 176 l 1
 303 58 230 -12 170 -12 c 3
 131 -12 78 9 78 111 c 3
 78 257 202 437 372 437 c 3
 385 437 395 435 404 432 c 1
 427 579 l 25
 427 638 l 1
 369 643 l 1
 367 667 l 1
 517 690 l 1
324 389 m 3
 196 389 153 262 153 136 c 3
 153 64 181 45 209 45 c 3
 251 45 334 158 386 331 c 1
 393 370 l 1
 378 381 349 389 324 389 c 3
EndSplineSet
Validated: 1
Substitution2: "Single Substitution lookup 14 subtable" d.smcpflag
Substitution2: "'smcp' Lowercase to Small Capitals lookup 10-1" d.smcp
EndChar

StartChar: e
Encoding: 101 101 69
Width: 418
GlyphClass: 2
Flags: HMW
AnchorPoint: "bottom" 226 0 basechar 0
AnchorPoint: "top" 280 425 basechar 0
LayerCount: 2
Back
SplineSet
316 437 m 7
 367 437 397 399 397 352 c 7
 397 273 305 218 153 203 c 5
 153 233 l 5
 291 245 322 293 322 344 c 7
 322 369 302 391 280 391 c 7
 199 391 156 299 156 161 c 7
 156 71 194 45 240 45 c 7
 282 45 346 84 382 123 c 5
 403 101 l 5
 346 41 268 -12 201 -12 c 7
 142 -12 83 20 83 133 c 7
 83 290 209 437 316 437 c 7
EndSplineSet
Fore
SplineSet
316 437 m 3
 367 437 397 399 397 352 c 3
 397 274 306 219 157 203 c 1
 156 189 156 176 156 161 c 3
 156 71 194 45 240 45 c 3
 282 45 346 84 382 123 c 1
 403 101 l 1
 346 41 268 -12 201 -12 c 3
 142 -12 83 20 83 133 c 3
 83 290 209 437 316 437 c 3
280 391 m 3
 214 391 174 331 161 234 c 1
 293 247 322 294 322 344 c 3
 322 369 302 391 280 391 c 3
EndSplineSet
Validated: 1
Substitution2: "Single Substitution lookup 14 subtable" e.smcpflag
Substitution2: "'smcp' Lowercase to Small Capitals lookup 10-1" e.smcp
EndChar

StartChar: f
Encoding: 102 102 70
Width: 296
GlyphClass: 2
Flags: HMW
LayerCount: 2
Back
SplineSet
395 687 m 3
 417 687 438 678 454 663 c 1
 429 605 l 1
 416 600 l 1
 391 616 365 626 333 626 c 3
 303 626 275 607 261 516 c 2
 185 11 l 2
 168 -99 113 -158 68 -190 c 0
 31 -216 4 -230 -31 -230 c 3
 -53 -230 -74 -221 -90 -206 c 1
 -65 -148 l 1
 -52 -143 l 1
 -27 -159 -1 -169 31 -169 c 3
 61 -169 89 -150 103 -59 c 2
 179 446 l 2
 196 556 251 615 296 647 c 0
 333 673 360 687 395 687 c 3
336 387 m 1
 112 387 l 1
 115 403 l 1
 176 425 l 1
 343 425 l 1
 336 387 l 1
EndSplineSet
Fore
SplineSet
395 687 m 7
 417 687 438 678 454 663 c 5
 429 605 l 5
 416 600 l 5
 391 616 365 626 333 626 c 7
 303 626 275 607 261 516 c 6
 247 425 l 1
 343 425 l 1
 336 387 l 1
 242 387 l 1
 185 11 l 2
 168 -99 113 -158 68 -190 c 0
 31 -216 4 -230 -31 -230 c 3
 -53 -230 -74 -221 -90 -206 c 1
 -65 -148 l 1
 -52 -143 l 1
 -27 -159 -1 -169 31 -169 c 3
 61 -169 89 -150 103 -59 c 2
 170 387 l 1
 112 387 l 1
 115 403 l 1
 176 425 l 1
 179 446 l 6
 196 556 251 615 296 647 c 4
 333 673 360 687 395 687 c 7
EndSplineSet
Validated: 1
Substitution2: "Single Substitution lookup 14 subtable" f.smcpflag
Substitution2: "'smcp' Lowercase to Small Capitals lookup 10-1" f.smcp
EndChar

StartChar: g
Encoding: 103 103 71
Width: 475
GlyphClass: 2
Flags: HMW
AnchorPoint: "bottom" 172 -230 basechar 0
AnchorPoint: "top" 340 425 basechar 0
LayerCount: 2
Back
Fore
SplineSet
396 437 m 3
 425 437 458 430 479 422 c 1
 437 248 l 1
 396 7 l 2
 373 -130 310 -177 263 -206 c 0
 227 -228 194 -230 137 -230 c 3
 97 -230 56 -218 30 -198 c 1
 54 -141 l 1
 68 -132 l 1
 107 -162 165 -179 210 -179 c 3
 266 -179 296 -169 314 -63 c 2
 355 174 l 1
 300 56 229 -12 169 -12 c 3
 130 -12 77 9 77 111 c 3
 77 263 189 437 396 437 c 3
323 389 m 3
 202 389 152 262 152 136 c 3
 152 64 180 45 208 45 c 3
 250 45 331 156 383 329 c 1
 393 377 l 1
 378 383 348 389 323 389 c 3
EndSplineSet
Validated: 1
Substitution2: "Single Substitution lookup 14 subtable" g.smcpflag
Substitution2: "'smcp' Lowercase to Small Capitals lookup 10-1" g.smcp
EndChar

StartChar: h
Encoding: 104 104 72
Width: 513
GlyphClass: 2
Flags: HMW
AnchorPoint: "bottom" 270 0 basechar 0
AnchorPoint: "top" 350 678 basechar 0
LayerCount: 2
Back
Fore
SplineSet
284 690 m 1
 205 220 l 1
 266 367 338 437 403 437 c 3
 439 437 490 407 475 322 c 2
 435 102 l 9
 435 43 l 1
 493 38 l 1
 495 14 l 1
 356 -9 l 1
 352 3 l 1
 365 113 l 1
 401 303 l 2
 410 353 393 382 365 382 c 3
 324 382 242 269 183 94 c 1
 168 10 l 1
 96 -12 l 1
 90 -1 l 1
 129 175 l 1
 194 579 l 9
 194 638 l 1
 136 643 l 1
 134 667 l 1
 284 690 l 1
EndSplineSet
Validated: 1
Substitution2: "Single Substitution lookup 14 subtable" h.smcpflag
Substitution2: "'smcp' Lowercase to Small Capitals lookup 10-1" h.smcp
EndChar

StartChar: i
Encoding: 105 105 73
Width: 268
GlyphClass: 2
Flags: HMW
LayerCount: 2
Back
Fore
SplineSet
205 665 m 3
 232 665 255 643 255 616 c 3
 255 589 232 566 205 566 c 3
 178 566 156 589 156 616 c 3
 156 643 178 665 205 665 c 3
235 437 m 5
 179 102 l 5
 179 43 l 1
 237 38 l 1
 239 14 l 1
 100 -9 l 1
 96 3 l 1
 109 113 l 5
 147 326 l 13
 147 385 l 5
 90 390 l 5
 88 414 l 5
 235 437 l 5
EndSplineSet
Validated: 1
Substitution2: "Single Substitution lookup 14 subtable" i.smcpflag
Substitution2: "'smcp' Lowercase to Small Capitals lookup 10-1" i.smcp
EndChar

StartChar: j
Encoding: 106 106 74
Width: 255
GlyphClass: 2
Flags: HMW
LayerCount: 2
Back
Fore
SplineSet
213 665 m 3
 240 665 263 643 263 616 c 3
 263 589 240 566 213 566 c 3
 186 566 164 589 164 616 c 3
 164 643 186 665 213 665 c 3
242 437 m 5
 183 65 l 6
 167 -38 115 -113 89 -145 c 4
 60 -181 1 -230 -47 -230 c 7
 -67 -230 -81 -225 -92 -212 c 5
 -71 -152 l 5
 -58 -147 l 5
 -33 -163 -14 -164 16 -164 c 7
 60 -164 84 -105 106 32 c 6
 154 326 l 13
 154 385 l 5
 97 390 l 5
 95 414 l 5
 242 437 l 5
EndSplineSet
Validated: 1
Substitution2: "Single Substitution lookup 14 subtable" j.smcpflag
Substitution2: "'smcp' Lowercase to Small Capitals lookup 10-1" j.smcp
EndChar

StartChar: k
Encoding: 107 107 75
Width: 478
GlyphClass: 2
Flags: HMW
AnchorPoint: "top" 340 678 basechar 0
AnchorPoint: "bottom" 249 0 basechar 0
LayerCount: 2
Back
Fore
SplineSet
283 690 m 1
 180 94 l 1
 168 9 l 1
 96 -12 l 1
 90 -1 l 1
 127 175 l 1
 193 579 l 9
 193 638 l 1
 135 643 l 1
 133 667 l 1
 283 690 l 1
433 437 m 3
 452 437 473 431 482 423 c 1
 463 358 l 1
 455 354 l 1
 434 360 419 366 397 366 c 3
 370 366 348 331 272 234 c 1
 369 76 l 1
 406 43 l 1
 455 43 l 1
 457 19 l 1
 337 -9 l 1
 210 208 l 1
 240 240 l 1
 320 339 326 354 348 383 c 0
 371 413 398 437 433 437 c 3
EndSplineSet
Validated: 1
Substitution2: "Single Substitution lookup 14 subtable" k.smcpflag
Substitution2: "'smcp' Lowercase to Small Capitals lookup 10-1" k.smcp
EndChar

StartChar: l
Encoding: 108 108 76
Width: 259
GlyphClass: 2
Flags: HMW
AnchorPoint: "bottom" 150 0 basechar 0
AnchorPoint: "top" 220 680 basechar 0
LayerCount: 2
Back
Fore
SplineSet
271 690 m 1
 173 102 l 1
 173 43 l 1
 231 38 l 1
 233 14 l 1
 94 -9 l 1
 90 3 l 1
 103 113 l 1
 181 579 l 9
 181 638 l 1
 123 643 l 1
 121 667 l 1
 271 690 l 1
EndSplineSet
Validated: 1
Substitution2: "Single Substitution lookup 14 subtable" l.smcpflag
Substitution2: "'smcp' Lowercase to Small Capitals lookup 10-1" l.smcp
EndChar

StartChar: m
Encoding: 109 109 77
Width: 752
GlyphClass: 2
Flags: HMW
LayerCount: 2
Back
Fore
SplineSet
242 437 m 1
 203 220 l 1
 264 367 335 437 400 437 c 3
 436 437 484 407 469 322 c 2
 453 232 l 1
 513 371 582 437 645 437 c 3
 681 437 729 407 714 322 c 2
 674 102 l 1
 674 43 l 1
 732 38 l 1
 734 14 l 1
 595 -9 l 1
 591 3 l 1
 604 113 l 1
 640 303 l 2
 649 353 635 382 607 382 c 3
 566 382 485 269 426 94 c 1
 411 10 l 1
 339 -12 l 1
 333 -1 l 1
 372 175 l 1
 395 303 l 2
 404 353 390 382 362 382 c 3
 321 382 240 269 181 94 c 1
 166 10 l 1
 94 -12 l 1
 88 -1 l 1
 127 175 l 1
 152 326 l 9
 152 385 l 1
 95 390 l 1
 93 414 l 1
 242 437 l 1
EndSplineSet
Validated: 33
Substitution2: "Single Substitution lookup 14 subtable" m.smcpflag
Substitution2: "'smcp' Lowercase to Small Capitals lookup 10-1" m.smcp
EndChar

StartChar: n
Encoding: 110 110 78
Width: 509
GlyphClass: 2
Flags: HMW
AnchorPoint: "bottom" 274 0 basechar 0
AnchorPoint: "top" 316 425 basechar 0
LayerCount: 2
Back
Fore
SplineSet
242 437 m 1
 203 220 l 1
 264 367 336 437 401 437 c 3
 437 437 486 407 471 322 c 2
 431 102 l 1
 431 43 l 1
 489 38 l 1
 491 14 l 1
 352 -9 l 1
 348 3 l 1
 361 113 l 1
 397 303 l 2
 406 353 391 382 363 382 c 3
 322 382 240 269 181 94 c 1
 166 10 l 1
 94 -12 l 1
 88 -1 l 1
 127 175 l 1
 152 326 l 9
 152 385 l 1
 95 390 l 1
 93 414 l 1
 242 437 l 1
EndSplineSet
Validated: 33
Substitution2: "Single Substitution lookup 14 subtable" n.smcpflag
Substitution2: "'smcp' Lowercase to Small Capitals lookup 10-1" n.smcp
EndChar

StartChar: o
Encoding: 111 111 79
Width: 451
GlyphClass: 2
Flags: HMW
AnchorPoint: "bottom" 230 0 basechar 0
AnchorPoint: "top" 300 425 basechar 0
LayerCount: 2
Back
Fore
SplineSet
320 437 m 3
 379 437 443 405 443 292 c 3
 443 79 273 -12 206 -12 c 3
 146 -12 83 20 83 133 c 3
 83 346 252 437 320 437 c 3
281 389 m 3
 202 389 158 294 158 165 c 3
 158 79 198 37 245 37 c 3
 323 37 368 131 368 260 c 3
 368 346 327 389 281 389 c 3
EndSplineSet
Validated: 1
Substitution2: "Single Substitution lookup 14 subtable" o.smcpflag
Substitution2: "'smcp' Lowercase to Small Capitals lookup 10-1" o.smcp
EndChar

StartChar: p
Encoding: 112 112 80
Width: 493
GlyphClass: 2
Flags: HMW
LayerCount: 2
Back
Fore
SplineSet
237 437 m 1
 203 248 l 1
 258 366 333 437 393 437 c 3
 432 437 485 416 485 314 c 3
 485 162 385 -12 183 -12 c 3
 176 -12 168 -12 159 -11 c 1
 122 -208 l 1
 50 -230 l 1
 44 -219 l 1
 97 13 l 1
 147 326 l 9
 147 385 l 1
 90 390 l 1
 88 414 l 1
 237 437 l 1
354 381 m 7
 312 381 231 268 179 94 c 1
 171 49 l 1
 186 43 224 36 256 36 c 3
 377 36 410 163 410 289 c 3
 410 361 382 381 354 381 c 7
EndSplineSet
Validated: 1
Substitution2: "Single Substitution lookup 14 subtable" p.smcpflag
Substitution2: "'smcp' Lowercase to Small Capitals lookup 10-1" p.smcp
EndChar

StartChar: q
Encoding: 113 113 81
Width: 476
GlyphClass: 2
Flags: HMW
LayerCount: 2
Back
Fore
SplineSet
396 437 m 3
 425 437 458 430 479 422 c 1
 438 248 l 1
 375 -117 l 5
 375 -176 l 5
 441 -181 l 5
 443 -205 l 1
 290 -230 l 1
 286 -217 l 1
 356 174 l 1
 301 56 230 -12 170 -12 c 3
 131 -12 78 9 78 111 c 3
 78 263 189 437 396 437 c 3
323 389 m 3
 202 389 153 262 153 136 c 3
 153 64 181 45 209 45 c 3
 251 45 331 156 383 329 c 1
 393 377 l 1
 378 383 348 389 323 389 c 3
EndSplineSet
Validated: 1
Substitution2: "Single Substitution lookup 14 subtable" q.smcpflag
Substitution2: "'smcp' Lowercase to Small Capitals lookup 10-1" q.smcp
EndChar

StartChar: r
Encoding: 114 114 82
Width: 366
GlyphClass: 2
Flags: HMW
AnchorPoint: "bottom" 128 0 basechar 0
AnchorPoint: "top" 280 425 basechar 0
LayerCount: 2
Back
Fore
SplineSet
240 437 m 1
 205 240 l 1
 261 374 309 437 374 437 c 3
 396 437 410 429 418 422 c 1
 389 350 l 1
 379 345 l 1
 363 355 350 357 330 357 c 3
 276 357 203 202 179 94 c 1
 164 9 l 1
 94 -12 l 5
 88 -1 l 1
 125 175 l 1
 150 326 l 9
 150 385 l 1
 93 390 l 1
 91 414 l 1
 240 437 l 1
EndSplineSet
Validated: 1
Substitution2: "Single Substitution lookup 14 subtable" r.smcpflag
Substitution2: "'smcp' Lowercase to Small Capitals lookup 10-1" r.smcp
EndChar

StartChar: s
Encoding: 115 115 83
Width: 342
GlyphClass: 2
Flags: HMW
AnchorPoint: "bottom" 172 0 basechar 0
AnchorPoint: "top" 246 425 basechar 0
LayerCount: 2
Back
Fore
SplineSet
290 437 m 3
 319 437 340 432 359 423 c 1
 339 361 l 1
 321 356 l 1
 299 372 260 386 215 386 c 3
 180 386 157 371 157 339 c 3
 157 300 189 279 231 249 c 0
 289 208 325 176 325 118 c 3
 325 46 240 -12 156 -12 c 7
 108 -12 58 4 39 15 c 5
 54 78 l 5
 72 83 l 5
 94 67 152 36 197 36 c 7
 249 36 264 53 264 83 c 3
 264 124 243 143 188 182 c 0
 133 221 97 253 97 299 c 3
 97 379 199 437 290 437 c 3
EndSplineSet
Validated: 1
Substitution2: "Single Substitution lookup 14 subtable" s.smcpflag
Substitution2: "'smcp' Lowercase to Small Capitals lookup 10-1" s.smcp
EndChar

StartChar: t
Encoding: 116 116 84
Width: 293
GlyphClass: 2
Flags: HMW
AnchorPoint: "top" 293 514 basechar 0
AnchorPoint: "bottom" 157 0 basechar 0
LayerCount: 2
Back
SplineSet
228 540 m 1
 239 529 l 1
 168 125 l 2
 158 69 165 44 198 44 c 3
 216 44 248 60 267 73 c 1
 277 54 l 1
 242 21 183 -12 142 -12 c 3
 103 -12 78 7 95 105 c 2
 168 518 l 1
 228 540 l 1
308 387 m 1
 88 387 l 1
 91 403 l 1
 129 425 l 1
 315 425 l 1
 308 387 l 1
EndSplineSet
Fore
SplineSet
228 540 m 1
 239 529 l 1
 221 425 l 1
 315 425 l 1
 308 387 l 1
 214 387 l 1
 168 125 l 2
 158 69 165 44 198 44 c 3
 216 44 248 60 267 73 c 1
 277 54 l 1
 242 21 183 -12 142 -12 c 3
 103 -12 78 7 95 105 c 2
 145 387 l 1
 88 387 l 1
 91 403 l 1
 129 425 l 1
 152 425 l 1
 168 518 l 1
 228 540 l 1
EndSplineSet
Validated: 1
Substitution2: "Single Substitution lookup 14 subtable" t.smcpflag
Substitution2: "'smcp' Lowercase to Small Capitals lookup 10-1" t.smcp
EndChar

StartChar: u
Encoding: 117 117 85
Width: 512
GlyphClass: 2
Flags: HMW
AnchorPoint: "bottom" 272 0 basechar 0
AnchorPoint: "top" 314 425 basechar 0
LayerCount: 2
Back
Fore
SplineSet
234 437 m 1
 219 312 l 1
 185 122 l 2
 176 72 191 43 219 43 c 3
 260 43 342 156 401 331 c 1
 416 415 l 1
 488 437 l 1
 494 426 l 1
 455 250 l 1
 430 102 l 1
 430 43 l 1
 488 38 l 1
 490 14 l 1
 344 -9 l 1
 342 4 l 1
 379 205 l 1
 318 58 246 -12 181 -12 c 3
 145 -12 96 18 111 103 c 2
 147 311 l 9
 147 385 l 1
 90 390 l 1
 88 414 l 1
 234 437 l 1
EndSplineSet
Validated: 1
Substitution2: "Single Substitution lookup 14 subtable" u.smcpflag
Substitution2: "'smcp' Lowercase to Small Capitals lookup 10-1" u.smcp
EndChar

StartChar: v
Encoding: 118 118 86
Width: 439
GlyphClass: 2
Flags: HMW
LayerCount: 2
Back
Fore
SplineSet
224 437 m 1
 202 86 l 2
 200 49 206 39 224 39 c 3
 278 39 375 199 375 303 c 3
 375 331 368 373 357 392 c 1
 418 437 l 1
 439 433 l 1
 451 424 456 399 456 381 c 3
 456 250 296 -12 185 -12 c 3
 149 -12 130 0 133 67 c 2
 146 326 l 9
 142 385 l 1
 85 390 l 1
 83 414 l 1
 224 437 l 1
EndSplineSet
Validated: 33
Substitution2: "Single Substitution lookup 14 subtable" v.smcpflag
Substitution2: "'smcp' Lowercase to Small Capitals lookup 10-1" v.smcp
EndChar

StartChar: w
Encoding: 119 119 87
Width: 660
GlyphClass: 2
Flags: HMW
AnchorPoint: "bottom" 311 0 basechar 0
AnchorPoint: "top" 407 425 basechar 0
LayerCount: 2
Back
Fore
SplineSet
224 437 m 1
 202 86 l 2
 200 49 206 39 224 39 c 3
 278 39 370 199 370 303 c 3
 370 331 363 373 352 392 c 1
 413 437 l 1
 434 433 l 1
 446 424 452 399 452 381 c 3
 452 355 446 312 441 290 c 2
 428 86 l 2
 426 49 432 39 450 39 c 3
 504 39 596 199 596 303 c 3
 596 331 589 373 578 392 c 1
 639 437 l 1
 660 433 l 1
 672 424 677 399 677 381 c 3
 677 250 522 -12 411 -12 c 3
 375 -12 356 0 359 67 c 2
 363 158 l 1
 321 62 242 -12 185 -12 c 3
 149 -12 130 0 133 67 c 2
 146 326 l 9
 142 385 l 1
 85 390 l 1
 83 414 l 1
 224 437 l 1
EndSplineSet
Validated: 1
Substitution2: "Single Substitution lookup 14 subtable" w.smcpflag
Substitution2: "'smcp' Lowercase to Small Capitals lookup 10-1" w.smcp
EndChar

StartChar: x
Encoding: 120 120 88
Width: 425
GlyphClass: 2
Flags: HMW
LayerCount: 2
Back
SplineSet
226 437 m 1
 274 249 l 1
 325 76 l 1
 352 43 l 1
 406 43 l 1
 408 19 l 1
 274 -9 l 1
 225 191 l 1
 176 352 l 25
 149 385 l 1
 95 385 l 1
 93 409 l 1
 226 437 l 1
220 217 m 1
 252 217 l 1
 183 100 170.932187739 75.0492116399 147 42 c 0
 126 13 100 -12 65 -12 c 3
 44 -12 29 -9 17 0 c 1
 33 63 l 1
 46 70 l 1
 67 64 79 59 101 59 c 3
 131 59 158 109 220 217 c 1
420 437 m 3
 441 437 456 434 468 425 c 1
 452 362 l 1
 439 355 l 1
 418 361 406 366 384 366 c 3
 355 366 333 324 277 227 c 1
 244 227 l 1
 303 327 315 352 338 383 c 0
 359 412 385 437 420 437 c 3
EndSplineSet
Fore
SplineSet
226 437 m 1
 269 269 l 1
 307 335 319 357 338 383 c 0
 359 412 385 437 420 437 c 3
 441 437 456 434 468 425 c 1
 452 362 l 1
 439 355 l 1
 418 361 406 366 384 366 c 3
 355 366 333 325 279 231 c 1
 325 76 l 1
 352 43 l 1
 406 43 l 1
 408 19 l 1
 274 -9 l 1
 228 177 l 1
 179 94 168 71 147 42 c 0
 126 13 100 -12 65 -12 c 3
 44 -12 29 -9 17 0 c 1
 33 63 l 1
 46 70 l 1
 67 64 79 59 101 59 c 3
 131 59 157 108 218 214 c 1
 176 352 l 1
 149 385 l 1
 95 385 l 1
 93 409 l 1
 226 437 l 1
EndSplineSet
Validated: 1
Substitution2: "Single Substitution lookup 14 subtable" x.smcpflag
Substitution2: "'smcp' Lowercase to Small Capitals lookup 10-1" x.smcp
EndChar

StartChar: y
Encoding: 121 121 89
Width: 479
GlyphClass: 2
Flags: HMW
AnchorPoint: "bottom" 205 -230 basechar 0
AnchorPoint: "top" 300 425 basechar 0
LayerCount: 2
Back
Fore
SplineSet
221 437 m 1
 206 312 l 1
 172 122 l 2
 163 72 178 43 206 43 c 3
 247 43 329 156 388 331 c 1
 403 415 l 1
 475 437 l 1
 481 426 l 1
 442 249 l 1
 401 7 l 2
 378 -129 315 -177 268 -206 c 0
 232 -228 199 -230 142 -230 c 3
 102 -230 61 -218 35 -198 c 1
 59 -141 l 1
 73 -132 l 1
 112 -162 170 -179 215 -179 c 3
 271 -179 300 -169 319 -63 c 2
 366 205 l 1
 305 58 233 -12 168 -12 c 3
 132 -12 83 18 98 103 c 2
 134 311 l 9
 134 385 l 1
 77 390 l 1
 75 414 l 1
 221 437 l 1
EndSplineSet
Validated: 1
Substitution2: "Single Substitution lookup 14 subtable" y.smcpflag
Substitution2: "'smcp' Lowercase to Small Capitals lookup 10-1" y.smcp
EndChar

StartChar: z
Encoding: 122 122 90
Width: 401
GlyphClass: 2
Flags: HMW
AnchorPoint: "bottom" 196 0 basechar 0
AnchorPoint: "top" 250 425 basechar 0
LayerCount: 2
Back
Fore
SplineSet
123 437 m 1
 163 437 l 1
 312 409 l 2
 336 404 352 409 395 437 c 1
 413 413 l 1
 337 335 l 1
 150 92 l 1
 285 64 l 2
 327 55 348 65 372 105 c 1
 394 101 l 1
 357 -12 l 1
 312 -12 l 1
 146 20 l 2
 115 26 89 18 46 -12 c 1
 28 12 l 1
 114 102 l 1
 300 345 l 1
 210 362 l 2
 167 371 137 360 113 320 c 1
 91 324 l 1
 123 437 l 1
EndSplineSet
Validated: 1
Substitution2: "Single Substitution lookup 14 subtable" z.smcpflag
Substitution2: "'smcp' Lowercase to Small Capitals lookup 10-1" z.smcp
EndChar

StartChar: braceleft
Encoding: 123 123 91
Width: 326
GlyphClass: 2
Flags: HMW
LayerCount: 2
Back
Fore
SplineSet
104 259 m 1
 107 279 l 1
 167 288 193 325 200 410 c 2
 208 520 l 2
 216 627 264 680 353 687 c 1
 354 666 l 1
 294 658 272 619 266 530 c 2
 260 434 l 2
 255 321 213 285 168 269 c 1
 207 253 238 217 207 104 c 2
 183 8 l 2
 160 -81 169 -120 227 -128 c 1
 222 -149 l 1
 135 -142 103 -89 129 18 c 2
 155 128 l 2
 175 213 162 250 104 259 c 1
EndSplineSet
Validated: 1
EndChar

StartChar: bar
Encoding: 124 124 92
Width: 220
GlyphClass: 2
Flags: HMW
LayerCount: 2
Back
Fore
SplineSet
227 770 m 1
 265 770 l 1
 88 -230 l 1
 50 -230 l 1
 227 770 l 1
EndSplineSet
Validated: 1
EndChar

StartChar: asciitilde
Encoding: 126 126 94
Width: 476
GlyphClass: 2
Flags: HMW
LayerCount: 2
Back
Fore
SplineSet
474 271 m 1
 493 249 l 1
 434 192 388 174 349 174 c 3
 283 174 236 225 177 225 c 3
 149 225 119 214 82 181 c 1
 63 203 l 1
 122 260 168 278 207 278 c 3
 273 278 320 227 379 227 c 3
 407 227 437 238 474 271 c 1
EndSplineSet
Validated: 1
EndChar

StartChar: cent
Encoding: 162 162 96
Width: 391
GlyphClass: 2
UnlinkRmOvrlpSave: 1
Flags: HMW
LayerCount: 2
Back
Fore
SplineSet
290 506 m 1
 317 503 l 1
 210 -98 l 1
 183 -95 l 1
 290 506 l 1
EndSplineSet
Refer: 67 99 N 1 0 0 1 0 0 2
EndChar

StartChar: sterling
Encoding: 163 163 97
Width: 440
GlyphClass: 2
Flags: HMW
LayerCount: 2
Back
SplineSet
180 74 m 1
 325 55 l 2
 367 49 388 65 412 105 c 513
 434 101 l 1
 397 -12 l 1
 352 -12 l 1
 146 20 l 2
 115 26 89 18 46 -12 c 513
 28 12 l 1
 114 102 l 9
 156 366 l 2
 174 476 228 535 273 567 c 0
 310 593 337 607 372 607 c 3
 394 607 415 598 431 583 c 1
 406 525 l 1
 393 520 l 1
 368 536 342 546 310 546 c 3
 280 546 253 527 238 436 c 2
 180 74 l 1
313 307 m 1
 89 307 l 1
 92 323 l 1
 153 345 l 1
 320 345 l 1
 313 307 l 1
EndSplineSet
Fore
SplineSet
180 74 m 1
 325 55 l 2
 367 49 388 65 412 105 c 1
 434 101 l 1
 397 -12 l 1
 352 -12 l 1
 146 20 l 2
 115 26 89 18 46 -12 c 1
 28 12 l 1
 114 102 l 1
 147 307 l 1
 89 307 l 1
 92 323 l 1
 153 345 l 1
 156 366 l 2
 174 476 228 535 273 567 c 0
 310 593 337 607 372 607 c 3
 394 607 415 598 431 583 c 1
 406 525 l 1
 393 520 l 1
 368 536 342 546 310 546 c 3
 280 546 253 527 238 436 c 2
 223 345 l 1
 320 345 l 1
 313 307 l 1
 217 307 l 1
 180 74 l 1
EndSplineSet
Validated: 33
EndChar

StartChar: yen
Encoding: 165 165 98
Width: 512
VWidth: 0
GlyphClass: 2
Flags: HMW
LayerCount: 2
Back
SplineSet
124 594 m 5
 300 594 l 5
 300 573 l 5
 260 554 l 5
 333 317 l 5
 481 553 l 5
 433 573 l 5
 433 594 l 5
 595 594 l 5
 595 573 l 5
 531 554 l 5
 307 217 l 5
 287 217 l 5
 178 557 l 5
 124 573 l 5
 124 594 l 5
229 243 m 5
 417 243 l 5
 411 209 l 5
 176 209 l 5
 179 225 l 5
 229 243 l 5
213 153 m 5
 401 153 l 5
 395 119 l 5
 160 119 l 5
 163 135 l 5
 213 153 l 5
303 39 m 13
 368 20 l 5
 368 0 l 5
 156 0 l 5
 156 20 l 5
 228 45 l 21
 269 274 l 5
 344 274 l 5
 303 39 l 13
EndSplineSet
Fore
SplineSet
124 594 m 5
 300 594 l 1
 300 573 l 1
 260 554 l 1
 333 317 l 1
 481 553 l 1
 433 573 l 1
 433 594 l 1
 595 594 l 1
 595 573 l 1
 531 554 l 1
 344 272 l 1
 339 243 l 1
 417 243 l 1
 411 209 l 1
 333 209 l 1
 323 153 l 1
 401 153 l 1
 395 119 l 1
 317 119 l 1
 303 39 l 1
 368 20 l 1
 368 0 l 1
 156 0 l 1
 156 20 l 1
 228 45 l 1
 241 119 l 1
 160 119 l 1
 163 135 l 1
 213 153 l 1
 247 153 l 1
 257 209 l 1
 176 209 l 1
 179 225 l 1
 229 243 l 1
 263 243 l 1
 269 273 l 1
 178 557 l 1
 124 573 l 1
 124 594 l 5
EndSplineSet
Validated: 1
EndChar

StartChar: brokenbar
Encoding: 166 166 99
Width: 220
VWidth: 0
GlyphClass: 2
Flags: HMW
LayerCount: 2
Back
Fore
SplineSet
117 149 m 1
 155 149 l 1
 88 -230 l 1
 50 -230 l 1
 117 149 l 1
227 770 m 1
 265 770 l 1
 204 425 l 1
 166 425 l 1
 227 770 l 1
EndSplineSet
Validated: 1
EndChar

StartChar: section
Encoding: 167 167 100
Width: 455
GlyphClass: 2
Flags: HMW
LayerCount: 2
Back
SplineSet
200 -183 m 7
 267 -183 306 -143 306 -88 c 7
 306 -37 277.364257812 -7.3642578125 215 32 c 4
 133.801757812 83.251953125 101 134 101 194 c 7
 101 272 168 360 285 360 c 5
 270 327 l 5
 208 327 166 293 166 221 c 7
 166 165 200.283203125 134.830078125 265 96 c 4
 335 54 378 14 378 -45 c 7
 378 -154 270 -231 153 -231 c 7
 105 -231 59 -220 40 -209 c 5
 57 -144 l 5
 75 -139 l 5
 98 -156 150 -183 200 -183 c 7
383 650 m 7
 417 650 439 642 458 633 c 5
 438 571 l 5
 420 566 l 5
 398 579 358 599 318 599 c 7
 264 599 233 543 233 506 c 7
 233 453 264 430 316 391 c 4
 398.539683257 329.095237557 420 299 420 236 c 7
 420 144 332 65 217 65 c 5
 234 99 l 5
 285 101 348 137 348 201 c 7
 348 255 331.704324661 277.467330303 270 327 c 4
 189.490723292 391.628199606 173 421 173 476 c 7
 173 556 272 650 383 650 c 7
272 332 m 1
 210 332 158 298 158 226 c 3
 158 170 198 143 262 103 c 0
 353 46 397 5 397 -58 c 3
 397 -155 308 -231 165 -231 c 3
 96 -231 60 -219 22 -202 c 1
 29 -82 l 1
 72 -79 l 1
 75 -168 l 1
 102 -182 142 -197 182 -197 c 3
 255 -197 325 -168 325 -95 c 3
 325 -33 280 -6 211 40 c 0
 125 97 93 139 93 199 c 3
 93 277 170 365 287 365 c 1
 272 332 l 1
247 98 m 1
 320 98 375 125 375 193 c 3
 375 255 342 279 273 325 c 0
 187 382 155 427 155 487 c 3
 155 565 227 650 349 650 c 3
 415 650 454 637 474 628 c 1
 457 513 l 1
 419 515 l 1
 421 597 l 1
 404 607 365 617 334 617 c 3
 267 617 220 586 220 514 c 3
 220 458 261 434 324 393 c 0
 410 336 447 298 447 235 c 3
 447 143 373 64 230 64 c 1
 247 98 l 1
EndSplineSet
Fore
SplineSet
383 650 m 3
 417 650 439 642 458 633 c 1
 438 571 l 1
 420 566 l 1
 398 579 358 599 318 599 c 3
 264 599 233 543 233 506 c 3
 233 453 264 430 316 391 c 0
 399 329 420 299 420 236 c 3
 420 166 369 104 294 78 c 1
 347 42 378 5 378 -45 c 3
 378 -154 270 -231 153 -231 c 3
 105 -231 59 -220 40 -209 c 1
 57 -144 l 1
 75 -139 l 1
 98 -156 150 -183 200 -183 c 3
 267 -183 306 -143 306 -88 c 3
 306 -37 277 -7 215 32 c 0
 134 83 101 134 101 194 c 3
 101 261 150 335 237 355 c 1
 185 402 173 430 173 476 c 3
 173 556 272 650 383 650 c 3
256 102 m 1
 302 112 348 146 348 201 c 3
 348 255 332 277 270 327 c 1
 208 327 166 293 166 221 c 3
 166 168 197 138 256 102 c 1
EndSplineSet
Validated: 1
Colour: ff8f94
EndChar

StartChar: copyright
Encoding: 169 169 102
Width: 721
VWidth: 0
GlyphClass: 2
Flags: HMW
LayerCount: 2
Back
Fore
SplineSet
457 574 m 7
 500 574 534 567 552 559 c 5
 546 451 l 5
 517 451 l 5
 502 516 l 5
 487 523 455 530 432 530 c 7
 395 530 361 523 342 501 c 4
 317 473 306 431 306 369 c 7
 306 248 372 173 452 173 c 7
 490 173 535 185 556 200 c 5
 569 183 l 5
 526 137 468 125 420 125 c 7
 333 125 231 195 231 342 c 7
 231 500 352 574 457 574 c 7
98 352 m 7
 98 169 236 30 424 30 c 7
 612 30 751 169 751 352 c 7
 751 535 612 674 424 674 c 7
 233 674 98 535 98 352 c 7
68 352 m 7
 68 551 220 704 424 704 c 7
 633 704 781 556 781 352 c 7
 781 153 628 0 424 0 c 7
 220 0 68 153 68 352 c 7
EndSplineSet
Validated: 1
EndChar

StartChar: ordfeminine
Encoding: 170 170 103
Width: 422
GlyphClass: 2
Flags: HMW
LayerCount: 2
Back
Fore
SplineSet
367 690 m 3
 391 690 414 686 434 679 c 1
 390 488 l 1
 390 429 l 1
 448 424 l 1
 450 400 l 1
 320 377 l 1
 317 386 l 1
 337 498 l 1
 299 415 254 376 212 376 c 3
 185 376 146 391 146 462 c 3
 146 568 222 690 367 690 c 3
314 648 m 3
 229 648 208 554 208 479 c 3
 208 438 222 429 241 429 c 3
 270 429 331 529 358 616 c 1
 363 640 l 1
 353 644 332 648 314 648 c 3
EndSplineSet
Validated: 1
EndChar

StartChar: logicalnot
Encoding: 172 172 105
Width: 494
VWidth: 0
GlyphClass: 2
Flags: HMW
LayerCount: 2
Back
Fore
SplineSet
87 254 m 1
 497 254 l 1
 461 49 l 1
 426 49 l 1
 456 220 l 1
 81 220 l 1
 87 254 l 1
EndSplineSet
Validated: 1
EndChar

StartChar: registered
Encoding: 174 174 107
Width: 721
VWidth: 0
GlyphClass: 2
Flags: HMW
LayerCount: 2
Back
Fore
SplineSet
372 171 m 1
 421 155 l 1
 421 137 l 1
 233 137 l 1
 233 155 l 1
 298 180 l 1
 298 519 l 1
 236 543 l 1
 236 562 l 1
 445 562 l 2
 533 562 573 527 573 457 c 3
 573 379 516 347 466 338 c 1
 596 181 l 1
 626 149 l 1
 626 137 l 1
 536 137 l 1
 388 343 l 1
 388 361 l 17
 458 361 496 380 496 453 c 3
 496 508 471 529 420 529 c 2
 372 529 l 1
 372 171 l 1
96 352 m 3
 96 169 234 30 422 30 c 3
 610 30 749 169 749 352 c 3
 749 535 610 674 422 674 c 3
 231 674 96 535 96 352 c 3
66 352 m 3
 66 551 218 704 422 704 c 3
 631 704 779 556 779 352 c 3
 779 153 626 0 422 0 c 3
 218 0 66 153 66 352 c 3
EndSplineSet
Validated: 1
EndChar

StartChar: degree
Encoding: 176 176 109
Width: 282
VWidth: -3
GlyphClass: 2
Flags: HMW
LayerCount: 2
Back
Fore
SplineSet
244 660 m 3
 221 660 206 653 195 643 c 1
 181 626 174 614 174 581 c 3
 174 521 206 496 244 496 c 3
 267 496 281 503 292 513 c 1
 306 530 312 542 312 575 c 3
 312 635 282 660 244 660 c 3
237 465 m 3
 195 465 132 496 132 571 c 3
 132 643 181 690 248 690 c 3
 290 690 354 660 354 585 c 3
 354 513 304 465 237 465 c 3
EndSplineSet
Validated: 1
EndChar

StartChar: plusminus
Encoding: 177 177 110
Width: 460
VWidth: 0
GlyphClass: 2
Flags: HMW
LayerCount: 2
Back
Fore
SplineSet
288 425 m 1
 323 425 l 1
 298 283 l 1
 468 283 l 1
 462 249 l 1
 292 249 l 1
 267 108 l 1
 232 108 l 1
 257 249 l 1
 86 249 l 1
 92 283 l 1
 263 283 l 1
 288 425 l 1
53 63 m 5
 429 63 l 1
 423 29 l 1
 47 29 l 1
 53 63 l 5
EndSplineSet
Validated: 1
EndChar

StartChar: uni00B2
Encoding: 178 178 111
Width: 400
VWidth: 0
GlyphClass: 3
Flags: HMW
LayerCount: 2
Back
Fore
SplineSet
312 722 m 3
 276 722 260 716 216 693 c 1
 206 718 l 1
 263 754 297 770 348 770 c 3
 413 770 437 722 437 672 c 3
 437 582 327 475 221 414 c 1
 365 414 l 9
 399 453 l 1
 419 448 l 1
 386 358 l 1
 129 358 l 1
 129 390 l 1
 301 487 366 583 366 659 c 3
 366 703 346 722 312 722 c 3
EndSplineSet
Validated: 1
Ligature2: "Opentypeshortcuts subtable" asciicircum two
EndChar

StartChar: uni00B3
Encoding: 179 179 112
Width: 368
VWidth: 0
GlyphClass: 3
Flags: HMW
LayerCount: 2
Back
Fore
SplineSet
396 493 m 3
 396 393 267 348 124 348 c 1
 124 380 l 1
 253 380 321 418 321 480 c 3
 321 505 313 522 290 535 c 0
 269 547 258 548 230 549 c 1
 231 570 l 1
 287 597 326 631 326 681 c 3
 326 713 306 730 279 730 c 3
 250 730 228 726 199 712 c 1
 191 733 l 1
 232 757 267 770 310 770 c 3
 363 770 396 742 396 692 c 3
 396 635 333 593 298 578 c 1
 318 577 328 574 342 569 c 0
 381 555 396 536 396 493 c 3
EndSplineSet
Validated: 1
Ligature2: "Opentypeshortcuts subtable" asciicircum three
EndChar

StartChar: mu
Encoding: 181 181 114
Width: 512
GlyphClass: 2
Flags: HMW
LayerCount: 2
Back
Fore
SplineSet
234 437 m 1
 219 312 l 1
 185 122 l 2
 176 72 191 43 219 43 c 3
 260 43 342 156 401 331 c 1
 416 415 l 1
 483 437 l 1
 494 426 l 1
 455 250 l 1
 430 101 l 1
 430 42 l 1
 488 37 l 1
 490 13 l 1
 344 -10 l 1
 342 3 l 1
 379 205 l 1
 317 58 246 -12 181 -12 c 3
 169 -12 149 -5 140 10 c 1
 118 -202 l 1
 44 -230 l 1
 36 -215 l 1
 85 -38 l 1
 147 311 l 9
 147 385 l 1
 90 390 l 1
 88 414 l 1
 234 437 l 1
EndSplineSet
Validated: 33
Colour: ff8f94
EndChar

StartChar: paragraph
Encoding: 182 182 115
Width: 523
VWidth: 0
GlyphClass: 2
Flags: HMW
LayerCount: 2
Back
Fore
SplineSet
395 600 m 1
 289 0 l 1
 244 0 l 1
 289 256 l 1
 166 256 102 311 102 432 c 3
 102 553 196 638 347 638 c 2
 582 638 l 1
 582 618 l 1
 504 596 l 1
 399 0 l 1
 354 0 l 1
 460 600 l 1
 395 600 l 1
EndSplineSet
Validated: 1
EndChar

StartChar: uni00B9
Encoding: 185 185 118
Width: 322
VWidth: -3
GlyphClass: 3
Flags: HMW
LayerCount: 2
Back
Fore
SplineSet
268 394 m 1
 336 378 l 1
 332 359 l 1
 118 359 l 1
 122 378 l 1
 207 403 l 1
 262 717 l 1
 194 729 l 1
 197 749 l 1
 334 764 l 1
 268 394 l 1
EndSplineSet
Validated: 1
Ligature2: "Opentypeshortcuts subtable" asciicircum one
EndChar

StartChar: ordmasculine
Encoding: 186 186 119
Width: 394
GlyphClass: 2
Flags: HMW
LayerCount: 2
Back
Fore
SplineSet
331 690 m 7
 372 690 421 667 421 588 c 7
 421 439 302 376 251 376 c 7
 209 376 161 398 161 477 c 7
 161 626 279 690 331 690 c 7
278 418 m 7
 329 418 358 480 358 566 c 7
 358 622 336 648 304 648 c 7
 253 648 225 586 225 500 c 7
 225 444 245 418 278 418 c 7
EndSplineSet
Validated: 1
EndChar

StartChar: AE
Encoding: 198 198 131
Width: 857
GlyphClass: 2
Flags: HMW
LayerCount: 2
Back
SplineSet
356 638 m 5
 863 638 l 5
 846 513 l 5
 811 510 l 5
 811 596 l 5
 590 596 l 5
 502 44 l 5
 755 44 l 5
 795 139 l 5
 831 134 l 5
 795 0 l 5
 346 0 l 5
 346 20 l 5
 424 45 l 5
 512 599 l 5
 477 599 l 5
 123 38 l 5
 193 20 l 5
 193 0 l 5
 0 0 l 5
 0 20 l 5
 65 37 l 5
 425 599 l 5
 356 618 l 5
 356 638 l 5
544 312 m 5
 550 353 l 5
 723 353 l 5
 741 409 l 5
 776 409 l 5
 752 256 l 5
 717 256 l 5
 716 312 l 5
 544 312 l 5
218 216 m 5
 224 253 l 5
 492 253 l 5
 486 216 l 5
 218 216 l 5
EndSplineSet
Fore
SplineSet
356 638 m 1
 863 638 l 1
 846 513 l 1
 811 510 l 1
 811 596 l 1
 590 596 l 1
 551 353 l 1
 723 353 l 1
 741 409 l 1
 776 409 l 1
 752 256 l 1
 717 256 l 1
 716 312 l 1
 545 312 l 1
 502 44 l 1
 755 44 l 1
 795 139 l 1
 831 134 l 1
 795 0 l 1
 346 0 l 1
 346 20 l 1
 424 45 l 1
 451 216 l 1
 235 216 l 1
 123 38 l 1
 193 20 l 1
 193 0 l 1
 0 0 l 1
 0 20 l 1
 65 37 l 1
 425 599 l 1
 356 618 l 1
 356 638 l 1
477 599 m 1
 259 253 l 1
 457 253 l 1
 512 599 l 1
 477 599 l 1
EndSplineSet
Validated: 1
Colour: ff8f94
EndChar

StartChar: Eth
Encoding: 208 208 141
Width: 646
GlyphClass: 2
UnlinkRmOvrlpSave: 1
Flags: HMW
LayerCount: 2
Back
Fore
SplineSet
357 314 m 1
 92 314 l 1
 95 330 l 1
 156 352 l 1
 364 352 l 1
 357 314 l 1
EndSplineSet
Refer: 36 68 N 1 0 0 1 0 0 2
EndChar

StartChar: multiply
Encoding: 215 215 148
Width: 460
VWidth: 0
GlyphClass: 2
Flags: HMW
LayerCount: 2
Back
Fore
SplineSet
176 382 m 5
 275 261 l 1
 416 382 l 1
 437 358 l 1
 295 236 l 1
 393 116 l 1
 366 92 l 1
 267 213 l 1
 126 92 l 1
 105 116 l 1
 247 238 l 1
 149 358 l 1
 176 382 l 5
EndSplineSet
Validated: 1
EndChar

StartChar: Oslash
Encoding: 216 216 149
Width: 660
GlyphClass: 2
UnlinkRmOvrlpSave: 1
Flags: HMW
LayerCount: 2
Back
Fore
SplineSet
643 689 m 1
 667 667 l 1
 116 -62 l 1
 92 -40 l 1
 643 689 l 1
EndSplineSet
Refer: 47 79 N 1 0 0 1 0 0 2
EndChar

StartChar: Thorn
Encoding: 222 222 155
Width: 548
GlyphClass: 2
Flags: HMW
LayerCount: 2
Back
Fore
SplineSet
155 638 m 1
 373 638 l 1
 373 618 l 1
 300 593 l 1
 288 518 l 1
 370 518 l 2
 504 518 571 491 571 372 c 3
 571 234 442 158 278 158 c 2
 262 158 l 1
 267 191 l 1
 282 191 l 2
 403 191 485 238 485 367 c 3
 485 470 424 480 341 480 c 2
 282 480 l 1
 212 39 l 1
 291 20 l 1
 291 0 l 1
 58 0 l 1
 58 20 l 1
 136 45 l 1
 224 599 l 1
 155 618 l 1
 155 638 l 1
EndSplineSet
Validated: 1
Colour: ff8f94
EndChar

StartChar: germandbls
Encoding: 223 223 156
Width: 565
GlyphClass: 2
Flags: HMW
LayerCount: 2
Back
SplineSet
219 387 m 5
 115 387 l 5
 118 403 l 5
 179 425 l 5
 226 425 l 5
 219 387 l 5
398 687 m 7
 520 687 539 572 498 410 c 5
 480 387 l 5
 415 382 365 354 365 322 c 7
 365 287 392 275 434 245 c 4
 492 204 523 176 523 118 c 7
 523 46 443 -12 359 -12 c 7
 311 -12 280 -1 261 10 c 5
 276 73 l 5
 294 78 l 5
 316 62 355 36 400 36 c 7
 452 36 462 53 462 83 c 7
 462 124 446 139 391 178 c 4
 336 217 305 247 305 293 c 7
 305 366 387 401 463 415 c 5
 495 565 454 641 368 641 c 7
 315 641 279 607 264 516 c 6
 182 11 l 6
 164 -99 110 -158 65 -190 c 4
 28 -216 1 -230 -34 -230 c 7
 -56 -230 -77 -221 -93 -206 c 5
 -68 -148 l 5
 -55 -143 l 5
 -30 -159 -4 -169 28 -169 c 7
 58 -169 85 -150 100 -59 c 6
 182 446 l 6
 200 556 254 615 299 647 c 4
 336 673 363 687 398 687 c 7
EndSplineSet
Fore
SplineSet
398 687 m 3
 520 687 539 572 498 410 c 1
 480 387 l 1
 415 382 365 354 365 322 c 3
 365 287 392 275 434 245 c 0
 492 204 523 176 523 118 c 3
 523 46 443 -12 359 -12 c 3
 311 -12 280 -1 261 10 c 1
 276 73 l 1
 294 78 l 1
 316 62 355 36 400 36 c 3
 452 36 462 53 462 83 c 3
 462 124 446 139 391 178 c 0
 336 217 305 247 305 293 c 3
 305 366 387 401 463 415 c 1
 495 565 454 641 368 641 c 3
 315 641 279 607 264 516 c 2
 182 11 l 2
 164 -99 110 -158 65 -190 c 0
 28 -216 1 -230 -34 -230 c 3
 -56 -230 -77 -221 -93 -206 c 1
 -68 -148 l 1
 -55 -143 l 1
 -30 -159 -4 -169 28 -169 c 3
 58 -169 85 -150 100 -59 c 2
 172 387 l 1
 115 387 l 1
 118 403 l 1
 179 425 l 1
 182 446 l 2
 200 556 254 615 299 647 c 0
 336 673 363 687 398 687 c 3
EndSplineSet
Validated: 33
Colour: ff8f94
EndChar

StartChar: ae
Encoding: 230 230 163
Width: 659
VWidth: -3
GlyphClass: 2
Flags: HMW
LayerCount: 2
Back
SplineSet
565 437 m 3
 616 437 644 404 644 357 c 3
 644 278 544 218 392 203 c 1
 392 233 l 1
 530 245 566 298 566 349 c 3
 566 374 551 391 529 391 c 0
 448 391 395 299 395 161 c 3
 395 71 433 45 479 45 c 3
 521 45 585 84 621 123 c 1
 642 101 l 1
 585 41 507 -12 440 -12 c 3
 381 -12 322 20 322 133 c 3
 322 290 458 437 565 437 c 3
309 437 m 3
 379 437 432 398 413 289 c 1
 364 164 l 1
 327 96 l 1
 323 202 l 1
 335 269 l 2
 350.266316205 354.236932144 325 386 271 386 c 3
 229 386 195 361 160 336 c 1
 141 361 l 1
 186 398 248 437 309 437 c 3
199 41 m 3
 231 41 310 82 323 202 c 1
 327 96 l 1
 288 40 222 -12 151 -12 c 3
 92 -12 64 27 64 79 c 3
 64 138 125 201 204 216 c 0
 276 230 298 230 329 234 c 1
 323 202 l 1
 292 199 265 195 232 189 c 0
 172 179 143 136 143 89 c 3
 143 54 164 41 199 41 c 3
EndSplineSet
Fore
SplineSet
309 437 m 3
 362 437 405 415 415 357 c 1
 460 406 516 437 565 437 c 3
 616 437 644 404 644 357 c 3
 644 279 546 219 397 203 c 1
 396 189 395 176 395 161 c 3
 395 71 433 45 479 45 c 3
 521 45 585 84 621 123 c 1
 642 101 l 1
 585 41 507 -12 440 -12 c 3
 389 -12 337 12 325 93 c 1
 286 38 221 -12 151 -12 c 3
 92 -12 64 27 64 79 c 3
 64 138 125 201 204 216 c 0
 276 230 298 230 329 234 c 1
 335 269 l 2
 350 354 325 386 271 386 c 3
 229 386 195 361 160 336 c 1
 141 361 l 1
 186 398 248 437 309 437 c 3
323 202 m 1
 292 199 265 195 232 189 c 0
 172 179 143 136 143 89 c 3
 143 54 164 41 199 41 c 3
 231 41 310 82 323 202 c 1
529 391 m 3
 463 391 415 331 400 234 c 1
 531 247 566 299 566 349 c 3
 566 374 551 391 529 391 c 3
EndSplineSet
Validated: 33
Colour: ff8f94
EndChar

StartChar: eth
Encoding: 240 240 173
Width: 465
GlyphClass: 2
Flags: HMW
LayerCount: 2
Back
SplineSet
508 601 m 1
 270 530 l 1
 266 548 l 1
 305 575 l 1
 497 635 l 1
 508 601 l 1
315 690 m 1
 398 657 475 581 475 444 c 3
 475 232 341 -12 170 -12 c 3
 131 -12 78 9 78 111 c 3
 78 257 202 437 372 437 c 3
 385 437 396 435 405 432 c 1
 407 447 408 460 408 482 c 3
 408 561 361 634 301 663 c 1
 315 690 l 1
397 370 m 1
 382 381 349 389 324 389 c 3
 196 389 153 262 153 136 c 3
 153 64 187 40 215 40 c 3
 257 40 320 70 391 331 c 1
 397 370 l 1
EndSplineSet
Fore
SplineSet
324 389 m 7
 196 389 153 262 153 136 c 3
 153 64 187 40 215 40 c 3
 257 40 320 70 391 331 c 1
 397 370 l 1
 382 381 349 389 324 389 c 7
315 690 m 1
 355 674 393 649 422 612 c 1
 497 635 l 1
 508 601 l 1
 442 581 l 1
 462 544 475 499 475 444 c 3
 475 232 341 -12 170 -12 c 3
 131 -12 78 9 78 111 c 3
 78 257 202 437 372 437 c 3
 385 437 396 435 405 432 c 1
 407 447 408 460 408 482 c 3
 408 511 401 540 390 566 c 1
 270 530 l 1
 266 548 l 1
 305 575 l 1
 374 596 l 1
 355 625 329 649 301 663 c 1
 315 690 l 1
EndSplineSet
Validated: 1
EndChar

StartChar: divide
Encoding: 247 247 180
Width: 460
VWidth: 0
GlyphClass: 2
Flags: HMW
LayerCount: 2
Back
Fore
SplineSet
81 220 m 1
 87 254 l 1
 463 254 l 1
 457 220 l 1
 81 220 l 1
EndSplineSet
Refer: 445 775 N 1 0 0 1 346 -481 2
Refer: 445 775 N 1 0 0 1 394 -207 2
Validated: 1
EndChar

StartChar: oslash
Encoding: 248 248 181
Width: 451
GlyphClass: 2
UnlinkRmOvrlpSave: 1
Flags: HMW
LayerCount: 2
Back
Fore
SplineSet
451 494 m 1
 475 472 l 1
 71 -62 l 1
 47 -40 l 1
 451 494 l 1
EndSplineSet
Refer: 79 111 N 1 0 0 1 0 0 2
EndChar

StartChar: thorn
Encoding: 254 254 187
Width: 493
GlyphClass: 2
Flags: HMW
LayerCount: 2
Back
Fore
SplineSet
287 690 m 1
 203 248 l 1
 258 366 333 437 393 437 c 3
 432 437 485 416 485 314 c 3
 485 162 385 -12 183 -12 c 3
 176 -12 168 -12 159 -11 c 1
 122 -208 l 1
 50 -230 l 1
 44 -219 l 1
 97 13 l 1
 197 579 l 9
 197 638 l 1
 139 643 l 1
 137 667 l 1
 287 690 l 1
354 381 m 7
 312 381 231 268 179 94 c 1
 171 49 l 1
 186 43 224 36 256 36 c 3
 377 36 410 163 410 289 c 3
 410 361 382 381 354 381 c 7
EndSplineSet
Validated: 1
Colour: ff8f94
EndChar

StartChar: dotlessi
Encoding: 305 305 189
Width: 268
GlyphClass: 2
Flags: HMW
AnchorPoint: "bottom" 145 0 basechar 0
AnchorPoint: "top" 192 425 basechar 0
LayerCount: 2
Back
Fore
SplineSet
235 437 m 1
 179 102 l 1
 179 43 l 1
 237 38 l 1
 239 14 l 1
 100 -9 l 1
 96 3 l 1
 109 113 l 1
 147 326 l 9
 147 385 l 1
 90 390 l 1
 88 414 l 1
 235 437 l 1
EndSplineSet
Validated: 1
Colour: ff8f94
EndChar

StartChar: OE
Encoding: 338 338 190
Width: 847
GlyphClass: 2
Flags: HMW
LayerCount: 2
Back
Fore
SplineSet
434 599 m 2
 293 599 176 496 176 247 c 3
 176 72 244 38 386 38 c 2
 410 38 l 1
 499 599 l 1
 434 599 l 2
441 638 m 2
 853 638 l 1
 836 513 l 1
 801 510 l 1
 801 596 l 1
 577 596 l 1
 538 353 l 1
 713 353 l 1
 731 409 l 1
 766 409 l 1
 742 256 l 1
 707 256 l 1
 706 312 l 1
 532 312 l 1
 489 44 l 1
 745 44 l 1
 785 139 l 1
 821 134 l 1
 785 0 l 1
 367 0 l 2
 177 0 90 55 90 246 c 3
 90 501 258 638 441 638 c 2
EndSplineSet
Validated: 1
Colour: ff8f94
EndChar

StartChar: oe
Encoding: 339 339 191
Width: 695
GlyphClass: 2
Flags: HMW
LayerCount: 2
Back
SplineSet
593 437 m 7
 644 437 674 399 674 352 c 7
 674 273 582 218 430 203 c 5
 430 233 l 5
 568 245 599 293 599 344 c 7
 599 369 579 391 557 391 c 7
 476 391 433 299 433 161 c 7
 433 71 471 45 517 45 c 7
 559 45 623 84 659 123 c 5
 680 101 l 5
 623 41 545 -12 478 -12 c 7
 419 -12 361 20 361 133 c 7
 361 290 486 437 593 437 c 7
320 437 m 7
 379 437 441 405 441 292 c 7
 441 79 273 -12 206 -12 c 7
 146 -12 83 20 83 133 c 7
 83 346 252 437 320 437 c 7
281 389 m 7
 202 389 158 294 158 165 c 7
 158 79 198 37 245 37 c 7
 323 37 368 131 368 260 c 7
 368 346 327 389 281 389 c 7
EndSplineSet
Fore
SplineSet
281 389 m 3
 202 389 158 294 158 165 c 3
 158 79 198 37 245 37 c 3
 323 37 368 131 368 260 c 3
 368 346 327 389 281 389 c 3
320 437 m 3
 369 437 420 415 436 343 c 1
 481 400 539 437 593 437 c 3
 644 437 674 399 674 352 c 3
 674 274 583 219 434 203 c 1
 433 189 433 176 433 161 c 3
 433 71 471 45 517 45 c 3
 559 45 623 84 659 123 c 1
 680 101 l 1
 623 41 545 -12 478 -12 c 3
 430 -12 382 9 366 79 c 1
 312 16 244 -12 206 -12 c 3
 146 -12 83 20 83 133 c 3
 83 346 252 437 320 437 c 3
557 391 m 7
 491 391 451 331 438 234 c 1
 570 247 599 294 599 344 c 3
 599 369 579 391 557 391 c 7
EndSplineSet
Validated: 1
Colour: ff8f94
EndChar

StartChar: longs
Encoding: 383 383 197
Width: 290
GlyphClass: 2
Flags: HMW
LayerCount: 2
Back
Fore
SplineSet
398 687 m 3
 420 687 441 678 457 663 c 1
 432 605 l 1
 419 600 l 1
 394 616 368 626 336 626 c 3
 306 626 279 607 264 516 c 2
 182 11 l 2
 164 -99 110 -158 65 -190 c 0
 28 -216 1 -230 -34 -230 c 3
 -56 -230 -77 -221 -93 -206 c 1
 -68 -148 l 1
 -55 -143 l 1
 -30 -159 -4 -169 28 -169 c 3
 58 -169 85 -150 100 -59 c 2
 182 446 l 2
 200 556 254 615 299 647 c 0
 336 673 363 687 398 687 c 3
EndSplineSet
Validated: 1
Colour: ff8f94
EndChar

StartChar: figuredash
Encoding: 8210 8210 204
Width: 463
VWidth: 0
GlyphClass: 2
Flags: HMW
LayerCount: 2
Back
Fore
SplineSet
74 217 m 1
 80 251 l 5
 471 251 l 5
 465 217 l 1
 74 217 l 1
EndSplineSet
Validated: 1
EndChar

StartChar: endash
Encoding: 8211 8211 205
Width: 426
VWidth: 0
GlyphClass: 3
Flags: HMW
LayerCount: 2
Back
Fore
SplineSet
56 217 m 1
 62 251 l 5
 453 251 l 5
 447 217 l 1
 56 217 l 1
EndSplineSet
Validated: 1
Ligature2: "SmallCapsClose subtable" endash.smcpflag less slash s c greater
Substitution2: "Single Substitution lookup 14 subtable" endash.smcpflag
EndChar

StartChar: emdash
Encoding: 8212 8212 206
Width: 873
VWidth: 0
GlyphClass: 3
Flags: HMW
LayerCount: 2
Back
Fore
SplineSet
56 217 m 1
 62 251 l 1
 899 251 l 1
 893 217 l 1
 56 217 l 1
EndSplineSet
Validated: 1
Ligature2: "SmallCapsClose subtable" emdash.smcpflag less slash s c greater
Substitution2: "Single Substitution lookup 14 subtable" emdash.smcpflag
EndChar

StartChar: quoteright
Encoding: 8217 8217 208
Width: 172
VWidth: 0
GlyphClass: 3
Flags: HMW
LayerCount: 2
Back
Fore
SplineSet
197 583 m 1
 161 583 140 602 140 638 c 3
 140 664 160 690 195 690 c 3
 232 690 252 664 252 617 c 3
 252 545 188 482 122 445 c 1
 109 467 l 1
 163 495 197 540 197 583 c 1
EndSplineSet
Validated: 1
Ligature2: "SmallCapsClose subtable" quoteright.smcpflag less slash s c greater
Substitution2: "Single Substitution lookup 14 subtable" quoteright.smcpflag
EndChar

StartChar: Delta
Encoding: 8710 8710 212
Width: 652
VWidth: 0
GlyphClass: 2
Flags: HMW
LayerCount: 2
Back
Fore
SplineSet
586 0 m 1
 66 0 l 1
 414 650 l 1
 458 650 l 1
 586 0 l 1
131 37 m 1
 502 37 l 1
 403 552 l 1
 131 37 l 1
EndSplineSet
Validated: 1
EndChar

StartChar: summation
Encoding: 8721 8721 213
Width: 750
VWidth: 0
GlyphClass: 2
Flags: HMW
LayerCount: 2
Back
Fore
SplineSet
331 276 m 1
 42 750 l 1
 47 770 l 1
 647 770 l 1
 652 632 l 1
 625 629 l 5
 595 728 l 9
 145 728 l 1
 396 315 l 1
 396 298 l 1
 108 -166 l 9
 617 -166 l 17
 660 -87 l 5
 686 -92 l 1
 665 -230 l 1
 33 -230 l 1
 28 -210 l 1
 331 276 l 1
EndSplineSet
Validated: 1
EndChar

StartChar: minus
Encoding: 8722 8722 214
Width: 476
GlyphClass: 2
Flags: HMW
LayerCount: 2
Back
Fore
SplineSet
89 220 m 1
 94 254 l 1
 470 254 l 1
 465 220 l 1
 89 220 l 1
EndSplineSet
Validated: 1
EndChar

StartChar: radical
Encoding: 8730 8730 215
Width: 580
GlyphClass: 2
Flags: HMW
LayerCount: 2
Back
Fore
SplineSet
118 345 m 1
 114 362 l 1
 230 429 l 1
 243 422 l 1
 288 87 l 1
 745 938 l 1
 774 928 l 1
 274 -9 l 1
 235 -9 l 1
 179 362 l 1
 118 345 l 1
EndSplineSet
Validated: 1
EndChar

StartChar: dagger
Encoding: 8224 8224 216
Width: 460
VWidth: 0
GlyphClass: 2
Flags: HMW
LayerCount: 2
Back
Fore
SplineSet
335 690 m 5
 370 690 l 1
 338 509 l 1
 508 509 l 1
 502 475 l 1
 332 475 l 1
 248 0 l 1
 213 0 l 1
 297 475 l 1
 126 475 l 1
 132 509 l 1
 303 509 l 1
 335 690 l 5
EndSplineSet
Validated: 1
EndChar

StartChar: daggerdbl
Encoding: 8225 8225 217
Width: 460
VWidth: 0
GlyphClass: 2
Flags: HMW
LayerCount: 2
Back
Fore
SplineSet
335 690 m 5
 370 690 l 1
 338 509 l 1
 508 509 l 1
 502 475 l 1
 332 475 l 1
 286 215 l 1
 456 215 l 1
 450 181 l 1
 280 181 l 1
 248 0 l 1
 213 0 l 1
 245 181 l 1
 74 181 l 1
 80 215 l 1
 251 215 l 1
 297 475 l 1
 126 475 l 1
 132 509 l 1
 303 509 l 1
 335 690 l 5
EndSplineSet
Validated: 1
EndChar

StartChar: perthousand
Encoding: 8240 8240 219
Width: 1200
GlyphClass: 2
Flags: HMW
LayerCount: 2
Back
Fore
SplineSet
1062 347 m 7
 1115 347 1172 321 1172 231 c 7
 1172 61 1029 -12 969 -12 c 7
 915 -12 858 14 858 104 c 7
 858 274 1001 347 1062 347 c 7
1004 30 m 7
 1064 30 1105 108 1105 206 c 7
 1105 275 1068 306 1027 306 c 7
 966 306 926 228 926 130 c 7
 926 61 962 30 1004 30 c 7
EndSplineSet
Refer: 5 37 N 1 0 0 1 0 0 2
Validated: 1
EndChar

StartChar: uni2031
Encoding: 8241 8241 220
Width: 1550
GlyphClass: 2
Flags: HMW
LayerCount: 2
Back
Fore
SplineSet
1412 347 m 3
 1465 347 1522 321 1522 231 c 3
 1522 61 1379 -12 1319 -12 c 3
 1265 -12 1208 14 1208 104 c 3
 1208 274 1351 347 1412 347 c 3
1354 30 m 3
 1414 30 1455 108 1455 206 c 3
 1455 275 1418 306 1377 306 c 3
 1316 306 1276 228 1276 130 c 3
 1276 61 1312 30 1354 30 c 3
EndSplineSet
Refer: 219 8240 N 1 0 0 1 0 0 2
Validated: 1
EndChar

StartChar: minute
Encoding: 8242 8242 221
Width: 205
VWidth: -3
GlyphClass: 2
Flags: HMW
LayerCount: 2
Back
Fore
SplineSet
216 683 m 1
 275 665 l 1
 279 640 l 1
 156 473 l 1
 125 492 l 1
 216 683 l 1
EndSplineSet
Validated: 1
EndChar

StartChar: guilsinglleft
Encoding: 8249 8249 222
Width: 292
VWidth: 0
GlyphClass: 2
Flags: HMW
LayerCount: 2
Back
Fore
SplineSet
157 232 m 1
 267 72 l 1
 231 44 l 1
 79 234 l 1
 297 420 l 1
 322 395 l 1
 157 232 l 1
EndSplineSet
Validated: 1
EndChar

StartChar: uni203E
Encoding: 8254 8254 224
Width: 500
VWidth: 0
GlyphClass: 2
Flags: HMW
LayerCount: 2
Back
Fore
SplineSet
159 904 m 1
 165 938 l 1
 665 938 l 1
 659 904 l 1
 159 904 l 1
EndSplineSet
Validated: 1
EndChar

StartChar: quotereversed
Encoding: 8219 8219 226
Width: 163
VWidth: 0
GlyphClass: 2
Flags: HMW
LayerCount: 2
Back
Fore
SplineSet
253 650 m 3
 253 609 214 585 186 585 c 1
 180 578 177 567 177 557 c 3
 177 528 182 497 220 467 c 1
 203 446 l 1
 153 489 134 528 134 586 c 3
 134 649 171 690 208 690 c 3
 239 690 253 673 253 650 c 3
EndSplineSet
Validated: 1
EndChar

StartChar: uni02BC
Encoding: 700 700 230
Width: 400
VWidth: 0
GlyphClass: 4
Flags: HMW
AnchorPoint: "bottom" 344 690 mark 0
AnchorPoint: "top" 174 600 mark 0
LayerCount: 2
Back
SplineSet
47 650 m 5
 57 648 l 5
 65 636 72 613 67 585 c 4
 57 526 14 482 -38 446 c 5
 -46 464 l 5
 -16 489 2 521 6 545 c 4
 10 567 5 586 -5 610 c 5
 47 650 l 5
EndSplineSet
Fore
Refer: 450 789 N 1 0 0 1 300 0 2
Validated: 1
EndChar

StartChar: uni0237
Encoding: 567 567 235
Width: 255
GlyphClass: 2
Flags: HMW
AnchorPoint: "bottom" 22 -230 basechar 0
AnchorPoint: "top" 180 425 basechar 0
LayerCount: 2
Back
Fore
SplineSet
242 437 m 1
 183 65 l 2
 167 -38 115 -113 89 -145 c 0
 60 -181 1 -230 -47 -230 c 3
 -67 -230 -81 -225 -92 -212 c 1
 -71 -152 l 1
 -58 -147 l 1
 -33 -163 -14 -164 16 -164 c 3
 60 -164 84 -105 106 32 c 2
 154 326 l 9
 154 385 l 1
 97 390 l 1
 95 414 l 1
 242 437 l 1
EndSplineSet
Validated: 1
EndChar

StartChar: Aogonek
Encoding: 260 260 334
Width: 630
VWidth: 0
GlyphClass: 2
Flags: HMW
LayerCount: 2
Back
Fore
SplineSet
406 650 m 1
 438 650 l 1
 566 36 l 1
 604 19 l 1
 604 0 l 1
 531 0 l 2
 440 0 351 -75 351 -135 c 3
 351 -173 374 -190 406 -190 c 3
 431 -190 448 -186 467 -177 c 1
 473 -196 l 1
 448 -212 411 -230 373 -230 c 3
 325 -230 292 -204 292 -151 c 3
 292 -97 349 -41 427 1 c 1
 481 44 l 1
 448 216 l 1
 235 216 l 1
 147 38 l 1
 217 20 l 1
 217 0 l 1
 27 0 l 1
 27 20 l 1
 92 37 l 1
 406 650 l 1
389 528 m 1
 253 253 l 1
 441 253 l 1
 389 528 l 1
EndSplineSet
Validated: 1
Colour: ff8f94
EndChar

StartChar: aogonek
Encoding: 261 261 335
Width: 486
GlyphClass: 2
UnlinkRmOvrlpSave: 1
Flags: HMW
LayerCount: 2
Back
Fore
SplineSet
394 5 m 17
 313 -24 264 -76 264 -136 c 3
 264 -174 287 -191 318 -191 c 3
 343 -191 360 -187 379 -178 c 1
 385 -197 l 1
 360 -213 323 -231 285 -231 c 3
 237 -231 202 -205 202 -152 c 3
 202 -98 263 -45 315 3 c 1
 394 5 l 17
EndSplineSet
Refer: 65 97 N 1 0 0 1 0 0 2
EndChar

StartChar: dcroat
Encoding: 273 273 337
Width: 495
GlyphClass: 2
UnlinkRmOvrlpSave: 1
Flags: HMW
LayerCount: 2
Back
Fore
SplineSet
546 524 m 1
 299 524 l 1
 299 540 l 1
 373 562 l 1
 553 562 l 1
 546 524 l 1
EndSplineSet
Refer: 68 100 N 1 0 0 1 0 0 2
EndChar

StartChar: Eogonek
Encoding: 280 280 338
Width: 563
GlyphClass: 2
UnlinkRmOvrlpSave: 1
Flags: HMW
LayerCount: 2
Back
Fore
SplineSet
501 0 m 17
 402 0 289 -76 289 -136 c 3
 289 -174 312 -191 343 -191 c 3
 368 -191 385 -187 404 -178 c 1
 410 -197 l 1
 385 -213 348 -231 310 -231 c 3
 262 -231 227 -205 227 -152 c 3
 227 -98 283 -42 378 0 c 1
 501 0 l 17
EndSplineSet
Refer: 37 69 N 1 0 0 1 0 0 2
EndChar

StartChar: eogonek
Encoding: 281 281 339
Width: 418
GlyphClass: 2
Flags: HMW
LayerCount: 2
Back
SplineSet
316 437 m 7
 367 437 397 399 397 352 c 7
 397 273 305 218 153 203 c 5
 153 233 l 5
 291 245 322 293 322 344 c 7
 322 369 302 391 280 391 c 7
 199 391 156 299 156 161 c 7
 156 71 194 45 240 45 c 7
 282 45 346 84 382 123 c 5
 403 101 l 5
 302 14 219 -76 219 -136 c 7
 219 -174 242 -191 273 -191 c 7
 298 -191 315 -187 334 -178 c 5
 340 -197 l 5
 315 -213 278 -231 240 -231 c 7
 192 -231 158 -207 158 -154 c 7
 158 -110 205 -50 253 -5 c 5
 238 -10 218 -12 201 -12 c 7
 142 -12 83 20 83 133 c 7
 83 290 209 437 316 437 c 7
EndSplineSet
Fore
SplineSet
316 437 m 3
 367 437 397 399 397 352 c 3
 397 274 306 219 157 203 c 1
 156 189 156 176 156 161 c 3
 156 71 194 45 240 45 c 3
 282 45 346 84 382 123 c 1
 403 101 l 1
 302 14 219 -76 219 -136 c 3
 219 -174 242 -191 273 -191 c 3
 298 -191 315 -187 334 -178 c 1
 340 -197 l 1
 315 -213 278 -231 240 -231 c 3
 192 -231 158 -207 158 -154 c 3
 158 -110 205 -50 253 -5 c 1
 238 -10 218 -12 201 -12 c 3
 142 -12 83 20 83 133 c 3
 83 290 209 437 316 437 c 3
280 391 m 7
 214 391 174 331 161 234 c 1
 293 247 322 294 322 344 c 3
 322 369 302 391 280 391 c 7
EndSplineSet
Validated: 1
Colour: ff8f94
EndChar

StartChar: ij
Encoding: 307 307 341
Width: 498
GlyphClass: 2
Flags: HMW
LayerCount: 2
Back
Fore
SplineSet
460 665 m 3
 487 665 510 643 510 616 c 3
 510 589 487 566 460 566 c 3
 433 566 411 589 411 616 c 3
 411 643 433 665 460 665 c 3
205 665 m 3
 232 665 255 643 255 616 c 3
 255 589 232 566 205 566 c 3
 178 566 156 589 156 616 c 3
 156 643 178 665 205 665 c 3
235 437 m 1
 180 122 l 2
 172 72 186 43 214 43 c 3
 255 43 337 156 396 331 c 1
 411 415 l 1
 483 437 l 1
 489 426 l 1
 450 249 l 1
 420 65 l 2
 403 -38 352 -113 326 -145 c 0
 297 -181 238 -230 190 -230 c 3
 170 -230 156 -225 145 -212 c 1
 166 -152 l 1
 179 -147 l 1
 204 -163 223 -164 253 -164 c 3
 297 -164 319 -105 343 32 c 2
 374 205 l 1
 313 58 241 -12 176 -12 c 3
 140 -12 91 18 106 103 c 2
 145 326 l 9
 145 385 l 1
 88 390 l 1
 86 414 l 1
 235 437 l 1
EndSplineSet
Validated: 33
Colour: ff8f94
EndChar

StartChar: Hbar
Encoding: 294 294 342
Width: 680
GlyphClass: 2
UnlinkRmOvrlpSave: 1
Flags: HMW
LayerCount: 2
Back
Fore
SplineSet
709 459 m 1
 121 459 l 1
 121 475 l 1
 195 497 l 1
 716 497 l 1
 709 459 l 1
EndSplineSet
Refer: 40 72 N 1 0 0 1 0 0 2
EndChar

StartChar: hbar
Encoding: 295 295 343
Width: 513
GlyphClass: 2
UnlinkRmOvrlpSave: 1
Flags: HMW
LayerCount: 2
Back
Fore
SplineSet
359 524 m 1
 112 524 l 1
 112 540 l 1
 186 562 l 1
 366 562 l 1
 359 524 l 1
EndSplineSet
Refer: 72 104 N 1 0 0 1 0 0 2
EndChar

StartChar: Iogonek
Encoding: 302 302 344
Width: 337
VWidth: 0
GlyphClass: 2
Flags: HMW
LayerCount: 2
Back
Fore
SplineSet
158 638 m 1
 381 638 l 1
 381 618 l 1
 303 593 l 1
 215 39 l 1
 257 20 l 1
 257 0 l 1
 133 0 84 -75 84 -135 c 3
 84 -173 107 -190 139 -190 c 3
 164 -190 181 -186 200 -177 c 1
 206 -196 l 1
 181 -212 144 -230 106 -230 c 3
 58 -230 25 -204 25 -151 c 3
 25 -97 60 -55 112 -13 c 1
 139 45 l 1
 227 596 l 1
 158 618 l 1
 158 638 l 1
EndSplineSet
Validated: 1
Colour: ff8f94
EndChar

StartChar: iogonek
Encoding: 303 303 345
Width: 268
GlyphClass: 2
Flags: HMW
LayerCount: 2
Back
Fore
SplineSet
235 437 m 1
 179 102 l 1
 179 43 l 1
 227 38 l 1
 229 14 l 1
 114 -7 50 -75 50 -135 c 3
 50 -173 73 -190 105 -190 c 3
 130 -190 147 -186 166 -177 c 1
 172 -196 l 1
 147 -212 110 -230 72 -230 c 3
 24 -230 -9 -204 -9 -151 c 3
 -9 -97 44 -39 96 3 c 1
 109 113 l 1
 147 326 l 9
 147 385 l 1
 90 390 l 1
 88 414 l 1
 235 437 l 1
205 665 m 3
 232 665 255 643 255 616 c 3
 255 589 232 566 205 566 c 3
 178 566 156 589 156 616 c 3
 156 643 178 665 205 665 c 3
EndSplineSet
Validated: 1
Colour: ff8f94
EndChar

StartChar: kgreenlandic
Encoding: 312 312 346
Width: 478
GlyphClass: 2
Flags: HMW
LayerCount: 2
Back
Fore
SplineSet
433 437 m 3
 452 437 473 431 482 423 c 1
 463 358 l 1
 455 354 l 1
 434 360 419 366 397 366 c 3
 370 366 348 331 272 234 c 1
 369 76 l 1
 406 43 l 1
 455 43 l 1
 457 19 l 1
 337 -9 l 1
 210 208 l 1
 240 240 l 1
 320 339 326 354 348 383 c 0
 371 413 398 437 433 437 c 3
240 437 m 1
 180 94 l 1
 168 9 l 1
 96 -12 l 1
 90 -1 l 1
 127 175 l 1
 151 326 l 9
 151 385 l 1
 94 390 l 1
 92 414 l 1
 240 437 l 1
EndSplineSet
Validated: 1
Colour: ff8f94
EndChar

StartChar: Lslash
Encoding: 321 321 347
Width: 545
GlyphClass: 2
UnlinkRmOvrlpSave: 1
Flags: HMW
LayerCount: 2
Back
Fore
SplineSet
338 381 m 1
 220 326 l 1
 99 262 l 1
 91 267 l 1
 97 301 l 1
 216 357 l 1
 335 420 l 1
 344 416 l 1
 338 381 l 1
EndSplineSet
Refer: 44 76 N 1 0 0 1 0 0 2
EndChar

StartChar: lslash
Encoding: 322 322 348
Width: 259
GlyphClass: 2
UnlinkRmOvrlpSave: 1
Flags: HMW
LayerCount: 2
Back
Fore
SplineSet
294 379 m 1
 181 326 l 1
 65 264 l 1
 57 269 l 1
 63 303 l 1
 177 357 l 1
 291 418 l 1
 300 414 l 1
 294 379 l 1
EndSplineSet
Refer: 76 108 N 1 0 0 1 0 0 2
EndChar

StartChar: Eng
Encoding: 330 330 349
Width: 656
GlyphClass: 2
Flags: HMW
LayerCount: 2
Back
Fore
SplineSet
140 638 m 1
 290 638 l 1
 527 128 l 1
 601 600 l 1
 525 617 l 1
 525 638 l 1
 715 638 l 1
 715 617 l 1
 650 600 l 1
 566 65 l 2
 549 -38 498 -113 472 -145 c 0
 443 -181 384 -230 336 -230 c 3
 316 -230 302 -225 291 -212 c 1
 312 -152 l 1
 325 -147 l 1
 350 -163 369 -164 399 -164 c 3
 443 -164 467 -105 489 32 c 1
 247 548 l 1
 165 39 l 1
 241 21 l 1
 241 0 l 1
 36 0 l 1
 36 21 l 1
 116 39 l 1
 205 598 l 1
 140 617 l 1
 140 638 l 1
EndSplineSet
Validated: 1
Colour: ff8f94
EndChar

StartChar: eng
Encoding: 331 331 350
Width: 752
GlyphClass: 2
Flags: HMW
LayerCount: 2
Back
Fore
SplineSet
242 437 m 1
 203 220 l 1
 264 367 336 437 401 437 c 7
 437 437 488 407 471 322 c 6
 423 65 l 2
 404 -38 353 -113 327 -145 c 0
 298 -181 239 -230 191 -230 c 3
 171 -230 157 -225 146 -212 c 1
 167 -152 l 1
 180 -147 l 1
 205 -163 218 -164 248 -164 c 3
 292 -164 317 -104 344 32 c 2
 397 303 l 6
 407 353 391 382 363 382 c 7
 322 382 240 269 181 94 c 1
 166 10 l 1
 94 -12 l 1
 88 -1 l 1
 127 175 l 1
 152 326 l 9
 152 385 l 1
 95 390 l 1
 93 414 l 1
 242 437 l 1
EndSplineSet
Validated: 33
Colour: ff8f94
EndChar

StartChar: Tbar
Encoding: 358 358 351
Width: 557
GlyphClass: 2
UnlinkRmOvrlpSave: 1
Flags: HMW
LayerCount: 2
Back
Fore
SplineSet
470 314 m 1
 182 314 l 1
 182 330 l 1
 253 352 l 1
 477 352 l 1
 470 314 l 1
EndSplineSet
Refer: 52 84 N 1 0 0 1 0 0 2
EndChar

StartChar: tbar
Encoding: 359 359 352
Width: 293
GlyphClass: 2
UnlinkRmOvrlpSave: 1
Flags: HMW
LayerCount: 2
Back
Fore
SplineSet
278 232 m 1
 59 232 l 1
 59 248 l 1
 123 270 l 1
 285 270 l 1
 278 232 l 1
EndSplineSet
Refer: 84 116 N 1 0 0 1 0 0 2
EndChar

StartChar: Uogonek
Encoding: 370 370 353
Width: 637
GlyphClass: 2
UnlinkRmOvrlpSave: 1
Flags: HMW
LayerCount: 2
Back
Fore
SplineSet
426 11 m 17
 330 -22 256 -80 256 -136 c 3
 256 -174 279 -191 310 -191 c 3
 335 -191 352 -187 371 -178 c 1
 377 -197 l 1
 352 -213 315 -231 277 -231 c 3
 229 -231 194 -205 194 -152 c 3
 194 -98 245 -42 335 0 c 1
 426 11 l 17
EndSplineSet
Refer: 53 85 N 1 0 0 1 0 0 2
EndChar

StartChar: uogonek
Encoding: 371 371 354
Width: 512
GlyphClass: 2
UnlinkRmOvrlpSave: 1
Flags: HMW
LayerCount: 2
Back
Fore
SplineSet
418 2 m 17
 337 -27 291 -76 291 -136 c 3
 291 -174 314 -191 345 -191 c 3
 370 -191 387 -187 406 -178 c 1
 412 -197 l 1
 387 -213 350 -231 312 -231 c 3
 264 -231 229 -205 229 -152 c 3
 229 -98 290 -45 342 3 c 1
 418 2 l 17
EndSplineSet
Refer: 85 117 N 1 0 0 1 0 0 2
EndChar

StartChar: uni2070
Encoding: 8304 8304 357
Width: 418
VWidth: -3
GlyphClass: 3
Flags: HMW
LayerCount: 2
Back
SplineSet
348 735 m 7
 316 735 301 726 277 707 c 5
 251 673 237 643 223 566 c 4
 202 447 217 384 282 384 c 7
 314 384 328 394 352 413 c 5
 378 447 389 476 403 553 c 4
 424 672 413 735 348 735 c 7
259 348 m 7
 187 348 126 405 151 546 c 4
 176 686 250 770 364 770 c 7
 436 770 499 714 474 573 c 4
 449 433 373 348 259 348 c 7
EndSplineSet
Fore
SplineSet
345 735 m 7
 313 735 296 728 272 709 c 5
 246 675 216 599 216 492 c 7
 216 425 238 383 278 383 c 7
 310 383 322 390 346 409 c 5
 372 443 407 519 407 626 c 7
 407 693 385 735 345 735 c 7
359 770 m 3
 436 770 479 715 479 634 c 3
 479 456 378 348 264 348 c 3
 187 348 144 403 144 484 c 3
 144 662 245 770 359 770 c 3
EndSplineSet
Validated: 1
Ligature2: "Opentypeshortcuts subtable" asciicircum zero
LCarets2: 1 0
EndChar

StartChar: uni2074
Encoding: 8308 8308 358
Width: 360
VWidth: -3
GlyphClass: 3
Flags: HMW
LayerCount: 2
Back
Fore
SplineSet
354 771 m 1
 404 768 l 1
 357 498 l 1
 428 498 l 1
 420 456 l 1
 349 456 l 1
 334 369 l 1
 288 348 l 1
 267 348 l 1
 286 456 l 1
 108 456 l 1
 104 475 l 1
 354 771 l 1
329 696 m 1
 165 498 l 1
 294 498 l 1
 329 696 l 1
EndSplineSet
Validated: 1
LCarets2: 1 0
Ligature2: "Opentypeshortcuts subtable" asciicircum four
EndChar

StartChar: uni2075
Encoding: 8309 8309 359
Width: 327
VWidth: 0
GlyphClass: 3
Flags: HMW
LayerCount: 2
Back
Fore
SplineSet
109 348 m 1
 114 380 l 1
 240 380 300 419 300 475 c 3
 300 495 292 513 264 526 c 0
 241 537 218 539 163 539 c 1
 153 555 l 1
 221 758 l 1
 376 758 l 1
 383 746 l 1
 365 700 l 1
 233 700 l 1
 199 592 l 1
 254 592 286 589 315 577 c 0
 355 560 368 533 368 498 c 3
 368 392 245 348 109 348 c 1
EndSplineSet
Validated: 1
Ligature2: "Opentypeshortcuts subtable" asciicircum five
LCarets2: 1 0
EndChar

StartChar: uni2076
Encoding: 8310 8310 360
Width: 355
VWidth: 0
GlyphClass: 3
Flags: HMW
LayerCount: 2
Back
SplineSet
196 516 m 1
 203 559 l 1
 227 578 268 594 310 594 c 3
 371 594 403 553 403 507 c 3
 403 413 315 348 238 348 c 3
 165 348 134 397 134 462 c 3
 134 591 235 712 389 770 c 9
 397 741 l 17
 278 690 200 622 200 473 c 3
 200 414 214 381 255 381 c 3
 289 381 337 415 337 482 c 3
 337 524 322 556 283 556 c 3
 250 556 222 542 196 516 c 1
EndSplineSet
Fore
SplineSet
283 556 m 7
 253 556 227 545 203 523 c 1
 201 507 200 491 200 473 c 3
 200 414 214 381 255 381 c 3
 289 381 337 415 337 482 c 3
 337 524 322 556 283 556 c 7
389 770 m 1
 397 741 l 1
 306 702 240 653 213 566 c 1
 238 582 273 594 310 594 c 7
 371 594 403 553 403 507 c 3
 403 413 315 348 238 348 c 3
 165 348 134 397 134 462 c 3
 134 591 235 712 389 770 c 1
EndSplineSet
Validated: 1
Ligature2: "Opentypeshortcuts subtable" asciicircum six
LCarets2: 1 0
EndChar

StartChar: uni2077
Encoding: 8311 8311 361
Width: 305
VWidth: 0
GlyphClass: 3
Flags: HMW
LayerCount: 2
Back
Fore
SplineSet
147 720 m 1
 164 758 l 1
 403 758 l 1
 415 739 l 1
 195 346 l 1
 141 379 l 1
 248 518 294 590 361 703 c 5
 154 703 l 1
 147 720 l 1
EndSplineSet
Validated: 1
Ligature2: "Opentypeshortcuts subtable" asciicircum seven
EndChar

StartChar: uni2078
Encoding: 8312 8312 362
Width: 379
VWidth: 109
GlyphClass: 3
Flags: HMW
LayerCount: 2
Back
SplineSet
315 570 m 9
 297 587 l 1
 336 607 370 648 370 688 c 3
 370 719 353 738 315 738 c 3
 285 738 247 714 247 666 c 3
 247 595 410 569 410 472 c 3
 410 403 333 348 247 348 c 3
 172 348 128 379 128 433 c 3
 128 502 211 550 259 570 c 9
 272 551 l 17
 220 526 187 488 187 443 c 3
 187 401 218 383 257 383 c 3
 298 383 343 406 343 456 c 3
 343 535 183 562 183 650 c 3
 183 716 250 770 326 770 c 3
 402 770 426 732 426 694 c 3
 426 630 345 584 315 570 c 9
EndSplineSet
Fore
SplineSet
266 548 m 1
 218 523 187 486 187 443 c 3
 187 401 218 383 257 383 c 3
 298 383 343 406 343 456 c 3
 343 495 305 521 266 548 c 1
326 770 m 3
 402 770 426 732 426 694 c 3
 426 639 366 597 330 578 c 1
 370 551 410 520 410 472 c 3
 410 403 333 348 247 348 c 3
 172 348 128 379 128 433 c 3
 128 495 196 540 244 563 c 1
 211 587 183 613 183 650 c 3
 183 716 250 770 326 770 c 3
315 738 m 7
 285 738 247 714 247 666 c 3
 247 637 274 615 307 593 c 1
 341 614 370 652 370 688 c 3
 370 719 353 738 315 738 c 7
EndSplineSet
Validated: 1
LCarets2: 1 0
Ligature2: "Opentypeshortcuts subtable" asciicircum eight
EndChar

StartChar: uni2079
Encoding: 8313 8313 363
Width: 355
VWidth: 0
GlyphClass: 3
Flags: HMW
LayerCount: 2
Back
SplineSet
361 604 m 5
 354 561 l 5
 330 542 291 528 249 528 c 7
 192 528 157 567 157 613 c 7
 157 707 242 770 319 770 c 7
 392 770 423 721 423 656 c 7
 423 527 322 406 168 348 c 13
 160 377 l 21
 279 428 357 496 357 645 c 7
 357 710 336 737 299 737 c 7
 265 737 223 705 223 638 c 7
 223 596 240 566 276 566 c 7
 309 566 335 578 361 604 c 5
EndSplineSet
Fore
SplineSet
299 737 m 3
 265 737 223 705 223 638 c 3
 223 596 240 566 276 566 c 3
 306 566 330 576 354 597 c 1
 356 612 357 628 357 645 c 3
 357 710 336 737 299 737 c 3
319 770 m 3
 392 770 423 721 423 656 c 3
 423 527 322 406 168 348 c 1
 160 377 l 1
 252 416 319 466 345 555 c 1
 321 539 286 528 249 528 c 3
 192 528 157 567 157 613 c 3
 157 707 242 770 319 770 c 3
EndSplineSet
Validated: 1
LCarets2: 1 0
Ligature2: "Opentypeshortcuts subtable" asciicircum nine
EndChar

StartChar: arrowright
Encoding: 8594 8594 365
Width: 600
VWidth: 0
GlyphClass: 2
Flags: HMW
LayerCount: 2
Back
Fore
SplineSet
83 217 m 5
 83 251 l 5
 541 248 l 5
 391 394 l 5
 418 420 l 5
 603 232 l 5
 418 44 l 5
 393 67 l 5
 542 220 l 5
 83 217 l 5
EndSplineSet
Validated: 1
EndChar

StartChar: arrowboth
Encoding: 8596 8596 366
Width: 760
VWidth: 0
GlyphClass: 2
Flags: HMW
LayerCount: 2
Back
Fore
SplineSet
700 216 m 1
 143 216 l 1
 293 72 l 1
 266 46 l 1
 81 234 l 1
 266 422 l 1
 291 399 l 1
 142 248 l 1
 699 248 l 1
 549 392 l 1
 576 418 l 1
 761 230 l 1
 576 42 l 1
 551 65 l 1
 700 216 l 1
EndSplineSet
Validated: 1
EndChar

StartChar: uni21C0
Encoding: 8640 8640 368
Width: 600
VWidth: 0
GlyphClass: 2
Flags: HMW
LayerCount: 2
Back
Fore
SplineSet
596 217 m 1
 83 217 l 1
 83 251 l 1
 534 248 l 1
 390 394 l 1
 418 420 l 1
 603 232 l 1
 596 217 l 1
EndSplineSet
Validated: 1
EndChar

StartChar: uni21C4
Encoding: 8644 8644 369
Width: 600
VWidth: 0
GlyphClass: 2
Flags: HMW
LayerCount: 2
Back
Fore
SplineSet
253 311 m 1
 278 288 l 1
 139 145 l 1
 598 148 l 1
 598 114 l 1
 140 117 l 1
 280 -19 l 1
 253 -45 l 1
 78 133 l 1
 253 311 l 1
433 530 m 1
 608 352 l 1
 433 174 l 1
 408 197 l 1
 547 340 l 1
 88 337 l 1
 88 371 l 1
 546 368 l 1
 406 504 l 1
 433 530 l 1
EndSplineSet
Validated: 1
EndChar

StartChar: uni21C6
Encoding: 8646 8646 370
Width: 600
VWidth: 0
GlyphClass: 2
Flags: HMW
LayerCount: 2
Back
Fore
SplineSet
433 307 m 1
 608 129 l 1
 433 -49 l 1
 408 -26 l 1
 547 117 l 1
 88 114 l 1
 88 148 l 1
 546 145 l 1
 406 281 l 1
 433 307 l 1
253 534 m 1
 278 511 l 1
 139 368 l 1
 598 371 l 1
 598 337 l 1
 140 340 l 1
 280 204 l 1
 253 178 l 1
 78 356 l 1
 253 534 l 1
EndSplineSet
Validated: 1
EndChar

StartChar: uni21CB
Encoding: 8651 8651 371
Width: 600
VWidth: 0
GlyphClass: 2
Flags: HMW
LayerCount: 2
Back
Fore
SplineSet
81 196 m 1
 594 196 l 1
 601 181 l 1
 416 -7 l 1
 388 19 l 1
 532 165 l 1
 81 162 l 1
 81 196 l 1
266 470 m 1
 294 444 l 1
 150 298 l 1
 601 301 l 1
 601 267 l 1
 88 267 l 1
 81 282 l 1
 266 470 l 1
EndSplineSet
Validated: 1
EndChar

StartChar: arrowdblright
Encoding: 8658 8658 373
Width: 600
VWidth: 0
GlyphClass: 2
Flags: HMW
LayerCount: 2
Back
SplineSet
87 167 m 5
 87 201 l 5
 539 198 l 5
 519 170 l 5
 87 167 l 5
87 264 m 5
 87 298 l 5
 519 295 l 5
 539 267 l 5
 87 264 l 5
558 232 m 5
 395 394 l 5
 422 420 l 5
 607 232 l 5
 422 44 l 5
 397 67 l 5
 558 232 l 5
EndSplineSet
Fore
SplineSet
422 420 m 5
 607 232 l 1
 422 44 l 1
 397 67 l 1
 497 170 l 1
 87 167 l 1
 87 201 l 1
 525 198 l 1
 558 232 l 1
 523 267 l 1
 87 264 l 1
 87 298 l 1
 494 295 l 1
 395 394 l 1
 422 420 l 5
EndSplineSet
Validated: 1
EndChar

StartChar: infinity
Encoding: 8734 8734 378
Width: 708
VWidth: 0
GlyphClass: 2
Flags: HMW
LayerCount: 2
Back
SplineSet
541 85 m 7
 369 85 366 342 225 342 c 7
 168 342 147 297 147 250 c 7
 147 190 175 123 251 123 c 7
 301 123 345 177 375 227 c 5
 392 202 l 21
 370 162 308 84 232 84 c 7
 156 84 92 129 92 229 c 7
 92 331 172 388 251 388 c 7
 423 388 426 131 567 131 c 7
 624 131 645 176 645 223 c 7
 645 283 616 350 540 350 c 7
 490 350 447 296 417 246 c 5
 400 271 l 21
 422 311 483 389 559 389 c 7
 635 389 700 344 700 244 c 7
 700 142 620 85 541 85 c 7
EndSplineSet
Fore
SplineSet
540 350 m 3
 493 350 453 303 423 256 c 1
 462 193 498 131 567 131 c 3
 624 131 645 176 645 223 c 3
 645 283 616 350 540 350 c 3
251 388 m 7
 327 388 370 338 406 282 c 1
 432 324 489 389 559 389 c 3
 635 389 700 344 700 244 c 3
 700 142 620 85 541 85 c 3
 465 85 422 135 386 191 c 1
 360 149 302 84 232 84 c 3
 156 84 92 129 92 229 c 3
 92 331 172 388 251 388 c 7
225 342 m 3
 168 342 147 297 147 250 c 3
 147 190 175 123 251 123 c 3
 298 123 339 170 369 217 c 1
 330 280 294 342 225 342 c 3
EndSplineSet
Validated: 1
EndChar

StartChar: angle
Encoding: 8736 8736 379
Width: 480
VWidth: 0
GlyphClass: 2
Flags: HMW
LayerCount: 2
Back
Fore
SplineSet
353 437 m 1
 382 412 l 1
 92 34 l 1
 438 34 l 1
 438 0 l 1
 58 0 l 1
 40 22 l 1
 353 437 l 1
EndSplineSet
Validated: 1
EndChar

StartChar: congruent
Encoding: 8773 8773 381
Width: 460
VWidth: 0
GlyphClass: 2
Flags: HMW
LayerCount: 2
Back
Fore
SplineSet
66 147 m 1
 72 181 l 1
 448 181 l 1
 442 147 l 1
 66 147 l 1
89 269 m 1
 95 303 l 1
 471 303 l 1
 465 269 l 1
 89 269 l 1
EndSplineSet
Refer: 384 8764 N 1 0 0 1 31 170 2
Validated: 1
EndChar

StartChar: uni2247
Encoding: 8775 8775 382
Width: 460
VWidth: 0
GlyphClass: 2
UnlinkRmOvrlpSave: 1
Flags: HMW
LayerCount: 2
Back
Fore
SplineSet
332 498 m 1
 363 488 l 1
 219 42 l 1
 188 52 l 1
 332 498 l 1
EndSplineSet
Refer: 381 8773 N 1 0 0 1 0 0 2
EndChar

StartChar: uni2249
Encoding: 8777 8777 383
Width: 460
VWidth: 0
GlyphClass: 2
UnlinkRmOvrlpSave: 1
Flags: HMW
LayerCount: 2
Back
Fore
SplineSet
326 437 m 1
 357 427 l 1
 225 42 l 1
 194 52 l 1
 326 437 l 1
EndSplineSet
Refer: 380 8776 N 1 0 0 1 0 0 2
EndChar

StartChar: similar
Encoding: 8764 8764 384
Width: 460
VWidth: 0
GlyphClass: 2
Flags: HMW
LayerCount: 2
Back
Fore
SplineSet
454 266 m 1
 469 244 l 1
 416 201 381 195 342 195 c 3
 285 195 237 236 186 236 c 3
 157 236 123 226 88 198 c 1
 73 220 l 1
 126 263 161 269 200 269 c 3
 257 269 305 228 356 228 c 3
 385 228 419 238 454 266 c 1
EndSplineSet
Validated: 1
EndChar

StartChar: logicalor
Encoding: 8744 8744 386
Width: 460
VWidth: -3
GlyphClass: 2
Flags: HMW
LayerCount: 2
Back
Fore
SplineSet
411 413 m 5
 246 -12 l 1
 218 -12 l 1
 50 412 l 1
 59 425 l 1
 104 425 l 1
 241 62 l 1
 374 430 l 5
 405 430 l 5
 411 413 l 5
EndSplineSet
Validated: 1
EndChar

StartChar: union
Encoding: 8746 8746 388
Width: 436
VWidth: 0
GlyphClass: 2
Flags: HMW
LayerCount: 2
Back
Fore
SplineSet
376 426 m 1
 376 169 l 2
 376 60 332 -12 217 -12 c 3
 104 -12 60 44 60 166 c 2
 60 417 l 1
 72 427 l 1
 109 424 l 1
 109 166 l 2
 109 66 145 23 219 23 c 3
 294 23 339 54 339 168 c 2
 339 419 l 1
 351 429 l 1
 376 426 l 1
EndSplineSet
Validated: 1
EndChar

StartChar: integral
Encoding: 8747 8747 389
Width: 296
GlyphClass: 2
Flags: HMW
LayerCount: 2
Back
Fore
SplineSet
411 770 m 3
 433 770 454 761 470 746 c 1
 445 688 l 1
 432 683 l 1
 407 699 381 709 349 709 c 3
 319 709 292 690 277 599 c 2
 182 11 l 2
 164 -99 110 -158 65 -190 c 0
 28 -216 1 -230 -34 -230 c 3
 -56 -230 -77 -221 -93 -206 c 1
 -68 -148 l 1
 -55 -143 l 1
 -30 -159 -4 -169 28 -169 c 3
 58 -169 85 -150 100 -59 c 2
 195 529 l 2
 213 639 267 698 312 730 c 0
 349 756 376 770 411 770 c 3
EndSplineSet
Validated: 1
EndChar

StartChar: notequal
Encoding: 8800 8800 390
Width: 460
VWidth: 0
GlyphClass: 2
UnlinkRmOvrlpSave: 1
Flags: HMW
LayerCount: 2
Back
Fore
SplineSet
322 437 m 1
 353 427 l 1
 227 42 l 1
 196 52 l 1
 322 437 l 1
EndSplineSet
Refer: 29 61 N 1 0 0 1 0 0 2
EndChar

StartChar: lessequal
Encoding: 8804 8804 391
Width: 330
VWidth: 0
GlyphClass: 2
Flags: HMW
LayerCount: 2
Back
Fore
SplineSet
321 390 m 1
 336 358 l 1
 138 230 l 1
 289 104 l 1
 265 74 l 1
 81 232 l 1
 321 390 l 1
46 34 m 1
 289 34 l 1
 283 0 l 1
 40 0 l 1
 46 34 l 1
EndSplineSet
Validated: 1
EndChar

StartChar: greaterequal
Encoding: 8805 8805 392
Width: 330
VWidth: 0
GlyphClass: 2
Flags: HMW
LayerCount: 2
Back
Fore
SplineSet
140 390 m 1
 324 232 l 1
 84 74 l 1
 69 106 l 1
 267 234 l 1
 115 360 l 1
 140 390 l 1
46 34 m 1
 289 34 l 1
 283 0 l 1
 40 0 l 1
 46 34 l 1
EndSplineSet
Validated: 1
EndChar

StartChar: uni239B
Encoding: 9115 9115 393
Width: 390
VWidth: 0
GlyphClass: 2
Flags: HMW
LayerCount: 2
Back
Fore
SplineSet
80 -230 m 1
 80 265 254 649 371 770 c 1
 390 752 l 1
 292 628 135 284 135 -230 c 1
 80 -230 l 1
EndSplineSet
Validated: 1
EndChar

StartChar: uni239D
Encoding: 9117 9117 395
Width: 390
VWidth: 0
GlyphClass: 2
Flags: HMW
LayerCount: 2
Back
Fore
SplineSet
80 770 m 1
 135 770 l 5
 135 256 292 -88 390 -212 c 1
 371 -230 l 1
 254 -109 80 275 80 770 c 1
EndSplineSet
Validated: 1
EndChar

StartChar: uni23A1
Encoding: 9121 9121 399
Width: 310
VWidth: 0
GlyphClass: 2
Flags: HMW
LayerCount: 2
Back
Fore
SplineSet
110 -230 m 1
 110 770 l 1
 242 770 l 1
 242 747 l 1
 165 734 l 1
 165 -230 l 1
 110 -230 l 1
EndSplineSet
Validated: 1
EndChar

StartChar: uni23A2
Encoding: 9122 9122 400
Width: 310
VWidth: 0
GlyphClass: 2
Flags: HMW
LayerCount: 2
Back
Fore
SplineSet
165 770 m 5
 165 -230 l 25
 110 -230 l 1
 110 770 l 5
 165 770 l 5
EndSplineSet
Validated: 1
EndChar

StartChar: uni23A3
Encoding: 9123 9123 401
Width: 310
VWidth: 0
GlyphClass: 2
Flags: HMW
LayerCount: 2
Back
Fore
SplineSet
110 770 m 1
 165 770 l 1
 165 -194 l 1
 242 -207 l 1
 242 -230 l 1
 110 -230 l 1
 110 770 l 1
EndSplineSet
Validated: 1
EndChar

StartChar: uni23A7
Encoding: 9127 9127 405
Width: 404
VWidth: 0
GlyphClass: 2
Flags: HMW
LayerCount: 2
Back
Fore
SplineSet
174 -230 m 9
 174 479 l 2
 174 674 311 758 399 770 c 1
 404 749 l 1
 345 731 230 690 230 489 c 2
 230 -230 l 17
 174 -230 l 9
EndSplineSet
Validated: 1
EndChar

StartChar: uni23A8
Encoding: 9128 9128 406
Width: 404
VWidth: 0
GlyphClass: 2
Flags: HMW
LayerCount: 2
Back
Fore
SplineSet
174 -230 m 13
 174 128 l 6
 174 214 161 250 102 259 c 13
 102 279 l 21
 161 288 174 324 174 410 c 6
 174 770 l 21
 230 770 l 13
 230 434 l 6
 230 320 206 285 164 269 c 5
 206 253 230 218 230 104 c 6
 230 -230 l 21
 174 -230 l 13
EndSplineSet
Validated: 1
EndChar

StartChar: uni23A9
Encoding: 9129 9129 407
Width: 404
VWidth: 0
GlyphClass: 2
Flags: HMW
LayerCount: 2
Back
Fore
SplineSet
174 770 m 17
 230 770 l 9
 230 51 l 2
 230 -150 345 -191 404 -209 c 1
 399 -230 l 1
 311 -218 174 -134 174 61 c 2
 174 770 l 17
EndSplineSet
Validated: 1
EndChar

StartChar: uni23AA
Encoding: 9130 9130 408
Width: 404
VWidth: 0
GlyphClass: 2
Flags: HMW
LayerCount: 2
Back
Fore
SplineSet
230 770 m 1
 230 -230 l 25
 174 -230 l 1
 174 770 l 1
 230 770 l 1
EndSplineSet
Validated: 1
EndChar

StartChar: uni27E8
Encoding: 10216 10216 412
Width: 280
VWidth: 0
GlyphClass: 2
Flags: HMW
LayerCount: 2
Back
Fore
SplineSet
102 272 m 1
 311 686 l 1
 345 675 l 1
 141 272 l 1
 203 -132 l 1
 165 -143 l 1
 102 272 l 1
EndSplineSet
Validated: 1
EndChar

StartChar: fraction
Encoding: 8260 8260 418
Width: 0
VWidth: 0
GlyphClass: 2
Flags: HMW
LayerCount: 2
Back
Fore
SplineSet
452 770 m 1
 481 747 l 1
 -241 -119 l 1
 -270 -96 l 1
 452 770 l 1
EndSplineSet
Validated: 1
EndChar

StartChar: theta
Encoding: 952 952 419
Width: 530
VWidth: 0
GlyphClass: 2
Flags: HMW
LayerCount: 2
Back
SplineSet
216 339 m 5
 431 339 l 5
 431 301 l 5
 173 301 l 5
 173 324 l 5
 216 339 l 5
341 593 m 7
 236 593 180 427 180 227 c 7
 180 101 194 33 267 33 c 7
 372 33 428 199 428 399 c 7
 428 525 414 593 341 593 c 7
364 638 m 7
 474 638 508 560 508 415 c 7
 508 189 388 -12 244 -12 c 7
 134 -12 100 66 100 211 c 7
 100 437 221 638 364 638 c 7
EndSplineSet
Fore
SplineSet
364 638 m 3
 474 638 508 560 508 415 c 3
 508 189 388 -12 244 -12 c 3
 134 -12 100 66 100 211 c 3
 100 437 221 638 364 638 c 3
185 328 m 1
 216 339 l 1
 426 339 l 1
 427 359 428 379 428 399 c 3
 428 525 414 593 341 593 c 3
 254 593 201 480 185 328 c 1
183 301 m 1
 181 277 180 252 180 227 c 3
 180 101 194 33 267 33 c 3
 354 33 407 148 423 301 c 1
 183 301 l 1
EndSplineSet
Validated: 1
EndChar

StartChar: pi
Encoding: 960 960 420
Width: 540
VWidth: 0
GlyphClass: 2
Flags: HMW
LayerCount: 2
Back
Fore
SplineSet
536 435 m 1
 552 423 l 1
 535 364 l 1
 452 364 l 1
 410 114 l 1
 410 76 l 2
 410 45 430 38 483 38 c 1
 485 14 l 1
 361 -9 l 1
 342 3 l 6
 326 13 325 34 335 94 c 6
 382 364 l 1
 273 367 l 1
 253 157 223 70 187 -5 c 1
 106 6 l 1
 101 26 l 1
 130 61 210 144 223 297 c 2
 229 367 l 1
 171 367 149 352 118 335 c 1
 100 360 l 1
 143 401 182 425 248 425 c 2
 501 425 l 1
 536 435 l 1
EndSplineSet
Validated: 33
EndChar

StartChar: sigma
Encoding: 963 963 421
Width: 480
VWidth: -3
GlyphClass: 2
Flags: HMW
LayerCount: 2
Back
SplineSet
320 437 m 3
 379 437 443 405 443 292 c 3
 443 79 273 -12 206 -12 c 3
 146 -12 83 20 83 133 c 3
 83 346 252 437 320 437 c 3
245 37 m 3
 323 37 368 131 368 260 c 3
 368 346 327 389 281 389 c 3
 202 389 158 294 158 165 c 3
 158 79 198 37 245 37 c 3
EndSplineSet
Fore
SplineSet
534 364 m 1
 432 364 l 1
 451 332 456 307 456 271 c 3
 456 128 332 -12 201 -12 c 3
 142 -12 81 25 81 134 c 3
 81 298 197 425 331 425 c 2
 500 425 l 1
 535 435 l 1
 551 423 l 1
 534 364 l 1
384 262 m 3
 384 304 374 343 338 364 c 1
 253 364 l 1
 178 345 156 255 156 177 c 3
 156 70 199 38 248 38 c 3
 327 38 384 131 384 262 c 3
EndSplineSet
Validated: 1
EndChar

StartChar: product
Encoding: 8719 8719 422
Width: 800
VWidth: 0
GlyphClass: 2
Flags: HMW
LayerCount: 2
Back
Fore
SplineSet
745 770 m 1
 745 750 l 1
 671 728 l 1
 671 -191 l 1
 745 -210 l 1
 745 -230 l 1
 516 -230 l 1
 516 -210 l 1
 595 -185 l 1
 595 728 l 1
 205 728 l 1
 205 -191 l 1
 284 -210 l 1
 284 -230 l 1
 55 -230 l 1
 55 -210 l 1
 129 -185 l 1
 129 728 l 1
 55 750 l 1
 55 770 l 1
 745 770 l 1
EndSplineSet
Validated: 1
EndChar

StartChar: phi1
Encoding: 981 981 423
Width: 484
VWidth: -3
GlyphClass: 2
Flags: HMW
LayerCount: 2
Back
SplineSet
310 431 m 5
 389 431 467 385 467 277 c 7
 467 85 309 -12 204 -12 c 7
 121 -12 46 37 46 150 c 7
 46 256 107 361 218 410 c 5
 231 389 l 5
 144 338 121 269 121 172 c 7
 121 86 168 32 245 32 c 7
 333 32 392 112 392 255 c 7
 392 341 355 398 293 402 c 5
 310 431 l 5
325 682 m 5
 363 676 l 5
 203 -230 l 5
 165 -224 l 5
 325 682 l 5
EndSplineSet
Fore
SplineSet
325 682 m 1
 363 676 l 1
 320 431 l 1
 396 427 467 381 467 277 c 3
 467 107 343 12 242 -8 c 1
 203 -230 l 1
 165 -224 l 1
 202 -12 l 1
 120 -11 46 38 46 150 c 3
 46 256 107 361 218 410 c 1
 231 389 l 1
 144 338 121 269 121 172 c 3
 121 100 154 50 211 36 c 1
 325 682 l 1
314 398 m 1
 249 32 l 1
 335 35 392 114 392 255 c 3
 392 331 363 384 314 398 c 1
EndSplineSet
Validated: 1
EndChar

StartChar: zero.oldstyleproportional
Encoding: 63280 63280 424
Width: 451
GlyphClass: 3
Flags: HMW
LayerCount: 2
Back
Fore
SplineSet
281 389 m 3
 202 389 148 299 148 165 c 3
 148 79 188 37 245 37 c 3
 323 37 378 126 378 260 c 3
 378 346 337 389 281 389 c 3
320 437 m 3
 379 437 453 405 453 292 c 3
 453 74 278 -12 206 -12 c 3
 146 -12 73 20 73 133 c 3
 73 351 247 437 320 437 c 3
EndSplineSet
Validated: 1
Ligature2: "Oldstyleclosingtag subtable" zero.onumflag less slash o n u m greater
EndChar

StartChar: one.oldstyleproportional
Encoding: 63281 63281 425
Width: 360
VWidth: -3
GlyphClass: 3
Flags: HMW
LayerCount: 2
Back
Fore
SplineSet
129 425 m 1
 359 425 l 1
 359 407 l 1
 278 382 l 9
 219 35 l 17
 300 18 l 1
 300 0 l 1
 60 0 l 1
 60 18 l 1
 146 43 l 9
 205 390 l 17
 129 407 l 1
 129 425 l 1
EndSplineSet
Validated: 1
LCarets2: 7 0 0 0 0 0 0 0
Ligature2: "Oldstyleclosingtag subtable" one.onumflag less slash o n u m greater
EndChar

StartChar: two.oldstyleproportional
Encoding: 63282 63282 426
Width: 427
VWidth: 0
GlyphClass: 3
Flags: HMW
LayerCount: 2
Back
Fore
SplineSet
179 75 m 1
 297 58 l 2
 340 52 351 58 374 83 c 1
 396 79 l 1
 375 -12 l 1
 330 -12 l 1
 164 10 l 6
 132 15 116 18 73 -12 c 5
 52 20 l 1
 226 135 318 237 318 319 c 3
 318 368 292 388 258 388 c 3
 216 388 191 380 147 355 c 1
 136 380 l 1
 195 417 235 437 295 437 c 3
 367 437 400 399 400 332 c 3
 400 241 285 154 179 75 c 1
EndSplineSet
Validated: 33
LCarets2: 7 0 0 0 0 0 0 0
Ligature2: "Oldstyleclosingtag subtable" two.onumflag less slash o n u m greater
EndChar

StartChar: three.oldstyleproportional
Encoding: 63283 63283 427
Width: 427
VWidth: 0
GlyphClass: 3
Flags: HMW
LayerCount: 2
Back
Fore
SplineSet
257 145 m 1
 286 144 304 141 325 132 c 0
 373 111 393 75 393 25 c 3
 393 -85 268 -230 124 -230 c 3
 71 -230 24 -206 8 -193 c 9
 37 -136 l 1
 80 -160 116 -173 168 -173 c 3
 232 -173 323 -127 323 -9 c 7
 323 31 309 61 276 79 c 0
 245 96 212 98 167 99 c 1
 168 133 l 1
 272 175 317 230 317 306 c 3
 317 359 286 388 245 388 c 3
 203 388 178 380 134 355 c 1
 123 380 l 1
 182 417 222 437 283 437 c 3
 354 437 397 394 397 327 c 3
 397 248 327 177 257 145 c 1
EndSplineSet
Validated: 1
Ligature2: "Oldstyleclosingtag subtable" three.onumflag less slash o n u m greater
EndChar

StartChar: four.oldstyleproportional
Encoding: 63284 63284 428
Width: 514
VWidth: -3
GlyphClass: 3
Flags: HMW
LayerCount: 2
Back
Fore
SplineSet
400 453 m 5
 421 453 l 1
 415 417 l 1
 104 74 l 1
 318 74 l 1
 351 259 l 1
 410 287 l 1
 432 287 l 1
 394 74 l 1
 492 74 l 1
 483 23 l 1
 385 23 l 1
 356 -140 l 1
 300 -166 l 1
 276 -166 l 1
 309 23 l 1
 43 23 l 1
 38 44 l 1
 400 453 l 5
EndSplineSet
Validated: 1
LCarets2: 7 0 0 0 0 0 0 0
Ligature2: "Oldstyleclosingtag subtable" four.onumflag less slash o n u m greater
EndChar

StartChar: five.oldstyleproportional
Encoding: 63285 63285 429
Width: 423
VWidth: 0
GlyphClass: 3
Flags: HMW
LayerCount: 2
Back
Fore
SplineSet
177 425 m 5
 403 425 l 1
 408 412 l 1
 389 361 l 1
 196 361 l 1
 136 167 l 1
 215 167 251 163 292 145 c 0
 349 120 367 81 367 37 c 3
 367 -103 241 -230 100 -230 c 3
 47 -230 0 -206 -16 -193 c 9
 13 -136 l 1
 56 -160 92 -173 144 -173 c 3
 215 -173 298 -125 298 -3 c 3
 298 17 290 62 251 83 c 0
 218 101 163 104 85 104 c 1
 77 113 l 1
 177 425 l 5
EndSplineSet
Validated: 1
Ligature2: "Oldstyleclosingtag subtable" five.onumflag less slash o n u m greater
EndChar

StartChar: six.oldstyleproportional
Encoding: 63286 63286 430
Width: 475
VWidth: 0
GlyphClass: 3
Flags: HMW
LayerCount: 2
Back
SplineSet
177 250 m 1
 178 289 l 1
 220 333 277 367 341 367 c 3
 432 367 462 299 462 244 c 3
 462 87 336 -12 233 -12 c 3
 149 -12 93 52 93 140 c 3
 93 402 287 566 463 638 c 1
 474 610 l 1
 328 539 171 425 171 158 c 3
 171 85 204 36 262 36 c 3
 323 36 389 87 389 207 c 3
 389 273 359 315 303 315 c 3
 257 315 221 292 177 250 c 1
EndSplineSet
Fore
SplineSet
303 315 m 3
 257 315 222 292 178 251 c 1
 173 222 171 191 171 158 c 3
 171 85 204 36 262 36 c 3
 323 36 389 87 389 207 c 3
 389 273 359 315 303 315 c 3
463 638 m 1
 474 610 l 1
 357 553 232 468 188 299 c 1
 229 338 282 367 341 367 c 3
 432 367 462 299 462 244 c 3
 462 87 336 -12 233 -12 c 3
 149 -12 93 52 93 140 c 3
 93 402 287 566 463 638 c 1
EndSplineSet
Validated: 1
LCarets2: 7 0 0 0 0 0 0 0
Ligature2: "Oldstyleclosingtag subtable" six.onumflag less slash o n u m greater
EndChar

StartChar: seven.oldstyleproportional
Encoding: 63287 63287 431
Width: 380
VWidth: 0
GlyphClass: 3
Flags: HMW
LayerCount: 2
Back
Fore
SplineSet
97 378 m 1
 115 425 l 1
 419 425 l 1
 432 406 l 1
 88 -218 l 9
 36 -182 l 17
 155 -2 264 179 370 361 c 1
 104 361 l 1
 97 378 l 1
EndSplineSet
Validated: 1
Ligature2: "Oldstyleclosingtag subtable" seven.onumflag less slash o n u m greater
EndChar

StartChar: eight.oldstyleproportional
Encoding: 63288 63288 432
Width: 489
VWidth: 0
GlyphClass: 3
Flags: HMW
LayerCount: 2
Back
SplineSet
281 306 m 17
 205 265 148 219 148 122 c 3
 148 61 187 27 249 27 c 3
 315 27 381 73 381 155 c 3
 381 274 166 312 166 454 c 3
 166 551 250 638 357 638 c 3
 445 638 485 592 485 530 c 3
 485 430 388 359 338 334 c 9
 316 351 l 1
 380 386 423 450 423 524 c 3
 423 577 395 603 344 603 c 3
 291 603 236 552 236 482 c 3
 236 347 460 325 460 187 c 3
 460 73 355 -12 237 -12 c 3
 145 -12 82 28 82 109 c 3
 82 216 188 290 264 325 c 9
 281 306 l 17
EndSplineSet
Fore
SplineSet
344 603 m 7
 291 603 236 552 236 482 c 3
 236 425 276 388 322 354 c 1
 383 390 423 452 423 524 c 3
 423 577 395 603 344 603 c 7
357 638 m 3
 445 638 485 592 485 530 c 3
 485 435 397 366 345 338 c 1
 402 298 460 257 460 187 c 3
 460 73 355 -12 237 -12 c 3
 145 -12 82 28 82 109 c 3
 82 208 173 279 247 317 c 1
 203 354 166 395 166 454 c 3
 166 551 250 638 357 638 c 3
269 299 m 1
 199 260 148 214 148 122 c 3
 148 61 187 27 249 27 c 3
 315 27 381 73 381 155 c 3
 381 216 324 256 269 299 c 1
EndSplineSet
Validated: 1
LCarets2: 7 0 0 0 0 0 0 0
Ligature2: "Oldstyleclosingtag subtable" eight.onumflag less slash o n u m greater
EndChar

StartChar: nine.oldstyleproportional
Encoding: 63289 63289 433
Width: 462
VWidth: 0
GlyphClass: 3
Flags: HMW
LayerCount: 2
Back
SplineSet
374 173 m 5
 374 134 l 5
 332 93 282 69 218 69 c 7
 127 69 90 137 90 203 c 7
 90 346 214 437 317 437 c 7
 401 437 459 370 459 282 c 7
 459 20 246 -158 70 -230 c 5
 59 -202 l 5
 205 -131 381 0 381 267 c 7
 381 340 348 391 290 391 c 7
 226 391 159 352 159 226 c 7
 159 160 198 120 254 120 c 7
 300 120 334 133 374 173 c 5
EndSplineSet
Fore
SplineSet
373 172 m 1
 378 202 381 233 381 267 c 3
 381 340 348 391 290 391 c 3
 226 391 159 352 159 226 c 3
 159 160 198 120 254 120 c 3
 300 120 333 133 373 172 c 1
362 123 m 1
 323 89 276 69 218 69 c 3
 127 69 90 137 90 203 c 3
 90 346 214 437 317 437 c 3
 401 437 459 370 459 282 c 3
 459 20 246 -158 70 -230 c 1
 59 -202 l 1
 176 -145 312 -50 362 123 c 1
EndSplineSet
Validated: 1
LCarets2: 7 0 0 0 0 0 0 0
Ligature2: "Oldstyleclosingtag subtable" nine.onumflag less slash o n u m greater
EndChar

StartChar: Pi
Encoding: 928 928 434
Width: 640
VWidth: 0
GlyphClass: 2
Flags: HMW
LayerCount: 2
Back
Fore
SplineSet
157 638 m 1
 679 638 l 1
 679 618 l 1
 601 593 l 1
 513 39 l 1
 582 20 l 1
 582 0 l 1
 359 0 l 1
 359 20 l 1
 437 45 l 1
 525 596 l 1
 302 596 l 1
 214 39 l 1
 283 20 l 1
 283 0 l 1
 60 0 l 1
 60 20 l 1
 138 45 l 1
 226 599 l 1
 157 618 l 1
 157 638 l 1
EndSplineSet
Validated: 1
EndChar

StartChar: Sigma
Encoding: 931 931 435
Width: 560
VWidth: 0
GlyphClass: 2
Flags: HMW
LayerCount: 2
Back
Fore
SplineSet
325 328 m 1
 156 618 l 1
 164 638 l 1
 568 638 l 1
 551 510 l 1
 518 507 l 1
 509 596 l 9
 252 596 l 1
 393 355 l 1
 390 335 l 1
 149 64 l 9
 463 64 l 17
 507 133 l 1
 537 128 l 1
 501 0 l 1
 61 0 l 1
 55 20 l 1
 325 328 l 1
EndSplineSet
Validated: 1
EndChar

StartChar: uni20D1
Encoding: 8401 8401 436
Width: 0
GlyphClass: 4
Flags: HMW
AnchorPoint: "top" -231 425 mark 0
LayerCount: 2
Back
Fore
SplineSet
-55 543 m 1
 -372 543 l 1
 -372 577 l 1
 -117 574 l 1
 -202 664 l 1
 -174 690 l 1
 -48 558 l 1
 -55 543 l 1
EndSplineSet
Validated: 1
EndChar

StartChar: uni23B7
Encoding: 9143 9143 437
Width: 1000
GlyphClass: 2
Flags: HMW
LayerCount: 2
Back
Fore
SplineSet
-102 -375 m 1
 -109 -358 l 1
 -5 -291 l 1
 10 -298 l 1
 273 -1087 l 1
 1000 938 l 1
 1030 928 l 1
 276 -1183 l 1
 237 -1183 l 1
 -44 -358 l 1
 -102 -375 l 1
EndSplineSet
Validated: 1
EndChar

StartChar: uni0302
Encoding: 770 770 439
Width: 0
VWidth: -3
GlyphClass: 4
Flags: HMW
AnchorPoint: "top" -83 425 mark 0
LayerCount: 2
Back
Fore
SplineSet
-45 587 m 5
 -175 507 l 5
 -192 532 l 5
 -29 652 l 5
 72 531 l 5
 46 509 l 5
 -45 587 l 5
EndSplineSet
Validated: 1
EndChar

StartChar: uni0304
Encoding: 772 772 441
Width: 0
VWidth: -3
GlyphClass: 4
Flags: HMW
AnchorPoint: "top" -143 425 mark 0
LayerCount: 2
Back
Fore
SplineSet
-230 569 m 1
 -224 597 l 1
 -22 597 l 1
 -14 590 l 1
 -20 562 l 1
 -221 562 l 1
 -230 569 l 1
EndSplineSet
Validated: 1
EndChar

StartChar: acutecomb
Encoding: 769 769 442
Width: 0
VWidth: -3
GlyphClass: 4
Flags: HMW
AnchorPoint: "top" -90 425 mark 0
LayerCount: 2
Back
Fore
SplineSet
-4 657 m 1
 36 625 l 1
 32 605 l 1
 -112 508 l 1
 -131 533 l 1
 -4 657 l 1
EndSplineSet
Validated: 1
EndChar

StartChar: gravecomb
Encoding: 768 768 443
Width: 0
VWidth: -3
GlyphClass: 4
Flags: HMW
AnchorPoint: "top" -90 425 mark 0
LayerCount: 2
Back
Fore
SplineSet
-138 669 m 1
 -61 510 l 1
 -88 493 l 1
 -190 633 l 1
 -186 654 l 1
 -138 669 l 1
EndSplineSet
Validated: 1
EndChar

StartChar: uni0306
Encoding: 774 774 444
Width: 0
VWidth: -3
GlyphClass: 4
Flags: HMW
AnchorPoint: "top" -120 425 mark 0
LayerCount: 2
Back
Fore
SplineSet
-98 578 m 3
 -45 578 -10 604 20 645 c 1
 44 634 l 1
 13 574 -40 529 -107 529 c 3
 -174 529 -210 574 -220 634 c 1
 -192 645 l 1
 -177 604 -151 578 -98 578 c 3
EndSplineSet
Validated: 1
EndChar

StartChar: uni0307
Encoding: 775 775 445
Width: 0
VWidth: -3
GlyphClass: 4
Flags: HMW
AnchorPoint: "top" -107 425 mark 0
LayerCount: 2
Back
Fore
SplineSet
-139 581 m 3
 -139 603 -120 622 -98 622 c 3
 -76 622 -57 603 -57 581 c 3
 -57 559 -76 540 -98 540 c 3
 -120 540 -139 559 -139 581 c 3
EndSplineSet
Validated: 1
EndChar

StartChar: uni030A
Encoding: 778 778 446
Width: 0
VWidth: -3
GlyphClass: 4
Flags: HMW
AnchorPoint: "top" -123 425 mark 0
LayerCount: 2
Back
Fore
SplineSet
-97 649 m 3
 -130 649 -149 623 -149 588 c 3
 -149 552 -131 521 -101 521 c 3
 -70 521 -48 544 -48 582 c 3
 -48 619 -64 649 -97 649 c 3
-5 588 m 3
 -5 536 -48 495 -102 495 c 3
 -156 495 -191 528 -191 582 c 3
 -191 632 -149 675 -95 675 c 3
 -41 675 -5 642 -5 588 c 3
EndSplineSet
Validated: 1
EndChar

StartChar: tildecomb
Encoding: 771 771 447
Width: 0
VWidth: -3
GlyphClass: 4
Flags: HMW
AnchorPoint: "top" -112 425 mark 0
LayerCount: 2
Back
Fore
SplineSet
39 623 m 1
 58 601 l 1
 7 550 -27 543 -55 543 c 3
 -98 543 -124 574 -163 574 c 3
 -182 574 -204 568 -233 542 c 1
 -252 564 l 1
 -201 615 -167 622 -139 622 c 3
 -96 622 -70 591 -31 591 c 3
 -12 591 10 597 39 623 c 1
EndSplineSet
Validated: 1
EndChar

StartChar: uni030B
Encoding: 779 779 448
Width: 0
VWidth: -3
GlyphClass: 4
Flags: HMW
AnchorPoint: "top" -150 425 mark 0
LayerCount: 2
Back
Fore
SplineSet
1 663 m 1
 46 639 l 1
 46 618 l 1
 -79 498 l 1
 -102 519 l 1
 1 663 l 1
-142 663 m 1
 -97 639 l 1
 -97 618 l 1
 -222 498 l 1
 -245 519 l 1
 -142 663 l 1
EndSplineSet
Validated: 1
EndChar

StartChar: uni0315
Encoding: 789 789 450
Width: 0
VWidth: 0
GlyphClass: 4
Flags: HMW
AnchorPoint: "bottom" 44 690 mark 0
AnchorPoint: "top" -126 600 mark 0
LayerCount: 2
Back
Fore
SplineSet
47 650 m 1
 57 648 l 1
 65 636 69 626 69 598 c 3
 69 544 20 482 -38 446 c 1
 -46 464 l 1
 -16 489 7 527 7 555 c 3
 7 577 3 588 -5 610 c 1
 47 650 l 1
EndSplineSet
Validated: 1
EndChar

StartChar: uni0327
Encoding: 807 807 453
Width: 0
VWidth: 0
GlyphClass: 4
Flags: HMW
AnchorPoint: "bottom" -198 0 mark 0
LayerCount: 2
Back
Fore
SplineSet
-278 -204 m 1
 -225 -196 -193 -175 -193 -153 c 3
 -193 -129 -213 -106 -263 -97 c 1
 -273 -79 l 1
 -212 0 l 1
 -181 0 l 1
 -223 -54 l 1
 -156 -71 -135 -96 -135 -137 c 3
 -135 -188 -203 -223 -272 -230 c 1
 -278 -204 l 1
EndSplineSet
Validated: 1
EndChar

StartChar: uni0250
Encoding: 592 592 454
Width: 470
VWidth: -3
GlyphClass: 2
Flags: HMW
LayerCount: 2
Back
Fore
SplineSet
193 156 m 2
 178.463867188 69.08984375 203 39 267 39 c 3
 314 39 353 64 388 89 c 1
 407 64 l 1
 362 27 300 -12 229 -12 c 3
 149 -12 98.5107421875 27.087890625 118 136 c 2
 152 326 l 1
 152 385 l 1
 95 390 l 1
 93 414 l 1
 240 437 l 1
 218 303 l 1
 272 398 329.622070312 437 377 437 c 3
 445 437 464 398 464 346 c 3
 464 287 403 224 324 209 c 0
 252.673828125 195.130859375 229.434570312 194.01953125 198.868164062 191.083984375 c 1
 193 156 l 2
205 223 m 1
 236 226 263 230 296 236 c 0
 356 246 385 289 385 336 c 3
 385 371 376 384 350 384 c 3
 300 384 241 316 205 223 c 1
EndSplineSet
Validated: 33
EndChar

StartChar: uni0252
Encoding: 594 594 456
Width: 487
GlyphClass: 2
Flags: HMW
LayerCount: 2
Back
Fore
SplineSet
231 437 m 1
 198 248 l 1
 253 366 327 437 387 437 c 3
 426 437 479 416 479 314 c 3
 479 162 377 -12 175 -12 c 3
 146 -12 110 -3 87 5 c 1
 141 326 l 1
 141 385 l 1
 83 390 l 1
 81 414 l 1
 231 437 l 1
348 381 m 3
 306 381 225 268 173 94 c 1
 165 49 l 1
 180 43 216 36 248 36 c 3
 369 36 404 163 404 289 c 3
 404 361 376 381 348 381 c 3
EndSplineSet
Validated: 1
EndChar

StartChar: uni0253
Encoding: 595 595 457
Width: 487
GlyphClass: 2
Flags: HMW
LayerCount: 2
Back
Fore
SplineSet
378 687 m 3
 400 687 421 678 437 663 c 1
 412 605 l 1
 399 600 l 1
 374 616 348 626 316 626 c 3
 286 626 259.601677035 606.896727076 244 516 c 2
 198 248 l 1
 253 366 327 437 387 437 c 3
 426 437 479 416 479 314 c 3
 479 162 377 -12 175 -12 c 3
 146 -12 110 -3 87 5 c 1
 162 446 l 2
 180.687595574 555.883061977 233.821294801 615.252801752 279 647 c 0
 316 673 343 687 378 687 c 3
348 381 m 3
 306 381 225 268 173 94 c 1
 165 49 l 1
 180 43 216 36 248 36 c 3
 369 36 404 163 404 289 c 3
 404 361 376 381 348 381 c 3
EndSplineSet
Validated: 1
EndChar

StartChar: uni0254
Encoding: 596 596 458
Width: 400
GlyphClass: 2
Flags: HMW
LayerCount: 2
Back
Fore
SplineSet
130 -12 m 3
 91 -12 60 3 43 19 c 1
 68 77 l 1
 81 82 l 1
 103 68 140 48 184 48 c 3
 290 48 327 152 327 260 c 3
 327 346 286 380 240 380 c 3
 198 380 142 341 106 302 c 1
 85 324 l 1
 142 384 212 437 279 437 c 3
 338 437 397 405 397 292 c 3
 397 140 256 -12 130 -12 c 3
EndSplineSet
Validated: 1
EndChar

StartChar: uni0256
Encoding: 598 598 460
Width: 495
GlyphClass: 2
Flags: HMW
LayerCount: 2
Back
Fore
SplineSet
517 690 m 1
 385 -93 l 2
 375.56640625 -149.095703125 377 -174 410 -174 c 3
 428 -174 460 -158 479 -145 c 1
 489 -164 l 1
 454 -197 395 -230 354 -230 c 3
 315 -230 289.358398438 -210.884765625 307 -113 c 2
 358 176 l 1
 303 58 230 -12 170 -12 c 3
 131 -12 78 9 78 111 c 3
 78 257 202 437 372 437 c 3
 385 437 395 435 404 432 c 1
 427 579 l 25
 427 638 l 1
 369 643 l 1
 367 667 l 1
 517 690 l 1
324 389 m 3
 196 389 153 262 153 136 c 3
 153 64 181 45 209 45 c 3
 251 45 334 158 386 331 c 1
 393 370 l 1
 378 381 349 389 324 389 c 3
EndSplineSet
Validated: 33
EndChar

StartChar: uni0257
Encoding: 599 599 461
Width: 495
GlyphClass: 2
Flags: HMW
LayerCount: 2
Back
Fore
SplineSet
406 446 m 18
 421.74 556.18 477.821294801 615.252801752 523 647 c 0
 560 673 587 687 622 687 c 3
 644 687 665 678 681 663 c 1
 656 605 l 1
 643 600 l 1
 618 616 592 626 560 626 c 3
 530 626 503.204434657 606.798314008 488 516 c 2
 417 92 l 1
 417 43 l 1
 475 38 l 1
 477 14 l 1
 329 -9 l 1
 327 4 l 1
 358 176 l 1
 303 58 230 -12 170 -12 c 3
 131 -12 78 9 78 111 c 3
 78 257 202 437 372 437 c 3
 385 437 395 435 404 432 c 1
 406 446 l 18
324 389 m 3
 196 389 153 262 153 136 c 3
 153 64 181 45 209 45 c 3
 251 45 334 158 386 331 c 1
 393 370 l 1
 378 381 349 389 324 389 c 3
EndSplineSet
Validated: 1
EndChar

StartChar: uni0258
Encoding: 600 600 462
Width: 410
GlyphClass: 2
Flags: HMW
LayerCount: 2
Back
SplineSet
87 252 m 3
 87 332.591796875 199 437 289 437 c 3
 348 437 407 405 407 292 c 3
 407 140 266 -12 140 -12 c 3
 101 -12 70 3 53 19 c 1
 78 77 l 1
 91 82 l 1
 113 68 150 48 194 48 c 3
 300 48 337 152 337 260 c 3
 337 346 296 380 250 380 c 3
 184.96875 380 153 342 153 281 c 3
 153 251 176 228 204 228 c 3
 264 228 301 262 337 304 c 9
 358 280 l 17
 304 213 238 181 166 181 c 3
 116.745117188 181 87 210.975585938 87 252 c 3
EndSplineSet
Fore
SplineSet
289 437 m 3
 348 437 407 405 407 292 c 3
 407 140 266 -12 140 -12 c 3
 101 -12 70 3 53 19 c 1
 78 77 l 1
 91 82 l 1
 113 68 150 48 194 48 c 3
 299 48 336 149 337 256 c 1
 287 205 229 181 166 181 c 3
 117 181 87 211 87 252 c 3
 87 333 199 437 289 437 c 3
250 380 m 3
 185 380 153 342 153 281 c 3
 153 251 176 228 204 228 c 3
 262 228 299 260 334 300 c 1
 323 357 288 380 250 380 c 3
EndSplineSet
Validated: 1
EndChar

StartChar: uni0259
Encoding: 601 601 463
Width: 411
GlyphClass: 2
Flags: HMW
LayerCount: 2
Back
SplineSet
165 -12 m 7
 95 -12 69 26 69 73 c 7
 69 152 181 221 333 236 c 5
 333 206 l 5
 195 194 146 142 146 81 c 7
 146 53 164 34 206 34 c 7
 287 34 330 126 330 264 c 7
 330 354 297 380 251 380 c 7
 209 380 153 347 117 308 c 5
 96 330 l 5
 153 390 223 437 290 437 c 7
 349 437 403 405 403 292 c 7
 403 132 288 -12 165 -12 c 7
EndSplineSet
Fore
SplineSet
290 437 m 3
 349 437 403 405 403 292 c 3
 403 132 288 -12 165 -12 c 3
 95 -12 69 26 69 73 c 3
 69 151 179 220 329 236 c 1
 329 245 330 254 330 264 c 3
 330 354 297 380 251 380 c 3
 209 380 153 347 117 308 c 1
 96 330 l 1
 153 390 223 437 290 437 c 3
327 205 m 1
 193 192 146 141 146 81 c 3
 146 53 164 34 206 34 c 3
 275 34 316 100 327 205 c 1
EndSplineSet
Validated: 1
EndChar

StartChar: uni025B
Encoding: 603 603 465
Width: 400
GlyphClass: 2
Flags: HMW
LayerCount: 2
Back
Fore
SplineSet
328 437 m 3
 357 437 375 431 392 415 c 1
 367 357 l 1
 354 352 l 1
 332 366 296 381 262 381 c 3
 215.66796875 381 193 359.3984375 193 325 c 3
 193 288.41015625 232 263 282 242 c 9
 283 221 l 17
 181 176 155 141 155 99 c 3
 155 65 178 45 222 45 c 3
 279 45 333 84 369 123 c 1
 390 101 l 1
 333 39 263 -12 181 -12 c 3
 117 -12 73 10 73 65 c 3
 73 127 125 172 194 208 c 1
 167 220 132 241 132 280 c 3
 132 359 235 437 328 437 c 3
EndSplineSet
Validated: 1
EndChar

StartChar: uni025C
Encoding: 604 604 466
Width: 400
GlyphClass: 2
Flags: HMW
LayerCount: 2
Back
Fore
SplineSet
297 437 m 3
 346 437 387 414 387 360 c 3
 387 308 359 273 290 237 c 1
 317 225 362 195 362 156 c 3
 362 75 265 -12 160 -12 c 3
 124 -12 61 3 44 19 c 1
 69 77 l 1
 82 82 l 1
 108 65 183 44 226 44 c 3
 272 44 290 77 290 111 c 3
 290 148 247 187 197 208 c 9
 196 229 l 17
 272 253 307 300 307 335 c 3
 307 369 290 387 253 387 c 3
 216 387 175 362 139 331 c 1
 118 353 l 1
 173 405 233 437 297 437 c 3
EndSplineSet
Validated: 1
EndChar

StartChar: circle
Encoding: 9675 9675 545
Width: 500
VWidth: 0
GlyphClass: 2
Flags: HMW
LayerCount: 2
Back
Fore
SplineSet
97 212 m 3
 97 106 181 22 287 22 c 3
 393 22 477 106 477 212 c 3
 477 318 392 403 286 403 c 3
 180 403 97 318 97 212 c 3
62 212 m 3
 62 337 162 437 287 437 c 3
 412 437 512 337 512 212 c 3
 512 87 411 -12 286 -12 c 3
 161 -12 62 87 62 212 c 3
EndSplineSet
Validated: 1
EndChar

StartChar: uni25CC
Encoding: 9676 9676 546
Width: 500
VWidth: 0
GlyphClass: 2
Flags: HMW
LayerCount: 2
Back
Fore
SplineSet
90 321 m 1
 110 358 141 389 178 409 c 1
 191 378 l 1
 162 361 139 336 122 307 c 1
 90 321 l 1
62 212 m 3
 62 234 65 255 71 275 c 1
 103 261 l 1
 99 245 97 229 97 212 c 3
 97 195 99 179 103 163 c 1
 71 149 l 1
 65 169 62 190 62 212 c 3
90 103 m 1
 122 117 l 1
 139 88 163 64 192 47 c 1
 178 15 l 1
 141 35 110 66 90 103 c 1
225 -4 m 1
 238 28 l 1
 254 24 270 22 287 22 c 3
 304 22 320 24 336 28 c 1
 349 -3 l 1
 329 -9 308 -12 286 -12 c 3
 265 -12 244 -9 225 -4 c 1
382 47 m 1
 411 64 435 88 452 117 c 1
 484 103 l 1
 463 66 432 36 395 16 c 1
 382 47 l 1
471 163 m 1
 475 179 477 195 477 212 c 3
 477 229 475 245 471 261 c 1
 503 275 l 1
 509 255 512 234 512 212 c 3
 512 190 509 169 503 149 c 1
 471 163 l 1
382 377 m 1
 396 409 l 1
 433 389 464 358 484 321 c 1
 452 307 l 1
 435 336 411 360 382 377 c 1
224 428 m 1
 244 434 265 437 287 437 c 3
 309 437 330 434 350 428 c 1
 336 396 l 1
 320 400 303 403 286 403 c 3
 269 403 253 401 238 397 c 1
 224 428 l 1
EndSplineSet
Validated: 1
EndChar

StartChar: Euro
Encoding: 8364 8364 547
Width: 561
VWidth: 0
GlyphClass: 2
Flags: HMW
LayerCount: 2
Back
SplineSet
394 220 m 1
 39 220 l 1
 42 236 l 1
 103 258 l 1
 401 258 l 1
 394 220 l 1
415 338 m 1
 60 338 l 1
 63 354 l 1
 124 376 l 1
 422 376 l 1
 415 338 l 1
437 566 m 3
 263 566 195 402 195 220 c 3
 195 120 258 33 371 33 c 3
 420 33 453 38 480 46 c 1
 504 138 l 1
 548 135 l 1
 524 25 l 1
 490 10 433 -12 341 -12 c 3
 178 -12 113 104 113 220 c 3
 113 421 248 606 456 606 c 3
 528 606 575 592 604 578 c 1
 582 457 l 1
 545 462 l 1
 547 545 l 1
 525 556 483 566 437 566 c 3
EndSplineSet
Fore
SplineSet
456 606 m 7
 528 606 575 592 604 578 c 1
 582 457 l 1
 545 462 l 1
 547 545 l 1
 525 556 483 566 437 566 c 3
 316 566 246 486 215 376 c 1
 422 376 l 1
 415 338 l 1
 206 338 l 1
 201 312 197 286 196 258 c 1
 401 258 l 1
 394 220 l 1
 195 220 l 1
 195 120 258 33 371 33 c 3
 420 33 453 38 480 46 c 1
 504 138 l 1
 548 135 l 1
 524 25 l 1
 490 10 433 -12 341 -12 c 3
 178 -12 113 104 113 220 c 1
 39 220 l 1
 42 236 l 1
 103 258 l 1
 115 258 l 1
 117 285 122 312 129 338 c 1
 60 338 l 1
 63 354 l 1
 124 376 l 1
 141 376 l 1
 191 507 304 606 456 606 c 7
EndSplineSet
Validated: 1
EndChar

StartChar: percent.oldstyleproportional
Encoding: 63042 63042 548
Width: 586
GlyphClass: 3
Flags: HMW
LayerCount: 2
Back
Fore
SplineSet
234 437 m 3
 269 437 309 421 309 364 c 3
 309 257 213 212 176 212 c 3
 141 212 101 227 101 284 c 3
 101 391 197 437 234 437 c 3
196 242 m 3
 233 242 253 286 253 348 c 3
 253 388 237 407 214 407 c 3
 177 407 157 362 157 300 c 3
 157 260 172 242 196 242 c 3
460 437 m 1
 492 414 l 1
 201 -12 l 1
 169 11 l 1
 460 437 l 1
485 213 m 3
 520 213 560 197 560 140 c 3
 560 33 464 -12 427 -12 c 3
 392 -12 352 3 352 60 c 3
 352 167 448 213 485 213 c 3
447 18 m 3
 484 18 504 62 504 124 c 3
 504 164 488 183 465 183 c 3
 428 183 408 138 408 76 c 3
 408 36 423 18 447 18 c 3
EndSplineSet
Validated: 1
Ligature2: "Oldstyleclosingtag subtable" percent.onumflag less slash o n u m greater
EndChar

StartChar: dollar.oldstyleproportional
Encoding: 63268 63268 549
Width: 342
GlyphClass: 3
UnlinkRmOvrlpSave: 1
Flags: HMW
LayerCount: 2
Back
Fore
SplineSet
250 506 m 1
 277 503 l 1
 170 -98 l 1
 143 -95 l 1
 250 506 l 1
EndSplineSet
Refer: 83 115 N 1 0 0 1 0 0 2
Ligature2: "Oldstyleclosingtag subtable" dollar.onumflag less slash o n u m greater
EndChar

StartChar: startonum
Encoding: 57381 57381 550
Width: 500
VWidth: 0
GlyphClass: 3
Flags: HMW
LayerCount: 2
Back
Fore
SplineSet
60 -130 m 2
 360 -130 l 2
 415 -130 460 -175 460 -230 c 3
 460 -285 415 -330 360 -330 c 2
 60 -330 l 2
 5 -330 -40 -285 -40 -230 c 3
 -40 -175 5 -130 60 -130 c 2
83.00390625 -187.642578125 m 3
 60.8046875 -187.642578125 46.64453125 -203.72265625 46.64453125 -230.961914062 c 3
 46.64453125 -258.682617188 60.8046875 -274.162109375 83.00390625 -274.162109375 c 3
 105.204101562 -274.162109375 119.244140625 -258.202148438 119.244140625 -230.841796875 c 3
 119.244140625 -203.122070312 105.204101562 -187.642578125 83.00390625 -187.642578125 c 3
83.00390625 -199.762695312 m 3
 95.484375 -199.762695312 102.564453125 -208.642578125 102.564453125 -230.841796875 c 3
 102.564453125 -253.282226562 95.3642578125 -262.041992188 83.00390625 -262.041992188 c 3
 70.884765625 -262.041992188 63.32421875 -253.282226562 63.32421875 -230.961914062 c 3
 63.32421875 -208.642578125 70.64453125 -199.762695312 83.00390625 -199.762695312 c 3
195.373046875 -189.442382812 m 1
 180.97265625 -189.442382812 l 1
 180.97265625 -228.322265625 l 2
 180.97265625 -240.08203125 182.413085938 -252.08203125 183.1328125 -256.642578125 c 2
 154.212890625 -189.442382812 l 1
 134.172851562 -189.442382812 l 1
 134.172851562 -272.362304688 l 1
 148.573242188 -272.362304688 l 1
 148.573242188 -238.522460938 l 2
 148.573242188 -223.162109375 147.252929688 -212.602539062 146.413085938 -205.282226562 c 2
 174.853515625 -272.362304688 l 1
 195.373046875 -272.362304688 l 1
 195.373046875 -189.442382812 l 1
275.278320312 -189.442382812 m 1
 259.318359375 -189.442382812 l 1
 259.318359375 -244.40234375 l 2
 259.318359375 -256.041992188 254.637695312 -261.801757812 244.318359375 -261.801757812 c 0
 234.118164062 -261.801757812 229.438476562 -256.041992188 229.438476562 -244.40234375 c 2
 229.438476562 -189.442382812 l 1
 213.59765625 -189.442382812 l 1
 213.59765625 -245.2421875 l 2
 213.59765625 -262.282226562 223.91796875 -274.162109375 244.318359375 -274.162109375 c 0
 264.59765625 -274.162109375 275.278320312 -261.921875 275.278320312 -245.2421875 c 2
 275.278320312 -189.442382812 l 1
364.96484375 -189.442382812 m 1
 344.325195312 -189.442382812 l 1
 330.405273438 -247.522460938 l 1
 315.64453125 -189.442382812 l 1
 295.245117188 -189.442382812 l 1
 288.64453125 -272.362304688 l 1
 304.004882812 -272.362304688 l 1
 306.044921875 -238.162109375 l 2
 306.764648438 -226.282226562 307.004882812 -214.881835938 306.525390625 -203.72265625 c 2
 322.60546875 -263.362304688 l 1
 337.60546875 -263.362304688 l 1
 352.724609375 -203.841796875 l 2
 352.485351562 -212.602539062 353.084960938 -225.442382812 353.8046875 -237.682617188 c 2
 355.96484375 -272.362304688 l 1
 371.4453125 -272.362304688 l 1
 364.96484375 -189.442382812 l 1
0 0 m 1
 500 0 l 1
 500 -34 l 1
 0 -34 l 1
 0 0 l 1
EndSplineSet
Validated: 33
Ligature2: "Opentypeshortcuts subtable" less o n u m greater
LCarets2: 5 0 0 0 0 0
EndChar

StartChar: tagwarning
Encoding: 57382 57382 568
Width: 500
VWidth: 0
GlyphClass: 2
Flags: HMW
LayerCount: 2
Back
Fore
SplineSet
60 -130 m 2
 360 -130 l 2
 415.400390625 -130 460 -174.599609375 460 -230 c 3
 460 -285.400390625 415.400390625 -330 360 -330 c 2
 60 -330 l 2
 4.599609375 -330 -40 -285.400390625 -40 -230 c 3
 -40 -174.599609375 4.599609375 -130 60 -130 c 2
99.169921875 -204.5625 m 1
 52.9697265625 -225.322265625 l 1
 52.9697265625 -239.602539062 l 1
 99.169921875 -260.2421875 l 1
 104.209960938 -248.602539062 l 1
 65.689453125 -232.40234375 l 1
 104.209960938 -215.961914062 l 1
 99.169921875 -204.5625 l 1
147.741210938 -174.921875 m 1
 119.661132812 -282.202148438 l 1
 132.981445312 -285.322265625 l 1
 160.94140625 -177.921875 l 1
 147.741210938 -174.921875 l 1
178.459960938 -254.72265625 m 3
 173.059570312 -254.72265625 168.859375 -259.041992188 168.859375 -264.442382812 c 3
 168.859375 -269.72265625 173.059570312 -274.162109375 178.459960938 -274.162109375 c 3
 183.979492188 -274.162109375 188.299804688 -269.72265625 188.299804688 -264.442382812 c 3
 188.299804688 -259.041992188 183.979492188 -254.72265625 178.459960938 -254.72265625 c 3
207.979492188 -254.72265625 m 3
 202.580078125 -254.72265625 198.379882812 -259.041992188 198.379882812 -264.442382812 c 3
 198.379882812 -269.72265625 202.580078125 -274.162109375 207.979492188 -274.162109375 c 3
 213.5 -274.162109375 217.69921875 -269.72265625 217.69921875 -264.442382812 c 3
 217.69921875 -259.041992188 213.5 -254.72265625 207.979492188 -254.72265625 c 3
237.5 -254.72265625 m 3
 232.099609375 -254.72265625 227.899414062 -259.041992188 227.899414062 -264.442382812 c 3
 227.899414062 -269.72265625 232.099609375 -274.162109375 237.5 -274.162109375 c 3
 243.01953125 -274.162109375 247.219726562 -269.72265625 247.219726562 -264.442382812 c 3
 247.219726562 -259.041992188 243.01953125 -254.72265625 237.5 -254.72265625 c 3
262.150390625 -204.5625 m 1
 257.110351562 -215.961914062 l 1
 295.510742188 -232.40234375 l 1
 257.110351562 -248.602539062 l 1
 262.150390625 -260.2421875 l 1
 308.350585938 -239.602539062 l 1
 308.350585938 -225.322265625 l 1
 262.150390625 -204.5625 l 1
365.801757812 -189.442382812 m 1
 349.2421875 -189.442382812 l 1
 351.162109375 -243.08203125 l 1
 364.001953125 -243.08203125 l 1
 365.801757812 -189.442382812 l 1
357.642578125 -254.72265625 m 3
 352.2421875 -254.72265625 347.921875 -259.041992188 347.921875 -264.442382812 c 3
 347.921875 -269.72265625 352.2421875 -274.162109375 357.642578125 -274.162109375 c 3
 363.162109375 -274.162109375 367.362304688 -269.72265625 367.362304688 -264.442382812 c 3
 367.362304688 -259.041992188 363.162109375 -254.72265625 357.642578125 -254.72265625 c 3
EndSplineSet
Refer: 546 9676 N 1 0 0 1 0 0 2
Validated: 1
EndChar

StartChar: a.smcp
Encoding: 65558 -1 581
Width: 474
VWidth: -3
GlyphClass: 3
Flags: W
HStem: 0 18<-7 18.6667 134.733 159 460 485> 146 38<185 325> 448 20G<287.889 349.128>
LayerCount: 2
Back
Fore
SplineSet
299 468 m 1
 345 468 l 1
 435 32 l 1
 485 18 l 1
 485 0 l 1
 305 0 l 1
 305 18 l 1
 352 34 l 1
 332 146 l 1
 166 146 l 1
 107 33 l 1
 159 18 l 1
 159 0 l 1
 -7 0 l 1
 -7 18 l 1
 59 36 l 1
 299 468 l 1
289 382 m 1
 185 184 l 1
 325 184 l 1
 289 382 l 1
EndSplineSet
Validated: 1
LCarets2: 5 0 0 0 0 0
Ligature2: "SmallCapsClose subtable" a.smcpflag less slash s c greater
EndChar

StartChar: b.smcp
Encoding: 65559 -1 582
Width: 496
VWidth: 0
GlyphClass: 3
Flags: HMW
LayerCount: 2
Back
Fore
SplineSet
238 250 m 1
 297 250 l 2
 367 250 406 292.032226562 406 355 c 3
 406 413.953125 387 425 329 425 c 2
 269 425 l 1
 200 36 l 1
 263 36 l 2
 352 36 391 60.978515625 391 142 c 3
 391 196.85546875 368 219 293 219 c 2
 233 219 l 1
 238 250 l 1
391 244 m 1
 438 235 472 208.1328125 472 145 c 3
 472 43.5732421875 403 -1.59204083889e-14 273 0 c 2
 53 0 l 1
 53 18 l 1
 128 43 l 1
 195 425 l 1
 132 443 l 1
 132 461 l 1
 342 461 l 2
 447 461 487 444.297851562 487 362 c 3
 487 301 431 257 391 244 c 1
EndSplineSet
Validated: 1
LCarets2: 5 0 0 0 0 0
Ligature2: "SmallCapsClose subtable" b.smcpflag less slash s c greater
EndChar

StartChar: c.smcp
Encoding: 65560 -1 583
Width: 479
VWidth: -3
GlyphClass: 3
Flags: HMW
AnchorPoint: "top" 330 461 basechar 0
AnchorPoint: "bottom" 261 0 basechar 0
LayerCount: 2
Back
Fore
SplineSet
270 -12 m 3
 191 -12 82 24.5537109375 82 179 c 3
 82 345.626953125 202 473 365 473 c 3
 422 473 463 463 480 456 c 1
 469 347 l 1
 430 345 l 1
 423 419 l 1
 408 427 382 433 353 433 c 3
 225 433 160 335.989257812 160 202 c 3
 160 70.0263671875 236 31 314 31 c 3
 342 31 355 33 376 40 c 1
 396 120 l 1
 440 117 l 1
 423 21 l 1
 386 4 335 -12 270 -12 c 3
EndSplineSet
Validated: 1
LCarets2: 5 0 0 0 0 0
Ligature2: "SmallCapsClose subtable" c.smcpflag less slash s c greater
EndChar

StartChar: d.smcp
Encoding: 65561 -1 584
Width: 520
VWidth: 0
GlyphClass: 3
Flags: HMW
LayerCount: 2
Back
Fore
SplineSet
269 425 m 1
 200 36 l 1
 274 36 l 2
 397 36 454 147 454 292 c 3
 454 389.005859375 421 425 323 425 c 2
 269 425 l 1
132 461 m 1
 330 461 l 2
 482 461 534 416 534 309 c 3
 534 93.82421875 424 -2.02066721859e-14 259 0 c 2
 53 0 l 1
 53 18 l 1
 128 43 l 1
 195 425 l 1
 132 443 l 1
 132 461 l 1
EndSplineSet
Validated: 1
LCarets2: 5 0 0 0 0 0
Ligature2: "SmallCapsClose subtable" d.smcpflag less slash s c greater
EndChar

StartChar: e.smcp
Encoding: 65562 -1 585
Width: 490
VWidth: -3
GlyphClass: 3
Flags: HMW
LayerCount: 2
Back
Fore
SplineSet
132 461 m 1
 414 461 l 1
 470 466 l 1
 489 466 l 1
 475 358 l 1
 440 356 l 1
 440 425 l 1
 269 425 l 1
 240 259 l 1
 358 259 l 1
 381 308 l 1
 409 308 l 1
 386 178 l 1
 358 178 l 1
 352 227 l 1
 234 227 l 1
 200 36 l 1
 384 36 l 1
 416 116 l 1
 450 111 l 1
 422 0 l 1
 53 0 l 1
 53 18 l 1
 128 43 l 1
 195 425 l 1
 132 443 l 1
 132 461 l 1
EndSplineSet
Validated: 1
LCarets2: 5 0 0 0 0 0
Ligature2: "SmallCapsClose subtable" e.smcpflag less slash s c greater
EndChar

StartChar: f.smcp
Encoding: 65563 -1 586
Width: 435
VWidth: -3
GlyphClass: 3
Flags: HMW
LayerCount: 2
Back
Fore
SplineSet
132 461 m 1
 404 461 l 1
 460 466 l 1
 479 466 l 1
 465 358 l 1
 430 356 l 1
 430 425 l 1
 269 425 l 1
 238 250 l 1
 346 250 l 1
 370 299 l 1
 398 299 l 1
 375 169 l 1
 347 169 l 1
 340 218 l 1
 232 218 l 1
 200 34 l 1
 271 18 l 1
 271 0 l 1
 53 0 l 1
 53 18 l 1
 128 43 l 1
 195 425 l 1
 132 443 l 1
 132 461 l 1
EndSplineSet
Validated: 1
LCarets2: 5 0 0 0 0 0
Ligature2: "SmallCapsClose subtable" f.smcpflag less slash s c greater
EndChar

StartChar: g.smcp
Encoding: 65564 -1 587
Width: 506
VWidth: -3
GlyphClass: 3
Flags: HMW
AnchorPoint: "bottom" 261 0 basechar 0
AnchorPoint: "top" 328 461 basechar 0
LayerCount: 2
Back
Fore
SplineSet
270 -12 m 3
 191 -12 82 24.5537109375 82 179 c 3
 82 345.626953125 202 473 365 473 c 3
 422 473 464 463 481 456 c 1
 470 347 l 1
 431 345 l 1
 424 419 l 1
 409 427 382 433 353 433 c 3
 225 433 160 335.989257812 160 202 c 3
 160 70.0263671875 224 28 302 28 c 3
 327 28 343 31 358 35 c 1
 383 176 l 1
 327 190 l 1
 327 208 l 1
 464 216 l 1
 431 30 l 1
 377 -1 329 -12 270 -12 c 3
EndSplineSet
Validated: 1
LCarets2: 5 0 0 0 0 0
Ligature2: "SmallCapsClose subtable" g.smcpflag less slash s c greater
EndChar

StartChar: h.smcp
Encoding: 65565 -1 588
Width: 580
VWidth: -3
GlyphClass: 3
Flags: HMW
LayerCount: 2
Back
Fore
SplineSet
134 461 m 1
 326 461 l 1
 326 443 l 1
 268 422 l 1
 241 270 l 1
 440 270 l 1
 466 422 l 1
 416 443 l 1
 416 461 l 1
 608 461 l 1
 608 443 l 1
 540 422 l 1
 472 34 l 1
 533 18 l 1
 533 0 l 1
 335 0 l 1
 335 18 l 1
 400 43 l 1
 433 232 l 1
 234 232 l 1
 200 34 l 1
 251 18 l 1
 251 0 l 1
 53 0 l 1
 53 18 l 1
 128 43 l 1
 194 422 l 1
 134 443 l 1
 134 461 l 1
EndSplineSet
Validated: 1
LCarets2: 5 0 0 0 0 0
Ligature2: "SmallCapsClose subtable" h.smcpflag less slash s c greater
EndChar

StartChar: i.smcp
Encoding: 65566 -1 589
Width: 308
VWidth: -3
GlyphClass: 3
Flags: HMW
LayerCount: 2
Back
Fore
SplineSet
134 461 m 1
 336 461 l 1
 336 443 l 1
 268 422 l 1
 200 34 l 1
 261 18 l 1
 261 0 l 1
 53 0 l 1
 53 18 l 1
 128 43 l 1
 194 422 l 1
 134 443 l 1
 134 461 l 1
EndSplineSet
Validated: 1
LCarets2: 5 0 0 0 0 0
Ligature2: "SmallCapsClose subtable" i.smcpflag less slash s c greater
EndChar

StartChar: j.smcp
Encoding: 65567 -1 590
Width: 299
VWidth: -3
GlyphClass: 3
Flags: HMW
LayerCount: 2
Back
Fore
SplineSet
125 461 m 5
 327 461 l 5
 327 443 l 5
 259 422 l 5
 196 61 l 2
 178.594963433 -38.5796354424 116 -166 -9 -232 c 1
 -18 -215 l 1
 66 -151 104 -41 115 22 c 2
 185 422 l 5
 125 443 l 5
 125 461 l 5
EndSplineSet
Validated: 1
LCarets2: 5 0 0 0 0 0
Ligature2: "SmallCapsClose subtable" j.smcpflag less slash s c greater
EndChar

StartChar: k.smcp
Encoding: 65568 -1 591
Width: 505
VWidth: 0
GlyphClass: 3
Flags: HMW
LayerCount: 2
Back
Fore
SplineSet
275 461 m 1
 200 34 l 1
 251 18 l 1
 251 0 l 1
 53 0 l 1
 53 18 l 1
 128 43 l 1
 194 422 l 1
 134 443 l 1
 134 461 l 1
 275 461 l 1
387 461 m 1
 532 461 l 1
 532 438 l 1
 461 417 l 17
 311 253 l 1
 440 63 l 1
 478 18 l 1
 475 0 l 1
 381 0 l 1
 243 225 l 1
 414 420 l 9
 387 438 l 1
 387 461 l 1
EndSplineSet
Validated: 1
LCarets2: 5 0 0 0 0 0
Ligature2: "SmallCapsClose subtable" k.smcpflag less slash s c greater
EndChar

StartChar: l.smcp
Encoding: 65569 -1 592
Width: 450
VWidth: -3
GlyphClass: 3
Flags: HMW
LayerCount: 2
Back
Fore
SplineSet
134 461 m 1
 336 461 l 1
 336 443 l 1
 268 422 l 1
 200 36 l 1
 379 36 l 5
 411 116 l 5
 445 111 l 5
 417 0 l 5
 53 0 l 1
 53 18 l 1
 128 43 l 1
 194 422 l 1
 134 443 l 1
 134 461 l 1
EndSplineSet
Validated: 1
LCarets2: 5 0 0 0 0 0
Ligature2: "SmallCapsClose subtable" l.smcpflag less slash s c greater
EndChar

StartChar: m.smcp
Encoding: 65570 -1 593
Width: 670
VWidth: 0
GlyphClass: 3
Flags: HMW
LayerCount: 2
Back
Fore
SplineSet
121 461 m 1
 293 461 l 1
 359 144 l 1
 538 461 l 1
 698 461 l 1
 698 443 l 1
 630 422 l 1
 562 34 l 1
 623 18 l 1
 623 0 l 1
 421 0 l 1
 421 18 l 1
 490 43 l 1
 554 407 l 1
 551 407 l 1
 337 32 l 1
 303 32 l 1
 228 404 l 1
 223 404 l 1
 158 36 l 1
 212 20 l 1
 212 0 l 1
 44 0 l 1
 44 20 l 1
 114 36 l 1
 183 425 l 1
 121 440 l 1
 121 461 l 1
EndSplineSet
Validated: 1
LCarets2: 5 0 0 0 0 0
Ligature2: "SmallCapsClose subtable" m.smcpflag less slash s c greater
EndChar

StartChar: n.smcp
Encoding: 65571 -1 594
Width: 560
VWidth: 0
GlyphClass: 3
Flags: HMW
LayerCount: 2
Back
Fore
SplineSet
121 461 m 1
 258 461 l 1
 435 122 l 1
 488 425 l 1
 435 441 l 1
 435 461 l 1
 598 461 l 1
 598 441 l 1
 532 425 l 1
 456 -5 l 1
 411 -5 l 1
 218 368 l 1
 216 368 l 1
 158 36 l 1
 212 20 l 1
 212 0 l 1
 44 0 l 1
 44 20 l 1
 114 36 l 1
 183 425 l 1
 121 440 l 1
 121 461 l 1
EndSplineSet
Validated: 1
LCarets2: 5 0 0 0 0 0
Ligature2: "SmallCapsClose subtable" n.smcpflag less slash s c greater
EndChar

StartChar: o.smcp
Encoding: 65572 -1 595
Width: 524
GlyphClass: 3
Flags: HMW
LayerCount: 2
Back
Fore
SplineSet
322 435 m 3
 217 435 165 336 165 192 c 3
 165 91 202 26 283 26 c 3
 388 26 440 125 440 269 c 3
 440 370 403 435 322 435 c 3
343 473 m 3
 473 473 523 384 523 280 c 3
 523 117 406 -12 262 -12 c 3
 132 -12 82 77 82 181 c 3
 82 344 199 473 343 473 c 3
EndSplineSet
Validated: 1
LCarets2: 5 0 0 0 0 0
Ligature2: "SmallCapsClose subtable" o.smcpflag less slash s c greater
EndChar

StartChar: p.smcp
Encoding: 65573 -1 596
Width: 480
VWidth: 0
GlyphClass: 3
Flags: HMW
LayerCount: 2
Back
Fore
SplineSet
251 196 m 1
 257 228 l 1
 365 228 412 268 412 357 c 3
 412 410.084960938 384 425 324 425 c 2
 269 425 l 1
 200 34 l 1
 271 18 l 1
 271 0 l 1
 53 0 l 1
 53 18 l 1
 128 43 l 1
 195 425 l 1
 132 443 l 1
 132 461 l 1
 344 461 l 2
 452 461 495 444.153320312 495 364 c 3
 495 262.955078125 414 196 251 196 c 1
EndSplineSet
Validated: 1
LCarets2: 5 0 0 0 0 0
Ligature2: "SmallCapsClose subtable" p.smcpflag less slash s c greater
EndChar

StartChar: q.smcp
Encoding: 65574 -1 597
Width: 524
VWidth: -3
GlyphClass: 3
Flags: HMW
LayerCount: 2
Back
Fore
SplineSet
194 -16 m 1
 361 -51 l 1
 358 -66 l 1
 326 -118 l 1
 182 -44 l 1
 194 -16 l 1
EndSplineSet
Refer: 595 -1 N 1 0 0 1 0 0 2
Validated: 1
LCarets2: 5 0 0 0 0 0
Ligature2: "SmallCapsClose subtable" q.smcpflag less slash s c greater
EndChar

StartChar: r.smcp
Encoding: 65575 -1 598
Width: 521
VWidth: 0
GlyphClass: 3
Flags: HMW
LayerCount: 2
Back
Fore
SplineSet
269 425 m 1
 199 31 l 1
 257 20 l 1
 257 0 l 1
 53 0 l 1
 53 18 l 1
 128 43 l 1
 195 425 l 1
 132 443 l 1
 132 461 l 1
 345 461 l 2
 454 461 491 443.87109375 491 365 c 3
 491 277.978515625 405 234 339 223 c 1
 440 63 l 1
 474 18 l 1
 471 0 l 1
 382 0 l 1
 257 229 l 1
 259 240 l 1
 354 240 408 285.046875 408 359 c 3
 408 409.16015625 386 425 331 425 c 2
 269 425 l 1
EndSplineSet
Validated: 1
LCarets2: 5 0 0 0 0 0
Ligature2: "SmallCapsClose subtable" r.smcpflag less slash s c greater
EndChar

StartChar: s.smcp
Encoding: 65576 -1 599
Width: 430
VWidth: 0
GlyphClass: 3
Flags: HMW
AnchorPoint: "bottom" 218 0 basechar 0
AnchorPoint: "top" 305 461 basechar 0
LayerCount: 2
Back
Fore
SplineSet
312 473 m 3
 361 473 407 464 435 453 c 1
 421 347 l 1
 385 346 l 1
 377 417 l 1
 364 430 331 438 294 438 c 3
 228 438 192 407.579101562 192 363 c 3
 192 316.211914062 238 293 287 268 c 0
 363 229 405 208.103515625 405 131 c 3
 405 40.8515625 328 -12 203 -12 c 3
 150 -12 102 1 68 18 c 1
 78 127 l 1
 118 128 l 1
 123 57 l 1
 142 38 181 26 225 26 c 3
 287 26 330 52.337890625 330 101 c 3
 330 145.788085938 292 172 236 200 c 0
 162 237 123 272.8515625 123 334 c 3
 123 411.06640625 196 473 312 473 c 3
EndSplineSet
Validated: 1
LCarets2: 5 0 0 0 0 0
Ligature2: "SmallCapsClose subtable" s.smcpflag less slash s c greater
EndChar

StartChar: t.smcp
Encoding: 65577 -1 600
Width: 470
VWidth: -3
GlyphClass: 3
Flags: HMW
LayerCount: 2
Back
Fore
SplineSet
117 466 m 5
 136 466 l 5
 190 461 l 5
 436 461 l 5
 492 466 l 5
 511 466 l 5
 505 360 l 5
 471 356 l 5
 462 425 l 5
 347 425 l 5
 278 34 l 1
 339 18 l 1
 339 0 l 1
 131 0 l 1
 131 18 l 1
 206 43 l 1
 273 425 l 5
 152 425 l 5
 130 356 l 5
 95 360 l 5
 117 466 l 5
EndSplineSet
Validated: 1
LCarets2: 5 0 0 0 0 0
Ligature2: "SmallCapsClose subtable" t.smcpflag less slash s c greater
EndChar

StartChar: u.smcp
Encoding: 65578 -1 601
Width: 549
VWidth: 0
GlyphClass: 3
Flags: HMW
LayerCount: 2
Back
Fore
SplineSet
521 425 m 1
 479 188 l 2
 460 82 424 -12 274 -12 c 3
 132 -12 114.145667932 53.1480842251 137 185 c 2
 178 422 l 1
 118 443 l 1
 118 461 l 1
 315 461 l 1
 315 443 l 1
 252 422 l 1
 210 184 l 2
 194 91 203 37 298 37 c 3
 384 37 410 74 430 187 c 2
 472 425 l 1
 419 441 l 1
 419 461 l 1
 587 461 l 1
 587 441 l 1
 521 425 l 1
EndSplineSet
Validated: 33
LCarets2: 5 0 0 0 0 0
Ligature2: "SmallCapsClose subtable" u.smcpflag less slash s c greater
EndChar

StartChar: v.smcp
Encoding: 65579 -1 602
Width: 450
VWidth: -3
GlyphClass: 3
Flags: HMW
LayerCount: 2
Back
Fore
SplineSet
482 425 m 17
 239 -12 l 1
 211 -12 l 1
 119 429 l 1
 68 443 l 1
 68 461 l 1
 250 461 l 1
 250 443 l 1
 203 427 l 1
 265 101 l 1
 434 428 l 9
 382 443 l 1
 382 461 l 1
 548 461 l 1
 548 443 l 1
 482 425 l 17
EndSplineSet
Validated: 1
LCarets2: 5 0 0 0 0 0
Ligature2: "SmallCapsClose subtable" v.smcpflag less slash s c greater
EndChar

StartChar: w.smcp
Encoding: 65580 -1 603
Width: 653
VWidth: -3
GlyphClass: 3
Flags: HMW
LayerCount: 2
Back
Fore
SplineSet
439 442 m 1
 487 116 l 1
 631 428 l 9
 579 443 l 1
 579 461 l 1
 745 461 l 1
 745 443 l 1
 679 425 l 17
 464 -6 l 1
 431 -6 l 1
 380 337 l 1
 220 -6 l 1
 187 -6 l 1
 117 429 l 1
 66 443 l 1
 66 461 l 1
 248 461 l 1
 248 443 l 1
 199 427 l 1
 244 116 l 1
 397 442 l 1
 439 442 l 1
EndSplineSet
Validated: 1
LCarets2: 5 0 0 0 0 0
Ligature2: "SmallCapsClose subtable" w.smcpflag less slash s c greater
EndChar

StartChar: x.smcp
Encoding: 65581 -1 604
Width: 486
VWidth: 0
GlyphClass: 3
Flags: HMW
LayerCount: 2
Back
SplineSet
270 257 m 5
 289 233 l 5
 147 34 l 5
 178 18 l 5
 178 0 l 5
 33 0 l 5
 33 18 l 5
 101 36 l 5
 270 257 l 5
309 241 m 5
 291 265 l 5
 405 429 l 5
 385 443 l 5
 385 461 l 5
 516 461 l 5
 516 443 l 5
 450 427 l 5
 309 241 l 5
257 429 m 5
 313 265 l 5
 406 36 l 5
 459 18 l 5
 459 0 l 5
 307 0 l 5
 307 18 l 5
 322 30 l 5
 258 220 l 5
 172 426 l 5
 119 443 l 5
 119 461 l 5
 277 461 l 5
 277 443 l 5
 257 429 l 5
EndSplineSet
Fore
SplineSet
119 461 m 1
 277 461 l 1
 277 443 l 1
 257 429 l 1
 306 286 l 1
 405 429 l 1
 385 443 l 1
 385 461 l 1
 516 461 l 1
 516 443 l 1
 450 427 l 1
 318 253 l 1
 406 36 l 1
 459 18 l 1
 459 0 l 1
 307 0 l 1
 307 18 l 1
 322 30 l 1
 265 199 l 1
 147 34 l 1
 178 18 l 1
 178 0 l 1
 33 0 l 1
 33 18 l 1
 101 36 l 1
 252 234 l 1
 172 426 l 1
 119 443 l 1
 119 461 l 1
EndSplineSet
Validated: 1
LCarets2: 5 0 0 0 0 0
Ligature2: "SmallCapsClose subtable" x.smcpflag less slash s c greater
EndChar

StartChar: y.smcp
Encoding: 65582 -1 605
Width: 444
VWidth: 0
GlyphClass: 3
Flags: HMW
LayerCount: 2
Back
Fore
SplineSet
83 461 m 1
 258 461 l 1
 258 443 l 1
 216 427 l 1
 279 237 l 1
 403 428 l 1
 356 443 l 1
 356 461 l 1
 517 461 l 1
 517 443 l 1
 451 425 l 1
 290 192 l 1
 262 34 l 1
 323 18 l 1
 323 0 l 1
 115 0 l 1
 115 18 l 1
 190 43 l 1
 216 193 l 1
 134 429 l 1
 83 443 l 1
 83 461 l 1
EndSplineSet
Validated: 1
LCarets2: 5 0 0 0 0 0
Ligature2: "SmallCapsClose subtable" y.smcpflag less slash s c greater
EndChar

StartChar: z.smcp
Encoding: 65583 -1 606
Width: 463
VWidth: 0
GlyphClass: 3
Flags: HMW
LayerCount: 2
Back
Fore
SplineSet
364 36 m 1
 398 121 l 1
 433 116 l 1
 402 0 l 1
 57 0 l 1
 53 18 l 1
 368 425 l 1
 194 425 l 1
 165 344 l 1
 128 348 l 1
 158 466 l 1
 178 466 l 1
 232 461 l 1
 471 461 l 1
 477 444 l 1
 160 36 l 1
 364 36 l 1
EndSplineSet
Validated: 1
LCarets2: 5 0 0 0 0 0
Ligature2: "SmallCapsClose subtable" z.smcpflag less slash s c greater
EndChar

StartChar: startsc
Encoding: 57383 57383 607
Width: 500
VWidth: 0
GlyphClass: 3
Flags: HMW
LayerCount: 2
Back
Fore
SplineSet
175.865234375 -187.642578125 m 3
 159.545898438 -187.642578125 147.666015625 -196.762695312 147.666015625 -210.5625 c 3
 147.666015625 -223.162109375 155.225585938 -230.122070312 172.625976562 -235.522460938 c 0
 185.5859375 -239.482421875 189.065429688 -242.602539062 189.065429688 -249.5625 c 3
 189.065429688 -257.602539062 182.706054688 -261.921875 173.825195312 -261.921875 c 3
 165.185546875 -261.921875 158.5859375 -258.801757812 152.5859375 -253.642578125 c 1
 144.305664062 -262.762695312 l 1
 151.145507812 -269.482421875 160.985351562 -274.162109375 174.185546875 -274.162109375 c 3
 193.985351562 -274.162109375 205.625976562 -263.602539062 205.625976562 -248.72265625 c 3
 205.625976562 -233.122070312 195.545898438 -227.122070312 181.025390625 -222.5625 c 0
 167.225585938 -218.2421875 163.985351562 -215.602539062 163.985351562 -209.602539062 c 3
 163.985351562 -203.122070312 169.385742188 -199.762695312 176.825195312 -199.762695312 c 3
 183.666015625 -199.762695312 189.42578125 -201.921875 195.42578125 -206.841796875 c 1
 203.225585938 -197.841796875 l 1
 196.025390625 -191.2421875 187.985351562 -187.642578125 175.865234375 -187.642578125 c 3
250.69140625 -187.642578125 m 3
 230.53125 -187.642578125 214.69140625 -202.881835938 214.69140625 -230.72265625 c 3
 214.69140625 -258.921875 229.69140625 -274.162109375 251.170898438 -274.162109375 c 3
 262.451171875 -274.162109375 271.090820312 -269.2421875 276.130859375 -264.08203125 c 1
 268.69140625 -254.482421875 l 1
 263.891601562 -258.08203125 258.971679688 -261.442382812 251.891601562 -261.442382812 c 3
 240.01171875 -261.442382812 231.37109375 -252.5625 231.37109375 -230.72265625 c 3
 231.37109375 -208.282226562 240.250976562 -199.881835938 251.651367188 -199.881835938 c 3
 257.411132812 -199.881835938 262.331054688 -201.921875 267.01171875 -205.881835938 c 1
 275.170898438 -196.40234375 l 1
 268.451171875 -190.762695312 261.611328125 -187.642578125 250.69140625 -187.642578125 c 3
60 -130 m 2
 360 -130 l 2
 415.400390625 -130 460 -174.599609375 460 -230 c 3
 460 -285.400390625 415.400390625 -330 360 -330 c 2
 60 -330 l 2
 4.599609375 -330 -40 -285.400390625 -40 -230 c 3
 -40 -174.599609375 4.599609375 -130 60 -130 c 2
0 0 m 1
 500 0 l 1
 500 -34 l 1
 0 -34 l 1
 0 0 l 1
EndSplineSet
Validated: 1
Ligature2: "SmallCapsOpen subtable" less s c greater
EndChar

